<svg width="19" height="19" viewBox="0 0 19 19" fill="none" xmlns="http://www.w3.org/2000/svg">
<path d="M13.4009 0.68634H5.21216C2.54708 0.68634 0.378906 2.85449 0.378906 5.51958V13.7084C0.378906 16.3735 2.54708 18.5416 5.21216 18.5416H13.4011C16.0659 18.5416 18.2341 16.3735 18.2341 13.7084V5.51958C18.2341 2.85449 16.0659 0.68634 13.4009 0.68634ZM9.30652 14.4961C6.61446 14.4961 4.42438 12.306 4.42438 9.61395C4.42438 6.92187 6.61446 4.7318 9.30652 4.7318C11.9986 4.7318 14.1888 6.92187 14.1888 9.61395C14.1888 12.306 11.9986 14.4961 9.30652 14.4961ZM14.3054 5.88318C13.5099 5.88318 12.8628 5.2361 12.8628 4.44055C12.8628 3.64501 13.5099 2.99779 14.3054 2.99779C15.101 2.99779 15.7481 3.64501 15.7481 4.44055C15.7481 5.2361 15.101 5.88318 14.3054 5.88318Z" fill="white"/>
<path d="M9.3061 5.77869C7.19133 5.77869 5.4707 7.4992 5.4707 9.61408C5.4707 11.7288 7.19133 13.4495 9.3061 13.4495C11.421 13.4495 13.1414 11.7288 13.1414 9.61408C13.1414 7.4992 11.421 5.77869 9.3061 5.77869Z" fill="white"/>
<path d="M14.306 4.04456C14.0878 4.04456 13.9102 4.22219 13.9102 4.44042C13.9102 4.65866 14.0878 4.8363 14.306 4.8363C14.5243 4.8363 14.7021 4.65878 14.7021 4.44042C14.7021 4.22205 14.5243 4.04456 14.306 4.04456Z" fill="white"/>
</svg>
