<svg width="62" height="19" viewBox="0 0 62 19" fill="none" xmlns="http://www.w3.org/2000/svg">
<path d="M8.99678 18.312C6.45278 18.312 4.34878 17.472 2.68478 15.792C1.03678 14.112 0.212781 12.048 0.212781 9.6C0.212781 7.152 1.03678 5.088 2.68478 3.408C4.34878 1.728 6.45278 0.887999 8.99678 0.887999C10.5328 0.887999 11.9408 1.256 13.2208 1.992C14.5168 2.728 15.5248 3.72 16.2448 4.968L14.3008 6.096C13.8208 5.168 13.1008 4.432 12.1408 3.888C11.1968 3.328 10.1488 3.048 8.99678 3.048C7.06078 3.048 5.47678 3.672 4.24478 4.92C3.02878 6.168 2.42078 7.728 2.42078 9.6C2.42078 11.456 3.02878 13.008 4.24478 14.256C5.47678 15.504 7.06078 16.128 8.99678 16.128C10.1488 16.128 11.1968 15.856 12.1408 15.312C13.1008 14.752 13.8208 14.016 14.3008 13.104L16.2448 14.208C15.5408 15.456 14.5408 16.456 13.2448 17.208C11.9488 17.944 10.5328 18.312 8.99678 18.312Z" fill="#38BFF2"/>
<path d="M28.755 16.488C27.523 17.704 26.027 18.312 24.267 18.312C22.507 18.312 21.011 17.704 19.779 16.488C18.563 15.272 17.955 13.776 17.955 12C17.955 10.224 18.563 8.728 19.779 7.512C21.011 6.296 22.507 5.688 24.267 5.688C26.027 5.688 27.523 6.296 28.755 7.512C29.987 8.728 30.603 10.224 30.603 12C30.603 13.776 29.987 15.272 28.755 16.488ZM24.267 16.272C25.467 16.272 26.475 15.864 27.291 15.048C28.107 14.232 28.515 13.216 28.515 12C28.515 10.784 28.107 9.768 27.291 8.952C26.475 8.136 25.467 7.728 24.267 7.728C23.083 7.728 22.083 8.136 21.267 8.952C20.451 9.768 20.043 10.784 20.043 12C20.043 13.216 20.451 14.232 21.267 15.048C22.083 15.864 23.083 16.272 24.267 16.272ZM51.755 12.96C51.963 14.032 52.451 14.864 53.219 15.456C54.003 16.048 54.963 16.344 56.099 16.344C57.683 16.344 58.835 15.76 59.555 14.592L61.331 15.6C60.163 17.408 58.403 18.312 56.051 18.312C54.147 18.312 52.595 17.72 51.395 16.536C50.211 15.336 49.619 13.824 49.619 12C49.619 10.192 50.203 8.688 51.371 7.488C52.539 6.288 54.051 5.688 55.907 5.688C57.667 5.688 59.099 6.312 60.203 7.56C61.323 8.792 61.883 10.28 61.883 12.024C61.883 12.328 61.859 12.64 61.811 12.96H51.755ZM55.907 7.656C54.787 7.656 53.859 7.976 53.123 8.616C52.387 9.24 51.931 10.08 51.755 11.136H59.771C59.595 10 59.147 9.136 58.427 8.544C57.707 7.952 56.867 7.656 55.907 7.656Z" fill="black"/>
<path d="M39.8325 1.2C42.1205 1.2 44.0165 2.016 45.5205 3.648C47.0405 5.264 47.8005 7.248 47.8005 9.6C47.8005 11.952 47.0405 13.944 45.5205 15.576C44.0165 17.192 42.1205 18 39.8325 18H33.2805V1.2H39.8325ZM39.8325 15.888C41.5445 15.888 42.9445 15.288 44.0325 14.088C45.1205 12.888 45.6645 11.392 45.6645 9.6C45.6645 7.808 45.1205 6.312 44.0325 5.112C42.9445 3.912 41.5445 3.312 39.8325 3.312H35.5125V15.888H39.8325Z" fill="#F15525"/>
</svg>
