<svg width="20" height="11" viewBox="0 0 20 11" fill="none" xmlns="http://www.w3.org/2000/svg">
<path fill-rule="evenodd" clip-rule="evenodd" d="M9.85008 10.9578H10.9654C10.9654 10.9578 11.3023 10.921 11.4743 10.7359C11.6326 10.5662 11.6276 10.2473 11.6276 10.2473C11.6276 10.2473 11.6058 8.7548 12.3004 8.53495C12.9851 8.31851 13.8644 9.97759 14.7964 10.6154C15.501 11.0982 16.0364 10.9924 16.0364 10.9924L18.5285 10.9578C18.5285 10.9578 19.8319 10.8777 19.2138 9.85549C19.1633 9.77182 18.8539 9.09937 17.3612 7.71741C15.7987 6.27105 16.0079 6.50499 17.89 4.00309C19.0364 2.4794 19.4946 1.54917 19.3514 1.15075C19.2148 0.771283 18.3718 0.871596 18.3718 0.871596L15.5662 0.889015C15.5662 0.889015 15.3582 0.860735 15.2039 0.95268C15.0532 1.04288 14.9561 1.25308 14.9561 1.25308C14.9561 1.25308 14.5121 2.43215 13.9198 3.43488C12.6705 5.55075 12.1709 5.66243 11.9668 5.53106C11.4918 5.22485 11.6104 4.30095 11.6104 3.64458C11.6104 1.59415 11.9222 0.7392 11.0032 0.517895C10.6982 0.444375 10.4737 0.395878 9.69376 0.388033C8.69266 0.377674 7.84532 0.39107 7.36554 0.62551C7.04637 0.781401 6.80015 1.12879 6.9501 1.14874C7.13554 1.1735 7.55552 1.26167 7.7782 1.56407C8.06572 1.95416 8.05558 2.83033 8.05558 2.83033C8.05558 2.83033 8.22074 5.24406 7.66978 5.54394C7.29157 5.74959 6.77279 5.32971 5.65895 3.41014C5.08824 2.42684 4.65734 1.33999 4.65734 1.33999C4.65734 1.33999 4.57427 1.13687 4.42606 1.02823C4.24621 0.896599 3.99492 0.854659 3.99492 0.854659L1.32878 0.872099C1.32878 0.872099 0.928533 0.883222 0.781614 1.05677C0.650907 1.21114 0.771234 1.53048 0.771234 1.53048C0.771234 1.53048 2.85854 6.40089 5.22199 8.85538C7.38911 11.1056 9.85008 10.9578 9.85008 10.9578Z" fill="white"/>
</svg>
