<svg width="21" height="15" viewBox="0 0 21 15" fill="none" xmlns="http://www.w3.org/2000/svg">
<path d="M19.474 1.66991C18.7645 0.826553 17.4547 0.482544 14.9531 0.482544H5.87262C3.31384 0.482544 1.9818 0.848739 1.27502 1.74662C0.585937 2.62205 0.585938 3.91193 0.585938 5.69715V9.09976C0.585938 12.5584 1.40353 14.3143 5.87262 14.3143H14.9531C17.1225 14.3143 18.3245 14.0108 19.1022 13.2665C19.8997 12.5032 20.24 11.2571 20.24 9.09976V5.69715C20.24 3.81449 20.1866 2.51699 19.474 1.66991ZM13.2038 7.86822L9.08047 10.0232C8.98829 10.0714 8.88748 10.0953 8.78679 10.0953C8.67281 10.0953 8.55907 10.0647 8.45833 10.0036C8.26863 9.88871 8.1528 9.68312 8.1528 9.46133V5.16509C8.1528 4.9437 8.26832 4.73829 8.45763 4.62328C8.64701 4.50826 8.88254 4.50041 9.07901 4.60248L13.2025 6.74363C13.4123 6.85255 13.544 7.06913 13.5444 7.30541C13.5446 7.54191 13.4135 7.75879 13.2038 7.86822Z" fill="white"/>
</svg>
