<svg width="64" height="57" viewBox="0 0 64 57" fill="none" xmlns="http://www.w3.org/2000/svg">
<path d="M6 0.75H43.3271C46.2265 0.750122 48.5771 3.10058 48.5771 6V34.5576C48.5771 37.457 46.2265 39.8075 43.3271 39.8076H19.4189C17.8107 39.8076 16.2244 40.1689 14.7764 40.8623L14.4883 41.0049L2.57324 47.1543C1.74127 47.5837 0.75 46.9802 0.75 46.0439V6C0.75 3.10051 3.1005 0.75 6 0.75Z" fill="white" stroke="#263238" stroke-width="1.5"/>
<path d="M51.726 13.1538H56.4805C59.7942 13.1538 62.4805 15.8401 62.4805 19.1538V48.6205V53.4776C62.4805 55.03 60.7888 55.9905 59.4556 55.1951L50.8049 50.0331C49.2555 49.1086 47.4849 48.6205 45.6807 48.6205H27.2452C24.3057 48.6205 21.9228 46.2376 21.9228 43.2981V43.2981" stroke="#263238" stroke-width="1.5"/>
<rect x="10.2109" y="12.4038" width="30" height="3.69231" rx="1.84615" fill="#38BFF2" stroke="#263238" stroke-width="1.5"/>
<rect x="10.2109" y="20.0769" width="23.4231" height="3.69231" rx="1.84615" fill="#38BFF2" stroke="#263238" stroke-width="1.5"/>
</svg>
