<svg width="308" height="322" viewBox="0 0 308 322" fill="none" xmlns="http://www.w3.org/2000/svg">
<path d="M259.522 167.427H48.9805V256.119H259.522V167.427Z" fill="#38BFF2" stroke="#263238" stroke-linecap="round" stroke-linejoin="round"/>
<path d="M73.1873 172.795H53.3809V183.76H73.1873V172.795Z" fill="white" stroke="#263238" stroke-miterlimit="10"/>
<path d="M254.653 226.257H223.455V237.221H254.653V226.257Z" fill="white" stroke="#263238" stroke-miterlimit="10"/>
<path d="M254.661 186.489H235.402V197.454H254.661V186.489Z" fill="white" stroke="#263238" stroke-miterlimit="10"/>
<path d="M73.1873 212.736H53.3809V223.701H73.1873V212.736Z" fill="white" stroke="#263238" stroke-miterlimit="10"/>
<path d="M69.4177 199.526H53.3809V210.49H69.4177V199.526Z" fill="white" stroke="#263238" stroke-miterlimit="10"/>
<path d="M64.3429 186.161H53.3809V197.125H64.3429V186.161Z" fill="white" stroke="#263238" stroke-miterlimit="10"/>
<path d="M78.3448 186.161H67.3828V197.125H78.3448V186.161Z" fill="white" stroke="#263238" stroke-miterlimit="10"/>
<path d="M92.337 186.161H81.375V197.125H92.337V186.161Z" fill="white" stroke="#263238" stroke-miterlimit="10"/>
<path d="M106.331 186.161H95.3691V197.125H106.331V186.161Z" fill="white" stroke="#263238" stroke-miterlimit="10"/>
<path d="M120.331 186.161H109.369V197.125H120.331V186.161Z" fill="white" stroke="#263238" stroke-miterlimit="10"/>
<path d="M134.325 186.161H123.363V197.125H134.325V186.161Z" fill="white" stroke="#263238" stroke-miterlimit="10"/>
<path d="M148.314 186.161H137.352V197.125H148.314V186.161Z" fill="white" stroke="#263238" stroke-miterlimit="10"/>
<path d="M162.316 186.161H151.354V197.125H162.316V186.161Z" fill="white" stroke="#263238" stroke-miterlimit="10"/>
<path d="M176.31 186.161H165.348V197.125H176.31V186.161Z" fill="white" stroke="#263238" stroke-miterlimit="10"/>
<path d="M190.31 186.161H179.348V197.125H190.31V186.161Z" fill="white" stroke="#263238" stroke-miterlimit="10"/>
<path d="M204.304 186.161H193.342V197.125H204.304V186.161Z" fill="white" stroke="#263238" stroke-miterlimit="10"/>
<path d="M218.298 186.161H207.336V197.125H218.298V186.161Z" fill="white" stroke="#263238" stroke-miterlimit="10"/>
<path d="M232.298 186.161H221.336V197.125H232.298V186.161Z" fill="white" stroke="#263238" stroke-miterlimit="10"/>
<path d="M64.3429 239.777H53.3809V250.742H64.3429V239.777Z" fill="white" stroke="#263238" stroke-miterlimit="10"/>
<path d="M78.3448 239.777H67.3828V250.742H78.3448V239.777Z" fill="white" stroke="#263238" stroke-miterlimit="10"/>
<path d="M92.337 239.777H81.375V250.742H92.337V239.777Z" fill="white" stroke="#263238" stroke-miterlimit="10"/>
<path d="M108.75 239.777H95.3691V250.742H108.75V239.777Z" fill="white" stroke="#263238" stroke-miterlimit="10"/>
<path d="M178.729 239.777H111.779V250.742H178.729V239.777Z" fill="white" stroke="#263238" stroke-miterlimit="10"/>
<path d="M226.191 239.777H215.229V250.742H226.191V239.777Z" fill="white" stroke="#263238" stroke-miterlimit="10"/>
<path d="M240.212 239.777H229.25V250.742H240.212V239.777Z" fill="white" stroke="#263238" stroke-miterlimit="10"/>
<path d="M198.489 239.777H181.467V250.742H198.489V239.777Z" fill="white" stroke="#263238" stroke-miterlimit="10"/>
<path d="M254.651 239.777H243.689V250.742H254.651V239.777Z" fill="white" stroke="#263238" stroke-miterlimit="10"/>
<path d="M83.4933 199.526H72.5312V210.49H83.4933V199.526Z" fill="white" stroke="#263238" stroke-miterlimit="10"/>
<path d="M97.4874 199.526H86.5254V210.49H97.4874V199.526Z" fill="white" stroke="#263238" stroke-miterlimit="10"/>
<path d="M111.487 199.526H100.525V210.49H111.487V199.526Z" fill="white" stroke="#263238" stroke-miterlimit="10"/>
<path d="M125.482 199.526H114.52V210.49H125.482V199.526Z" fill="white" stroke="#263238" stroke-miterlimit="10"/>
<path d="M139.483 199.526H128.521V210.49H139.483V199.526Z" fill="white" stroke="#263238" stroke-miterlimit="10"/>
<path d="M153.472 199.526H142.51V210.49H153.472V199.526Z" fill="white" stroke="#263238" stroke-miterlimit="10"/>
<path d="M167.466 199.526H156.504V210.49H167.466V199.526Z" fill="white" stroke="#263238" stroke-miterlimit="10"/>
<path d="M181.468 199.526H170.506V210.49H181.468V199.526Z" fill="white" stroke="#263238" stroke-miterlimit="10"/>
<path d="M195.46 199.526H184.498V210.49H195.46V199.526Z" fill="white" stroke="#263238" stroke-miterlimit="10"/>
<path d="M209.454 199.526H198.492V210.49H209.454V199.526Z" fill="white" stroke="#263238" stroke-miterlimit="10"/>
<path d="M223.454 199.526H212.492V210.49H223.454V199.526Z" fill="white" stroke="#263238" stroke-miterlimit="10"/>
<path d="M237.444 199.526H226.482V210.49H237.444V199.526Z" fill="white" stroke="#263238" stroke-miterlimit="10"/>
<path d="M254.649 199.526V223.865H243.687V210.49H240.475V199.526H254.649Z" fill="white" stroke="#263238" stroke-miterlimit="10"/>
<path d="M86.7081 212.891H75.7461V223.856H86.7081V212.891Z" fill="white" stroke="#263238" stroke-miterlimit="10"/>
<path d="M100.7 212.891H89.7383V223.856H100.7V212.891Z" fill="white" stroke="#263238" stroke-miterlimit="10"/>
<path d="M114.691 212.891H103.729V223.856H114.691V212.891Z" fill="white" stroke="#263238" stroke-miterlimit="10"/>
<path d="M128.691 212.891H117.729V223.856H128.691V212.891Z" fill="white" stroke="#263238" stroke-miterlimit="10"/>
<path d="M142.685 212.891H131.723V223.856H142.685V212.891Z" fill="white" stroke="#263238" stroke-miterlimit="10"/>
<path d="M156.685 212.891H145.723V223.856H156.685V212.891Z" fill="white" stroke="#263238" stroke-miterlimit="10"/>
<path d="M170.679 212.891H159.717V223.856H170.679V212.891Z" fill="white" stroke="#263238" stroke-miterlimit="10"/>
<path d="M184.673 212.891H173.711V223.856H184.673V212.891Z" fill="white" stroke="#263238" stroke-miterlimit="10"/>
<path d="M198.673 212.891H187.711V223.856H198.673V212.891Z" fill="white" stroke="#263238" stroke-miterlimit="10"/>
<path d="M212.667 212.891H201.705V223.856H212.667V212.891Z" fill="white" stroke="#263238" stroke-miterlimit="10"/>
<path d="M226.657 212.891H215.695V223.856H226.657V212.891Z" fill="white" stroke="#263238" stroke-miterlimit="10"/>
<path d="M240.657 212.891H229.695V223.856H240.657V212.891Z" fill="white" stroke="#263238" stroke-miterlimit="10"/>
<path d="M80.753 226.257H69.791V237.221H80.753V226.257Z" fill="white" stroke="#263238" stroke-miterlimit="10"/>
<path d="M94.7472 226.257H83.7852V237.221H94.7472V226.257Z" fill="white" stroke="#263238" stroke-miterlimit="10"/>
<path d="M108.747 226.257H97.7852V237.221H108.747V226.257Z" fill="white" stroke="#263238" stroke-miterlimit="10"/>
<path d="M122.741 226.257H111.779V237.221H122.741V226.257Z" fill="white" stroke="#263238" stroke-miterlimit="10"/>
<path d="M136.743 226.257H125.781V237.221H136.743V226.257Z" fill="white" stroke="#263238" stroke-miterlimit="10"/>
<path d="M150.735 226.257H139.773V237.221H150.735V226.257Z" fill="white" stroke="#263238" stroke-miterlimit="10"/>
<path d="M164.73 226.257H153.768V237.221H164.73V226.257Z" fill="white" stroke="#263238" stroke-miterlimit="10"/>
<path d="M178.73 226.257H167.768V237.221H178.73V226.257Z" fill="white" stroke="#263238" stroke-miterlimit="10"/>
<path d="M192.72 226.257H181.758V237.221H192.72V226.257Z" fill="white" stroke="#263238" stroke-miterlimit="10"/>
<path d="M206.714 226.257H195.752V237.221H206.714V226.257Z" fill="white" stroke="#263238" stroke-miterlimit="10"/>
<path d="M220.714 226.257H209.752V237.221H220.714V226.257Z" fill="white" stroke="#263238" stroke-miterlimit="10"/>
<path d="M86.7081 173.453H75.7461V184.417H86.7081V173.453Z" fill="white" stroke="#263238" stroke-miterlimit="10"/>
<path d="M100.7 173.453H89.7383V184.417H100.7V173.453Z" fill="white" stroke="#263238" stroke-miterlimit="10"/>
<path d="M114.691 173.453H103.729V184.417H114.691V173.453Z" fill="white" stroke="#263238" stroke-miterlimit="10"/>
<path d="M128.691 173.453H117.729V184.417H128.691V173.453Z" fill="white" stroke="#263238" stroke-miterlimit="10"/>
<path d="M142.685 173.453H131.723V184.417H142.685V173.453Z" fill="white" stroke="#263238" stroke-miterlimit="10"/>
<path d="M156.685 173.453H145.723V184.417H156.685V173.453Z" fill="white" stroke="#263238" stroke-miterlimit="10"/>
<path d="M170.679 173.453H159.717V184.417H170.679V173.453Z" fill="white" stroke="#263238" stroke-miterlimit="10"/>
<path d="M184.673 173.453H173.711V184.417H184.673V173.453Z" fill="white" stroke="#263238" stroke-miterlimit="10"/>
<path d="M198.673 173.453H187.711V184.417H198.673V173.453Z" fill="white" stroke="#263238" stroke-miterlimit="10"/>
<path d="M212.667 173.453H201.705V184.417H212.667V173.453Z" fill="white" stroke="#263238" stroke-miterlimit="10"/>
<path d="M226.657 173.453H215.695V184.417H226.657V173.453Z" fill="white" stroke="#263238" stroke-miterlimit="10"/>
<path d="M240.657 173.453H229.695V184.417H240.657V173.453Z" fill="white" stroke="#263238" stroke-miterlimit="10"/>
<path d="M254.651 173.453H243.689V184.417H254.651V173.453Z" fill="white" stroke="#263238" stroke-miterlimit="10"/>
<path d="M66.6612 226.257H53.3809V237.221H66.6612V226.257Z" fill="white" stroke="#263238" stroke-miterlimit="10"/>
<path d="M48.9805 167.993L53.3799 166.524H256.666L259.559 167.975L48.9805 167.993Z" fill="#263238"/>
<path d="M233.348 273.072L233.457 232.711C233.895 231.086 234.251 225.097 235.182 220.925C236.77 213.932 230.527 205.497 230.089 205.223C228.337 204.127 224.613 204.146 224.613 204.146C224.613 204.146 220.962 199.983 217.703 198.668C215.464 197.873 213.077 197.577 210.712 197.801C208.203 195.728 205.404 194.034 202.406 192.77C201.232 192.327 199.959 192.215 198.725 192.446C197.492 192.678 196.347 193.245 195.414 194.085L191.307 200.476C190.707 201.382 190.435 202.467 190.536 203.55C190.637 204.633 191.106 205.648 191.864 206.428C193.817 208.345 196.318 207.45 197.577 207.45C199.321 207.45 199.978 205.478 199.978 205.478C199.978 205.478 200.407 215.749 199.978 217.064C199.531 218.369 196.263 221.427 196.263 221.427L185.31 206.976C181.55 201.873 178.26 196.44 175.48 190.744C175.163 190.049 174.748 189.403 174.248 188.827C172.331 186.663 168.233 186.024 167.165 190.041C166.902 191.326 166.962 192.655 167.338 193.912C171.902 207.405 177.725 217.602 183.028 228.229C186.177 234.537 185.009 234.464 186.579 237.312C186.396 237.44 186.487 237.678 186.287 237.796C185.52 240.864 184.981 243.94 184.206 247.008C183.563 243.157 182.386 239.414 180.71 235.888C181.152 233.752 181.315 231.567 181.194 229.388C181.057 227.187 180.076 225.123 178.455 223.628C177.548 222.893 176.435 222.46 175.27 222.386C174.436 222.331 173.612 222.593 172.962 223.12C172.312 223.646 171.885 224.398 171.765 225.225C171.583 226.895 171.278 228.549 170.852 230.173C170.154 232.294 169.313 234.365 168.333 236.372C168.333 240.453 170.852 239.786 172.687 256.164C174.111 268.945 190.54 277.354 199.485 286.565L210.078 317.864C223.407 311.592 228.895 308.456 240.263 299.831L233.348 273.072Z" fill="white"/>
<path d="M178.685 250.979C178.795 250.778 178.886 250.577 178.977 250.367C178.88 250.436 178.802 250.528 178.751 250.635C178.7 250.742 178.677 250.861 178.685 250.979Z" fill="#92E3A9"/>
<path d="M204.999 194.505C203.746 193.526 202.257 192.896 200.682 192.679L204.999 194.505Z" fill="#92E3A9"/>
<path d="M200.137 198.778L200.191 199.234C200.223 199.08 200.204 198.92 200.137 198.778Z" fill="#92E3A9"/>
<g opacity="0.5">
<path opacity="0.5" d="M178.685 250.979C178.795 250.778 178.886 250.577 178.977 250.367C178.88 250.436 178.802 250.528 178.751 250.635C178.7 250.742 178.677 250.861 178.685 250.979Z" fill="white"/>
<path opacity="0.5" d="M204.999 194.505C203.746 193.526 202.257 192.896 200.682 192.679L204.999 194.505Z" fill="white"/>
<path opacity="0.5" d="M200.133 198.778L200.188 199.234C200.22 199.08 200.2 198.92 200.133 198.778Z" fill="white"/>
<path opacity="0.5" d="M205.161 238.371C204.751 237.349 202.761 234.409 201.602 236.445L205.161 238.371Z" fill="white"/>
</g>
<path d="M171.227 233.46C170.166 234.296 169.261 235.313 168.553 236.463L171.227 233.46Z" fill="white"/>
<path d="M210.079 317.864L199.577 286.538C190.632 277.326 174.203 268.9 172.779 256.137C170.953 239.759 168.425 240.426 168.425 236.345C169.405 234.338 170.246 232.267 170.944 230.146C171.37 228.521 171.675 226.867 171.857 225.198C171.977 224.37 172.404 223.618 173.054 223.092C173.703 222.566 174.528 222.304 175.362 222.359C176.527 222.432 177.64 222.866 178.547 223.6C180.168 225.096 181.148 227.16 181.285 229.361C181.407 231.539 181.244 233.724 180.802 235.861C182.478 239.387 183.655 243.129 184.297 246.98C185.073 243.913 185.612 240.836 186.379 237.769C186.579 237.65 186.488 237.413 186.671 237.285C185.101 234.437 186.269 234.546 183.12 228.201C177.817 217.575 172.003 207.377 167.43 193.884C167.054 192.628 166.994 191.298 167.257 190.013C168.324 185.997 172.423 186.636 174.339 188.799C174.84 189.376 175.255 190.022 175.572 190.716C178.352 196.413 181.642 201.846 185.402 206.948L196.355 221.4C196.355 221.4 199.622 218.342 200.07 217.036C200.499 215.722 200.07 205.451 200.07 205.451C200.07 205.451 199.412 207.423 197.669 207.423C196.41 207.423 193.909 208.336 191.955 206.401C191.19 205.634 190.709 204.629 190.591 203.552C190.473 202.475 190.726 201.39 191.307 200.476L195.387 194.085C196.32 193.245 197.465 192.678 198.699 192.447C199.932 192.215 201.205 192.327 202.379 192.77C205.378 194.034 208.176 195.728 210.685 197.801C213.051 197.577 215.437 197.873 217.676 198.668C220.962 199.992 224.586 204.146 224.586 204.146C224.586 204.146 228.301 204.146 230.062 205.223C230.5 205.497 236.744 213.932 235.155 220.925C234.243 225.097 233.868 231.086 233.43 232.711L233.321 273.072L240.656 299.831" stroke="#263238" stroke-miterlimit="10"/>
<path d="M211.717 199.225C213.324 205.179 214.158 211.316 214.199 217.483C214.148 218.517 214.258 219.552 214.528 220.551C214.67 221.048 214.936 221.5 215.302 221.864C215.668 222.229 216.121 222.493 216.618 222.632" stroke="#263238" stroke-miterlimit="10"/>
<path d="M224.621 205.223C227.359 210.938 224.557 223.701 224.758 224.604C224.844 225.059 225.026 225.489 225.292 225.867C225.558 226.245 225.902 226.561 226.301 226.795" stroke="#263238" stroke-miterlimit="10"/>
<path d="M201.091 198.44C200.772 200.266 200.507 202.365 200.178 204.182C199.116 203.268 198.246 202.151 197.619 200.897C196.993 199.643 196.621 198.277 196.527 196.879" stroke="#263238" stroke-miterlimit="10"/>
<path d="M183.602 247.154L181.631 248.021" stroke="#263238" stroke-miterlimit="10"/>
<path d="M184.105 248.733C183.79 250.257 183.79 251.829 184.105 253.353" stroke="#263238" stroke-miterlimit="10"/>
<path d="M195.645 231.67L197.826 235.605" stroke="#263238" stroke-miterlimit="10"/>
<path d="M199.842 217.274L202.014 214.206" stroke="#263238" stroke-miterlimit="10"/>
<path d="M230.388 231.67L229.73 234.081" stroke="#263238" stroke-miterlimit="10"/>
<path d="M225.08 225.125C225.689 223.08 226.331 221.035 227.006 218.99" stroke="#263238" stroke-miterlimit="10"/>
<path d="M231.467 214.215C232.044 213.913 232.718 213.851 233.341 214.045C233.964 214.238 234.484 214.67 234.789 215.247" stroke="#263238" stroke-miterlimit="10"/>
<path d="M218.387 203.735C219.144 203.522 219.943 203.503 220.71 203.678C221.477 203.853 222.187 204.218 222.777 204.739" stroke="#263238" stroke-miterlimit="10"/>
<path d="M177.732 209.824C178.441 209.047 179.323 208.449 180.306 208.078C181.289 207.706 182.347 207.573 183.391 207.688" stroke="#263238" stroke-miterlimit="10"/>
<path d="M169.492 192.606C170.145 192.135 170.884 191.798 171.667 191.613C172.45 191.428 173.262 191.4 174.056 191.529" stroke="#263238" stroke-miterlimit="10"/>
<path d="M171.227 233.46C170.166 234.296 169.261 235.313 168.553 236.463" stroke="#263238" stroke-miterlimit="10"/>
<path d="M172.066 229.306C173.509 228.283 175.809 230.584 177.132 229.406C177.367 229.142 177.531 228.823 177.609 228.478C177.687 228.133 177.677 227.774 177.579 227.434C177.384 226.755 177.295 226.05 177.315 225.344" stroke="#263238" stroke-miterlimit="10"/>
<path d="M212.768 222.979C214.524 226.626 214.881 230.791 213.772 234.683" stroke="#263238" stroke-miterlimit="10"/>
<path d="M223.372 228.612C223.656 230.338 223.333 232.109 222.459 233.624" stroke="#263238" stroke-miterlimit="10"/>
<path d="M131.637 228.099C131.244 226.274 128.679 226.557 128.679 226.557C120.054 227.059 118.895 240.579 118.895 240.579L115.801 249.846L114.888 235.914L114.979 217.957C114.979 217.957 117.589 200.775 116.43 198.082C116.166 197.339 115.684 196.693 115.047 196.228C114.411 195.762 113.649 195.499 112.861 195.471C107.841 194.211 107.549 201.451 107.549 201.451L103.314 216.222L101.525 232.153L100.083 231.377C100.083 231.377 99.3986 214.479 99.6906 214.196C99.9827 213.913 101.717 202.51 101.717 202.51C101.717 202.51 102.63 200.392 103.844 197.69C104.187 196.931 104.364 196.108 104.364 195.275C104.364 194.442 104.187 193.619 103.844 192.86C101.808 188.706 97.5731 190.642 96.6969 192.86C95.6682 195.113 94.5101 197.305 93.2284 199.424L88.3909 212.653C88.5735 215.647 86.8575 230.409 86.8575 230.409L85.1142 229.624L82.3121 220.951L84.4479 212.068C84.4479 212.068 89.112 206.956 88.2996 203.943C87.4873 200.931 83.5716 201.825 83.5716 201.825L75.6673 211.274H73.3398L67.8634 218.231C65.3774 225.692 64.933 233.683 66.5764 241.374L67.836 247.244V285.194C67.836 285.194 64.0846 291.274 64.0846 291.85C64.0846 292.114 60.5343 298.556 58.3711 304.536C67.7967 310.699 77.9716 315.904 90.1239 321C93.5831 311.259 99.4807 297.948 101.717 295.519C106.153 290.69 114.842 281.424 114.842 281.424C114.842 281.424 124.709 265.566 125.868 260.289C126.781 255.962 129.136 248.111 129.939 245.418C130.125 244.806 130.2 244.166 130.158 243.528C130.094 242.104 129.957 239.338 129.957 236.9C129.957 233.376 132.011 229.898 131.637 228.099Z" fill="white"/>
<path d="M58.3711 304.536C61.1152 298.263 64.9654 289.514 64.9654 289.249C64.9654 288.674 68.7168 282.594 68.7168 282.594V244.652L67.4572 238.819C65.815 231.148 66.2498 223.177 68.7168 215.731L74.1933 208.774H76.5207L84.4251 199.325C84.4251 199.325 88.3864 198.412 89.1531 201.443C89.9198 204.474 85.3013 209.55 85.3013 209.55L83.1655 218.433L85.9676 227.106L87.7109 227.891C87.7109 227.891 89.4269 213.129 89.2444 210.134L94.0819 196.906C95.3635 194.787 96.5216 192.595 97.5503 190.342C98.463 188.124 102.662 186.188 104.697 190.342C105.04 191.101 105.217 191.924 105.217 192.757C105.217 193.59 105.04 194.413 104.697 195.171C103.529 197.91 102.57 199.992 102.57 199.992C102.57 199.992 100.836 211.385 100.544 211.677C100.252 211.969 100.937 228.859 100.937 228.859L102.379 229.635L104.122 213.704L108.357 198.933C108.357 198.933 108.649 191.693 113.669 192.953C114.457 192.98 115.219 193.244 115.855 193.71C116.492 194.175 116.973 194.821 117.238 195.564C118.397 198.257 115.787 215.439 115.787 215.439L115.696 233.396L116.608 247.327L119.703 238.061C119.703 238.061 120.862 224.54 129.487 224.038C129.487 224.038 132.052 223.774 132.444 225.581C132.837 227.389 130.765 230.858 130.765 234.336C130.765 236.774 130.902 239.54 130.966 240.964C131.007 241.602 130.933 242.242 130.747 242.854C129.943 245.547 127.634 253.398 126.676 257.726C125.517 263.002 115.65 278.86 115.65 278.86C115.65 278.86 106.961 288.126 102.525 292.956C100.289 295.384 93.5832 311.259 90.1239 321" stroke="#263238" stroke-miterlimit="10"/>
<path d="M87.5826 229.288C87.825 230.195 87.8324 231.148 87.6041 232.059C87.3757 232.969 86.9191 233.807 86.2773 234.491" fill="white"/>
<path d="M87.5826 229.288C87.825 230.195 87.8324 231.148 87.6041 232.059C87.3757 232.969 86.9191 233.807 86.2773 234.491" stroke="#263238" stroke-miterlimit="10"/>
<path d="M72.8574 242.051C74.1079 240.106 75.3309 237.44 74.9932 235.158C74.3361 230.675 72.255 225.517 73.2134 221.08C73.7975 218.25 74.3908 215.411 74.975 212.581" fill="white"/>
<path d="M72.8574 242.051C74.1079 240.106 75.3309 237.44 74.9932 235.158C74.3361 230.675 72.255 225.517 73.2134 221.08C73.7975 218.25 74.3908 215.411 74.975 212.581" stroke="#263238" stroke-miterlimit="10"/>
<path d="M109.252 199.709C110.748 199.314 112.32 199.314 113.816 199.709C113.816 199.289 113.816 198.869 113.816 198.44" stroke="#263238" stroke-miterlimit="10"/>
<path d="M97.291 194.003C97.7309 194.306 98.2456 194.482 98.779 194.513C99.3123 194.543 99.8437 194.426 100.315 194.174C100.786 193.922 101.179 193.546 101.451 193.086C101.722 192.626 101.862 192.1 101.855 191.565" stroke="#263238" stroke-miterlimit="10"/>
<path d="M130.256 225.7C128.994 226.025 127.885 226.78 127.12 227.835C126.355 228.89 125.983 230.178 126.066 231.479L128.302 232.145" stroke="#263238" stroke-miterlimit="10"/>
<path d="M100.879 226.814C100.979 228.347 100.788 232.008 100.879 233.533V226.814Z" fill="white"/>
<path d="M100.879 226.814C100.979 228.347 100.788 232.008 100.879 233.533" stroke="#263238" stroke-miterlimit="10"/>
<path d="M102.561 228.932C102.378 231.445 102.193 233.956 102.004 236.463C102.004 236.144 102.004 235.824 102.004 235.505" fill="white"/>
<path d="M102.561 228.932C102.378 231.445 102.193 233.956 102.004 236.463C102.004 236.144 102.004 235.824 102.004 235.505" stroke="#263238" stroke-miterlimit="10"/>
<path d="M116.46 250.093C117.122 252.868 116.819 255.785 115.602 258.365L116.46 250.093Z" fill="white"/>
<path d="M116.46 250.093C117.122 252.868 116.819 255.785 115.602 258.365" stroke="#263238" stroke-miterlimit="10"/>
<path d="M93.3529 236.938C91.3631 239.12 91.6552 244.351 93.0608 247.236" stroke="#263238" stroke-miterlimit="10"/>
<path d="M108.056 240.535C108.068 242.988 107.203 245.364 105.619 247.236" stroke="#263238" stroke-miterlimit="10"/>
<path d="M78.8574 237.979C78.5267 240.203 79.0096 242.472 80.2174 244.369" stroke="#263238" stroke-miterlimit="10"/>
<path d="M70.3868 244.798C70.2995 246.535 70.7942 248.25 71.7924 249.673" stroke="#263238" stroke-miterlimit="10"/>
<path d="M81.9961 202.703C82.5203 202.464 83.1037 202.386 83.6723 202.479C84.241 202.571 84.7694 202.83 85.1907 203.224L86.3407 201.726" stroke="#263238" stroke-miterlimit="10"/>
<path d="M91.3633 209.413C92.133 208.952 93.0422 208.78 93.9273 208.929C94.8124 209.078 95.6154 209.538 96.1917 210.226" stroke="#263238" stroke-miterlimit="10"/>
<path d="M105.982 213.978C106.803 213.612 107.694 213.432 108.591 213.451C109.489 213.47 110.372 213.687 111.176 214.087" stroke="#263238" stroke-miterlimit="10"/>
<path d="M73.4434 221.637C73.9292 220.825 74.6384 220.169 75.4863 219.748C76.3343 219.327 77.2853 219.159 78.2261 219.264" stroke="#263238" stroke-miterlimit="10"/>
<path d="M67.3184 230.365C67.3478 229.774 67.5784 229.211 67.9719 228.769C68.3654 228.328 68.8981 228.034 69.4816 227.937" stroke="#263238" stroke-miterlimit="10"/>
<path d="M307.225 11.8821L1 13.3246L5.6276 6.3863C6.72008 4.7357 8.20311 3.38043 9.94503 2.44081C11.687 1.50118 13.6339 1.00627 15.613 1H292.685C294.478 0.998712 296.249 1.39996 297.866 2.17417C299.484 2.94838 300.907 4.07581 302.031 5.47337L307.225 11.8821Z" fill="white" stroke="#263238" stroke-linecap="round" stroke-linejoin="round"/>
<path d="M159.435 57.7935H142.658C125.444 57.7935 111.488 71.7518 111.488 88.9701V105.75C111.488 122.968 125.444 136.926 142.658 136.926H159.435C176.649 136.926 190.605 122.968 190.605 105.75V88.9701C190.605 71.7518 176.649 57.7935 159.435 57.7935Z" fill="#757575" stroke="#263238" stroke-linecap="round" stroke-linejoin="round"/>
<path d="M125.863 104.052V115.299C125.863 116.994 126.536 118.619 127.735 119.818C128.933 121.016 130.558 121.69 132.252 121.69H170.834C172.521 121.69 174.139 121.023 175.336 119.834C176.533 118.645 177.211 117.032 177.223 115.345C177.278 110.278 177.543 104.052 177.543 104.052H125.863Z" fill="#999999" stroke="#263238" stroke-linecap="round" stroke-linejoin="round"/>
<path d="M267.064 107.804H41.4343C40.2738 107.807 39.1395 107.46 38.1789 106.808C37.2184 106.157 36.4763 105.231 36.0491 104.152L1.2463 14.7853C1.03513 14.245 0.959141 13.6613 1.02493 13.085C1.09073 12.5087 1.29631 11.9571 1.62381 11.4784C1.9513 10.9996 2.39078 10.6082 2.90402 10.3381C3.41726 10.0679 3.98872 9.92733 4.56867 9.92847H303.948C304.524 9.93471 305.09 10.0807 305.597 10.3539C306.104 10.6272 306.538 11.0195 306.86 11.4971C307.182 11.9748 307.384 12.5235 307.447 13.0963C307.511 13.669 307.434 14.2486 307.224 14.7853L272.422 104.125C272 105.205 271.264 106.133 270.309 106.789C269.353 107.445 268.223 107.799 267.064 107.804Z" fill="white" stroke="#263238" stroke-linecap="round" stroke-linejoin="round"/>
<path d="M268.743 100.017H39.2156L7.63477 15.5887H300.177L268.743 100.017Z" fill="white"/>
<path d="M177.276 107.685H126.107V111.191H177.276V107.685Z" fill="#263238"/>
<path d="M235.219 96.4013H73.1347C72.222 96.4013 71.4005 95.9996 71.2362 95.4884L48.1804 22.2256C47.9248 21.404 48.6459 20.7375 49.7959 20.7375H258.558C259.708 20.7375 260.429 21.404 260.164 22.2256L237.118 95.4884C236.944 95.9905 236.105 96.4013 235.219 96.4013Z" fill="#38BFF2"/>
<path d="M233.595 94.7307H74.7776C74.4798 94.7327 74.1895 94.6375 73.9507 94.4596C73.7119 94.2817 73.5375 94.0307 73.4542 93.7447L54.6882 32.1584C54.6184 31.9485 54.5997 31.7249 54.6337 31.5064C54.6678 31.2878 54.7536 31.0805 54.884 30.9019C55.0144 30.7232 55.1856 30.5783 55.3834 30.4793C55.5811 30.3802 55.7997 30.3299 56.0208 30.3325H252.333C252.554 30.3299 252.773 30.3802 252.971 30.4793C253.168 30.5783 253.34 30.7232 253.47 30.9019C253.6 31.0805 253.686 31.2878 253.72 31.5064C253.754 31.7249 253.736 31.9485 253.666 32.1584L234.918 93.7447C234.833 94.0299 234.659 94.28 234.42 94.4577C234.182 94.6354 233.892 94.7312 233.595 94.7307Z" fill="#263238"/>
<path d="M96.8304 46.3454H66.3722C65.6147 46.3454 65.1218 46.7471 65.2678 47.2583C65.4151 47.5525 65.6464 47.7963 65.9324 47.9588C66.2184 48.1213 66.5462 48.1953 66.8742 48.1713H97.159C97.9074 48.1713 98.4368 47.7696 98.3547 47.2583C98.2725 46.7471 97.5788 46.3454 96.8304 46.3454Z" fill="white"/>
<path d="M97.8396 51.9051H71.9361C71.1967 51.9051 70.713 52.2977 70.8408 52.818C70.9803 53.1085 71.2034 53.3507 71.4815 53.5133C71.7596 53.676 72.08 53.7518 72.4016 53.731H98.2047C98.9441 53.731 99.4643 53.3384 99.3822 52.818C99.3 52.2977 98.579 51.9051 97.8396 51.9051Z" fill="white"/>
<path opacity="0.5" d="M98.8279 57.2732H69.4376C68.7074 57.2732 68.2328 57.6475 68.3606 58.1131C68.5074 58.3919 68.7325 58.6216 69.0082 58.7741C69.2839 58.9266 69.5981 58.9951 69.9123 58.9712H99.12C99.841 58.9712 100.361 58.5969 100.279 58.1314C100.197 57.6658 99.5581 57.2732 98.8279 57.2732Z" fill="white"/>
<path d="M99.7767 62.4586H82.5168C81.8048 62.4586 81.312 62.8238 81.4215 63.2711C81.531 63.7185 82.1973 64.0836 82.9093 64.0836H100.078C100.79 64.0836 101.301 63.7185 101.219 63.2711C101.137 62.8238 100.498 62.4586 99.7767 62.4586Z" fill="white"/>
<path d="M100.696 67.4614H72.2918C71.5981 67.4614 71.1235 67.8175 71.2513 68.2465C71.3791 68.6756 72.0362 69.0317 72.739 69.0317H101.034C101.728 69.0317 102.23 68.6848 102.157 68.2465C102.084 67.8083 101.399 67.4614 100.696 67.4614Z" fill="white"/>
<path d="M101.584 72.3092H78.6555C77.9618 72.3092 77.4963 72.647 77.6058 73.0669C77.7153 73.4869 78.3634 73.8247 79.0479 73.8247H101.866C102.551 73.8247 103.044 73.4869 102.971 73.0669C102.898 72.647 102.277 72.3092 101.584 72.3092Z" fill="white"/>
<path d="M102.443 76.9924H79.8894C79.2049 76.9924 78.7485 77.321 78.858 77.7227C78.9675 78.1244 79.5973 78.4622 80.2728 78.4622H102.717C103.392 78.4622 103.876 78.1335 103.803 77.7227C103.73 77.3119 103.128 76.9924 102.443 76.9924Z" fill="white"/>
<path d="M103.273 81.5206H78.629C77.9627 81.5206 77.5063 81.8401 77.6158 82.2327C77.7254 82.6252 78.346 82.9447 79.0123 82.9447H103.501C104.167 82.9447 104.651 82.6252 104.578 82.2327C104.505 81.8401 103.948 81.5206 103.273 81.5206Z" fill="white"/>
<path opacity="0.5" d="M104.085 85.9118H88.1667C87.5095 85.9118 87.0532 86.2222 87.1444 86.6056C87.2357 86.9891 87.8472 87.2903 88.4953 87.2903H104.313C104.97 87.2903 105.445 86.9799 105.381 86.6056C105.317 86.2313 104.742 85.9118 104.085 85.9118Z" fill="white"/>
<path opacity="0.5" d="M95.7712 40.5756H73.0713C72.3046 40.5756 71.7935 40.9956 71.9304 41.4886C72.0773 41.785 72.3099 42.0306 72.5979 42.1933C72.886 42.3561 73.2162 42.4286 73.5459 42.4015H96.1089C96.8756 42.4015 97.4141 41.9815 97.3228 41.4886C97.1958 41.1905 96.9765 40.9409 96.6973 40.7766C96.418 40.6123 96.0934 40.5419 95.7712 40.5756Z" fill="white"/>
<path d="M94.6649 34.5959H63.0658C62.29 34.5959 61.7789 35.025 61.934 35.5636C62.0868 35.873 62.3279 36.1301 62.6269 36.3024C62.9259 36.4747 63.2692 36.5543 63.6135 36.5313H95.03C95.7967 36.5313 96.3535 36.1022 96.2531 35.5636C96.1527 35.025 95.4681 34.5959 94.6649 34.5959Z" fill="white"/>
<path d="M104.862 90.166H78.6759C78.0278 90.166 77.5897 90.4673 77.6901 90.8325C77.7905 91.1976 78.402 91.4989 79.0501 91.4989H105.109C105.748 91.4989 106.222 91.1976 106.158 90.8325C106.095 90.4673 105.51 90.166 104.862 90.166Z" fill="white"/>
<path opacity="0.5" d="M107.527 48.372H113.433L113.141 46.1171H107.189L107.527 48.372Z" fill="white"/>
<path opacity="0.5" d="M108.348 53.8587H114.153L113.87 51.6859H108.02L108.348 53.8587Z" fill="white"/>
<path opacity="0.5" d="M109.144 59.1629H114.849L114.575 57.0632H108.834L109.144 59.1629Z" fill="white"/>
<path opacity="0.5" d="M109.916 64.2845H115.52L115.246 62.2487H109.605L109.916 64.2845Z" fill="white"/>
<path opacity="0.5" d="M110.657 69.2233H116.17L115.906 67.2697H110.365L110.657 69.2233Z" fill="white"/>
<path opacity="0.5" d="M111.378 74.0071H116.791L116.544 72.1174H111.086L111.378 74.0071Z" fill="white"/>
<path opacity="0.5" d="M112.069 78.6448H117.399L117.162 76.8007H111.795L112.069 78.6448Z" fill="white"/>
<path opacity="0.5" d="M112.737 83.1181H117.986L117.757 81.347H112.473L112.737 83.1181Z" fill="white"/>
<path opacity="0.5" d="M113.392 87.4638H118.558L118.33 85.7383H113.137L113.392 87.4638Z" fill="white"/>
<path opacity="0.5" d="M106.667 42.6844H112.682L112.381 40.3382H106.32L106.667 42.6844Z" fill="white"/>
<path opacity="0.5" d="M105.781 36.7778H111.906L111.595 34.3494H105.416L105.781 36.7778Z" fill="white"/>
<path opacity="0.5" d="M114.024 91.6632H119.108L118.889 89.9926H113.777L114.024 91.6632Z" fill="white"/>
<path d="M145.158 82.2327C145.158 81.8401 145.669 81.5206 146.336 81.5206H233.794C234.461 81.5206 234.917 81.8401 234.798 82.2327C234.655 82.4718 234.447 82.6656 234.198 82.7916C233.95 82.9176 233.67 82.9707 233.393 82.9447H146.381C145.715 82.9447 145.167 82.6252 145.158 82.2327Z" fill="white"/>
<path d="M234.679 78.4622H186.249C185.574 78.4622 185.063 78.1335 185.108 77.7227C185.154 77.3119 185.738 76.9924 186.423 76.9924H235.117C235.793 76.9924 236.249 77.321 236.131 77.7227C235.987 77.9737 235.773 78.1774 235.515 78.3087C235.257 78.4401 234.967 78.4934 234.679 78.4622Z" fill="white"/>
<path opacity="0.5" d="M174.757 78.4622H159.696C159.021 78.4622 158.473 78.1335 158.483 77.7227C158.492 77.3119 159.039 76.9924 159.724 76.9924H174.875C175.551 76.9924 176.08 77.321 176.044 77.7227C176.007 78.1244 175.432 78.4622 174.757 78.4622Z" fill="white"/>
<path d="M206.193 73.8247H137.884C137.199 73.8247 136.624 73.4869 136.597 73.0669C136.569 72.647 137.108 72.3092 137.802 72.3092H206.476C207.161 72.3092 207.663 72.647 207.581 73.0669C207.498 73.4869 206.887 73.8247 206.193 73.8247Z" fill="white"/>
<path opacity="0.5" d="M123.609 72.3092H128.474C129.158 72.3092 129.751 72.647 129.788 73.0669C129.824 73.4869 129.295 73.8247 128.61 73.8247H123.764C123.079 73.8247 122.486 73.4869 122.44 73.0669C122.395 72.647 122.915 72.3092 123.609 72.3092Z" fill="white"/>
<path d="M216.077 68.2465C215.986 68.6848 215.347 69.0317 214.644 69.0317H150.278C149.575 69.0317 149.009 68.6848 149 68.2465C148.991 67.8083 149.557 67.4614 150.251 67.4614H214.973C215.676 67.4614 216.169 67.8175 216.077 68.2465Z" fill="white"/>
<path d="M123.089 67.4614H141.344C142.046 67.4614 142.631 67.8175 142.649 68.2465C142.667 68.6756 142.11 69.0317 141.417 69.0317H123.253C122.559 69.0317 121.957 68.6848 121.902 68.2465C121.848 67.8083 122.386 67.4614 123.089 67.4614Z" fill="white"/>
<path d="M122.548 62.4586H192.774C193.486 62.4586 194.016 62.8238 193.952 63.2711C193.888 63.7185 193.267 64.0836 192.555 64.0836H122.721C122.019 64.0836 121.398 63.7185 121.352 63.2711C121.307 62.8238 121.836 62.4586 122.548 62.4586Z" fill="white"/>
<path d="M168.142 58.9711C167.421 58.9711 166.855 58.5968 166.873 58.1312C166.892 57.6656 167.494 57.2913 168.224 57.2913H205.272C206.003 57.2913 206.523 57.6656 206.441 58.1312C206.359 58.5968 205.711 58.9711 204.99 58.9711H168.142Z" fill="white"/>
<path d="M122.004 57.2732H154.069C154.799 57.2732 155.383 57.6475 155.383 58.1131C155.383 58.5787 154.799 58.9712 154.069 58.9712H122.187C121.457 58.9712 120.836 58.5969 120.781 58.1314C120.726 57.6658 121.274 57.2732 122.004 57.2732Z" fill="white"/>
<path d="M241.797 53.6488H153.526C152.796 53.6488 152.193 53.2562 152.193 52.7359C152.193 52.2155 152.787 51.8229 153.526 51.8229H242.29C243.029 51.8229 243.513 52.2155 243.376 52.7359C243.232 53.0263 243.005 53.2677 242.724 53.43C242.443 53.5924 242.121 53.6685 241.797 53.6488Z" fill="white"/>
<path d="M243.333 48.1439H165.75C165.001 48.1439 164.408 47.7422 164.426 47.2309C164.444 46.7197 165.065 46.318 165.823 46.318H243.935C244.684 46.318 245.176 46.7197 245.03 47.2309C244.875 47.539 244.629 47.7919 244.325 47.9552C244.022 48.1186 243.675 48.1844 243.333 48.1439Z" fill="white"/>
<path opacity="0.5" d="M245.009 42.4471H228.726C227.959 42.4471 227.439 42.0271 227.558 41.5342C227.7 41.236 227.93 40.9886 228.218 40.8253C228.505 40.6621 228.835 40.5909 229.164 40.6212H245.521C246.287 40.6212 246.789 41.0412 246.634 41.5342C246.48 41.8267 246.245 42.0685 245.956 42.2304C245.668 42.3924 245.339 42.4676 245.009 42.4471Z" fill="white"/>
<path d="M217.365 42.4471H157.645C156.887 42.4471 156.266 42.0271 156.275 41.5341C156.285 41.0412 156.896 40.6212 157.663 40.6212H217.776C218.543 40.6212 219.081 41.0412 218.972 41.5341C218.835 41.8367 218.606 42.088 218.317 42.252C218.028 42.416 217.695 42.4843 217.365 42.4471Z" fill="white"/>
<path d="M125.05 85.9118H180.207C180.864 85.9118 181.366 86.2222 181.32 86.6056C181.275 86.9891 180.727 87.2903 180.07 87.2903H125.205C124.548 87.2903 123.982 86.9799 123.945 86.6056C123.909 86.2313 124.393 85.9118 125.05 85.9118Z" fill="white"/>
<path d="M125.505 90.166H210.244C210.883 90.166 211.349 90.4673 211.267 90.8325C211.184 91.1976 210.609 91.4989 209.961 91.4989H125.651C125.003 91.4989 124.447 91.1976 124.41 90.8325C124.374 90.4673 124.857 90.166 125.505 90.166Z" fill="white"/>
<path d="M214.399 36.5313H171.227C170.451 36.5313 169.849 36.1022 169.876 35.5636C169.903 35.025 170.551 34.5959 171.336 34.5959H214.764C215.549 34.5959 216.097 35.025 215.997 35.5636C215.868 35.8738 215.644 36.1349 215.356 36.3089C215.069 36.483 214.734 36.5609 214.399 36.5313Z" fill="white"/>
<path opacity="0.5" d="M159.03 36.5313H119.782C119.006 36.5313 118.33 36.1022 118.266 35.5636C118.203 35.025 118.787 34.5959 119.572 34.5959H159.048C159.824 34.5959 160.453 35.025 160.444 35.5636C160.435 36.1022 159.805 36.5313 159.03 36.5313Z" fill="white"/>
<path opacity="0.5" d="M192.437 85.9118C193.094 85.9118 193.587 86.2222 193.532 86.6056C193.478 86.9891 192.903 87.2903 192.245 87.2903H187.983C187.335 87.2903 186.842 86.9799 186.888 86.6056C186.933 86.2313 187.499 85.9118 188.156 85.9118H192.437Z" fill="white"/>
<path opacity="0.5" d="M140.13 82.2327C140.13 82.6252 139.628 82.9447 138.962 82.9447H133.157C132.491 82.9447 131.925 82.6252 131.898 82.2327C131.87 81.8401 132.381 81.5206 133.048 81.5206H138.88C139.555 81.5206 140.112 81.8401 140.13 82.2327Z" fill="white"/>
<path opacity="0.5" d="M210.179 63.2711C210.097 63.7185 209.458 64.0836 208.746 64.0836H201.956C201.244 64.0836 200.733 63.7185 200.796 63.2711C200.86 62.8238 201.508 62.4586 202.22 62.4586H209.048C209.76 62.4586 210.271 62.8238 210.179 63.2711Z" fill="white"/>
<path opacity="0.5" d="M231.369 67.4614C232.072 67.4614 232.546 67.8174 232.428 68.2465C232.287 68.5075 232.073 68.7212 231.811 68.8608C231.55 69.0005 231.253 69.0599 230.958 69.0316H225.545C224.843 69.0316 224.368 68.6847 224.468 68.2465C224.607 67.9855 224.819 67.7714 225.079 67.6316C225.339 67.4918 225.635 67.4326 225.929 67.4614H231.369Z" fill="white"/>
<path opacity="0.5" d="M142.839 53.6488C142.109 53.6488 141.497 53.2562 141.47 52.7359C141.442 52.2155 142.036 51.8229 142.775 51.8229H148.534C149.274 51.8229 149.876 52.2155 149.885 52.7359C149.894 53.2562 149.301 53.6488 148.571 53.6488H142.839Z" fill="white"/>
<path d="M64.4349 25.5396C64.563 25.8449 64.611 26.1778 64.5745 26.5069C64.5379 26.8359 64.418 27.1502 64.2261 27.4199C64.0341 27.6896 63.7765 27.9058 63.4776 28.0481C63.1787 28.1904 62.8484 28.2539 62.5181 28.2328C61.7206 28.1863 60.9544 27.9062 60.315 27.4273C59.6755 26.9484 59.191 26.2919 58.9219 25.5396C58.787 25.2336 58.7329 24.8981 58.7648 24.5651C58.7966 24.2322 58.9134 23.913 59.1039 23.6382C59.2945 23.3633 59.5523 23.142 59.8529 22.9954C60.1534 22.8488 60.4866 22.7818 60.8204 22.8008C61.6279 22.8425 62.4043 23.1259 63.0488 23.6143C63.6933 24.1026 64.1762 24.7734 64.4349 25.5396Z" fill="white"/>
<path d="M71.829 25.5853C71.9437 25.8979 71.9786 26.2342 71.9304 26.5637C71.8822 26.8933 71.7524 27.2055 71.5529 27.4721C71.3535 27.7388 71.0906 27.9514 70.7881 28.0906C70.4856 28.2298 70.1532 28.2912 69.8209 28.2693C69.0336 28.23 68.2767 27.9523 67.6508 27.473C67.0248 26.9936 66.5593 26.3353 66.316 25.5853C66.1953 25.2712 66.155 24.9319 66.1988 24.5983C66.2427 24.2647 66.3692 23.9474 66.567 23.6752C66.7647 23.403 67.0274 23.1846 67.3311 23.0398C67.6348 22.8951 67.9699 22.8286 68.3058 22.8465C69.1039 22.8834 69.8709 23.1665 70.5017 23.6569C71.1326 24.1472 71.5962 24.8208 71.829 25.5853Z" fill="white"/>
<path d="M79.3405 25.5396C79.4428 25.8624 79.4645 26.2054 79.4036 26.5385C79.3428 26.8716 79.2012 27.1847 78.9914 27.4504C78.7815 27.7162 78.5098 27.9264 78.1999 28.0628C77.89 28.1992 77.5514 28.2575 77.2138 28.2328C76.4336 28.1972 75.6842 27.9184 75.0704 27.4355C74.4566 26.9525 74.0092 26.2896 73.791 25.5396C73.6835 25.218 73.6562 24.8751 73.7114 24.5405C73.7666 24.206 73.9027 23.89 74.1078 23.62C74.3129 23.3501 74.5809 23.1343 74.8883 22.9916C75.1958 22.8488 75.5335 22.7833 75.8721 22.8008C76.6676 22.8243 77.4344 23.1033 78.0591 23.5965C78.6837 24.0898 79.133 24.7711 79.3405 25.5396Z" fill="white"/>
<path d="M72.913 136.662H53.6633C52.4529 136.662 51.2921 137.143 50.4363 137.999C49.5804 138.855 49.0996 140.016 49.0996 141.226V150.602C49.0996 151.813 49.5804 152.974 50.4363 153.83C51.2921 154.686 52.4529 155.167 53.6633 155.167H58.6925L62.5078 163.812L67.8838 155.167H72.913C74.1234 155.167 75.2842 154.686 76.14 153.83C76.9959 152.974 77.4767 151.813 77.4767 150.602V141.19C77.4671 139.986 76.982 138.834 76.1272 137.986C75.2724 137.138 74.1171 136.662 72.913 136.662Z" fill="white" stroke="#263238" stroke-linecap="round" stroke-linejoin="round"/>
<path d="M60.6133 142.048C60.6133 141.806 60.7094 141.574 60.8806 141.402C61.0518 141.231 61.2839 141.135 61.526 141.135C61.7574 141.134 61.9804 141.222 62.1499 141.379C62.3193 141.537 62.4226 141.753 62.4388 141.984C62.4388 142.226 62.3426 142.458 62.1714 142.63C62.0003 142.801 61.7681 142.897 61.526 142.897C61.2946 142.898 61.0716 142.81 60.9022 142.653C60.7327 142.495 60.6295 142.279 60.6133 142.048ZM60.8141 143.956H62.2836V150.219H60.7867L60.8141 143.956Z" fill="#263238"/>
<path d="M65.8153 143.609V143.983H67.5404V145.161H65.87V150.2H64.437V145.161H63.3691V143.983H64.437V143.582C64.4137 143.285 64.4561 142.987 64.5613 142.709C64.6664 142.431 64.8318 142.18 65.0455 141.973C65.2592 141.766 65.5159 141.609 65.7973 141.513C66.0787 141.417 66.3778 141.385 66.6733 141.418C67.1413 141.394 67.6056 141.512 68.0059 141.756L67.5951 142.861C67.356 142.696 67.073 142.607 66.7828 142.605C66.1347 142.605 65.8153 142.961 65.8153 143.609Z" fill="#263238"/>
<path d="M131.533 137.976H112.275C111.064 137.976 109.903 138.457 109.048 139.313C108.192 140.169 107.711 141.33 107.711 142.541V151.908C107.711 153.118 108.192 154.279 109.048 155.135C109.903 155.991 111.064 156.472 112.275 156.472H117.313L121.119 165.118L126.495 156.472H131.533C132.744 156.472 133.905 155.991 134.761 155.135C135.616 154.279 136.097 153.118 136.097 151.908V142.504C136.088 141.3 135.602 140.149 134.748 139.3C133.893 138.452 132.738 137.976 131.533 137.976Z" fill="white" stroke="#263238" stroke-linecap="round" stroke-linejoin="round"/>
<path d="M116.325 148.849H111.405C111.502 149.306 111.762 149.711 112.137 149.989C112.512 150.266 112.976 150.397 113.441 150.356C113.756 150.367 114.07 150.312 114.362 150.194C114.655 150.076 114.919 149.898 115.138 149.671L115.923 150.584C115.449 151.055 114.851 151.381 114.198 151.525C113.545 151.668 112.864 151.621 112.237 151.391C111.609 151.161 111.06 150.757 110.654 150.226C110.248 149.695 110.002 149.059 109.945 148.393C109.932 147.966 110.007 147.541 110.165 147.145C110.323 146.749 110.561 146.389 110.864 146.089C111.167 145.788 111.529 145.553 111.927 145.398C112.324 145.243 112.749 145.172 113.176 145.188C113.603 145.171 114.029 145.243 114.426 145.401C114.823 145.559 115.182 145.798 115.481 146.104C115.779 146.409 116.011 146.774 116.159 147.175C116.308 147.575 116.37 148.003 116.343 148.429C116.343 148.53 116.334 148.712 116.325 148.849ZM111.396 147.882H114.947C114.903 147.448 114.695 147.048 114.366 146.763C114.037 146.478 113.611 146.329 113.176 146.348C112.74 146.331 112.315 146.48 111.985 146.765C111.654 147.049 111.444 147.448 111.396 147.882Z" fill="#263238"/>
<path d="M117.747 142.815H119.198V151.515H117.729L117.747 142.815Z" fill="#263238"/>
<path d="M120.426 150.894L120.983 149.781C121.639 150.183 122.394 150.398 123.164 150.401C124.077 150.401 124.478 150.146 124.478 149.707C124.478 148.512 120.608 149.634 120.608 147.142C120.608 145.955 121.676 145.179 123.347 145.179C124.161 145.166 124.965 145.351 125.692 145.718L125.126 146.832C124.573 146.51 123.941 146.349 123.301 146.366C122.388 146.366 121.987 146.658 121.987 147.069C121.987 148.338 125.857 147.206 125.857 149.662C125.857 150.83 124.78 151.597 123.018 151.597C122.106 151.603 121.21 151.36 120.426 150.894Z" fill="#263238"/>
<path d="M133.038 148.849H128.118C128.214 149.306 128.475 149.711 128.85 149.989C129.225 150.266 129.689 150.397 130.153 150.356C130.469 150.367 130.783 150.312 131.075 150.194C131.368 150.076 131.632 149.898 131.851 149.671L132.636 150.584C132.162 151.055 131.563 151.381 130.91 151.525C130.258 151.668 129.577 151.621 128.95 151.391C128.322 151.161 127.773 150.757 127.367 150.226C126.961 149.695 126.715 149.059 126.658 148.393C126.645 147.966 126.72 147.541 126.878 147.145C127.036 146.749 127.274 146.389 127.577 146.089C127.88 145.788 128.242 145.553 128.639 145.398C129.037 145.243 129.462 145.172 129.889 145.188C130.316 145.171 130.741 145.243 131.138 145.401C131.536 145.559 131.895 145.798 132.194 146.104C132.492 146.409 132.723 146.774 132.872 147.175C133.02 147.575 133.083 148.003 133.056 148.429C133.056 148.53 133.047 148.712 133.038 148.849ZM128.109 147.882H131.659C131.616 147.448 131.408 147.048 131.079 146.763C130.75 146.478 130.324 146.329 129.889 146.348C129.453 146.331 129.028 146.48 128.697 146.765C128.367 147.049 128.157 147.448 128.109 147.882Z" fill="#263238"/>
<path d="M188.358 137.419H169.099C167.888 137.419 166.728 137.9 165.872 138.756C165.016 139.612 164.535 140.773 164.535 141.984V151.36C164.535 152.57 165.016 153.732 165.872 154.588C166.728 155.444 167.888 155.925 169.099 155.925H174.137L177.943 164.57L183.319 155.925H188.358C189.568 155.925 190.729 155.444 191.585 154.588C192.441 153.732 192.921 152.57 192.921 151.36V141.948C192.912 140.743 192.427 139.592 191.572 138.743C190.717 137.895 189.562 137.419 188.358 137.419Z" fill="white" stroke="#263238" stroke-linecap="round" stroke-linejoin="round"/>
<path d="M173.515 144.367V144.787H175.24V145.964H173.561V151.004H172.137V145.964H171.105V144.787H172.137V144.385C172.113 144.089 172.156 143.791 172.261 143.513C172.366 143.234 172.532 142.983 172.745 142.776C172.959 142.57 173.216 142.413 173.497 142.317C173.779 142.221 174.078 142.188 174.373 142.221C174.838 142.199 175.299 142.316 175.697 142.559L175.286 143.664C175.052 143.495 174.771 143.403 174.483 143.399C173.835 143.353 173.515 143.7 173.515 144.367Z" fill="#263238"/>
<path d="M175.618 147.827C175.592 147.161 175.766 146.502 176.118 145.936C176.47 145.37 176.983 144.922 177.591 144.649C178.199 144.377 178.875 144.293 179.532 144.408C180.188 144.523 180.795 144.831 181.275 145.294C181.755 145.757 182.085 146.352 182.224 147.004C182.362 147.656 182.302 148.335 182.052 148.953C181.802 149.571 181.373 150.1 180.82 150.472C180.267 150.844 179.616 151.042 178.949 151.04C178.515 151.066 178.081 151.001 177.673 150.85C177.265 150.699 176.893 150.465 176.58 150.163C176.267 149.861 176.02 149.498 175.854 149.096C175.689 148.694 175.608 148.262 175.618 147.827ZM180.811 147.827C180.786 147.472 180.658 147.133 180.443 146.85C180.228 146.567 179.935 146.353 179.6 146.234C179.265 146.115 178.903 146.097 178.558 146.181C178.212 146.265 177.899 146.448 177.656 146.708C177.414 146.968 177.252 147.293 177.192 147.643C177.131 147.993 177.174 148.353 177.315 148.68C177.456 149.006 177.689 149.284 177.986 149.479C178.283 149.675 178.63 149.78 178.986 149.78C179.237 149.781 179.485 149.73 179.715 149.63C179.945 149.531 180.153 149.385 180.324 149.201C180.495 149.018 180.627 148.801 180.711 148.565C180.795 148.328 180.829 148.077 180.811 147.827Z" fill="#263238"/>
<path d="M187.31 144.622V146.019C187.198 146.011 187.085 146.011 186.973 146.019C186.718 145.999 186.463 146.036 186.224 146.128C185.986 146.22 185.772 146.364 185.596 146.55C185.421 146.735 185.29 146.958 185.212 147.201C185.135 147.444 185.112 147.702 185.147 147.955V150.995H183.678V144.695H185.074V145.608C185.33 145.264 185.67 144.993 186.062 144.82C186.454 144.647 186.884 144.579 187.31 144.622Z" fill="#263238"/>
<path d="M244.368 136.662H225.081C223.871 136.662 222.71 137.143 221.854 137.999C220.998 138.855 220.518 140.016 220.518 141.226V150.602C220.518 151.813 220.998 152.974 221.854 153.83C222.71 154.686 223.871 155.167 225.081 155.167H230.12L233.926 163.812L239.302 155.167H244.34C245.551 155.167 246.711 154.686 247.567 153.83C248.423 152.974 248.904 151.813 248.904 150.602V141.19C248.894 139.99 248.413 138.843 247.564 137.995C246.715 137.148 245.567 136.669 244.368 136.662Z" fill="white" stroke="#263238" stroke-linecap="round" stroke-linejoin="round"/>
<path d="M232.232 143.627H237.636V144.787H232.232V143.627ZM232.232 146.467H237.636V147.644H232.232V146.467Z" fill="#263238"/>
<path d="M102.268 125.825H83.009C81.7986 125.825 80.6379 126.306 79.782 127.162C78.9261 128.018 78.4453 129.179 78.4453 130.39V139.757C78.4453 140.967 78.9261 142.128 79.782 142.984C80.6379 143.84 81.7986 144.321 83.009 144.321H88.0474L91.8535 152.967L97.2295 144.321H102.268C103.478 144.321 104.639 143.84 105.495 142.984C106.351 142.128 106.832 140.967 106.832 139.757V130.353C106.822 129.149 106.337 127.997 105.482 127.149C104.627 126.301 103.472 125.825 102.268 125.825Z" fill="white" stroke="#263238" stroke-linecap="round" stroke-linejoin="round"/>
<path d="M88.1133 129.714H90.9063V130.892H89.5737V139.519H90.9063V140.697H88.1133V129.714Z" fill="#263238"/>
<path d="M94.5566 140.697V139.519H95.8801V130.892H94.5566V129.714H97.2949V140.669L94.5566 140.697Z" fill="#263238"/>
<path d="M159.516 124.867H140.257C139.047 124.867 137.886 125.348 137.03 126.204C136.174 127.06 135.693 128.221 135.693 129.431V138.761C135.693 139.972 136.174 141.133 137.03 141.989C137.886 142.845 139.047 143.326 140.257 143.326H145.295L149.111 151.972L154.487 143.326H159.516C160.726 143.326 161.887 142.845 162.743 141.989C163.599 141.133 164.08 139.972 164.08 138.761V129.395C164.07 128.19 163.585 127.039 162.73 126.191C161.875 125.342 160.72 124.867 159.516 124.867Z" fill="white" stroke="#263238" stroke-linecap="round" stroke-linejoin="round"/>
<path d="M145.972 134.206C146.437 134.361 146.665 134.681 146.665 135.402V137.639C146.645 137.759 146.652 137.883 146.688 138C146.723 138.117 146.786 138.224 146.87 138.313C146.954 138.401 147.058 138.469 147.173 138.511C147.288 138.552 147.411 138.566 147.533 138.551H147.779V139.729H147.186C146.922 139.769 146.652 139.747 146.398 139.665C146.144 139.584 145.911 139.446 145.719 139.26C145.527 139.075 145.38 138.848 145.289 138.597C145.198 138.346 145.166 138.077 145.196 137.812V135.402C145.196 135.009 144.995 134.836 144.667 134.836H144.283V133.64H144.667C144.995 133.64 145.196 133.466 145.196 133.074V130.655C145.166 130.39 145.198 130.121 145.289 129.87C145.379 129.62 145.527 129.393 145.719 129.208C145.912 129.024 146.144 128.886 146.398 128.806C146.653 128.726 146.922 128.706 147.186 128.747H147.779V129.924H147.496C147.374 129.908 147.25 129.92 147.134 129.961C147.018 130.002 146.914 130.07 146.829 130.159C146.744 130.248 146.682 130.356 146.647 130.474C146.612 130.592 146.606 130.716 146.629 130.837V133.065C146.665 133.74 146.437 134.06 145.972 134.206Z" fill="#263238"/>
<path d="M154.916 133.612V134.808H154.515C154.195 134.808 153.995 134.982 153.995 135.374V137.785C154.022 138.05 153.989 138.319 153.897 138.57C153.806 138.821 153.657 139.048 153.465 139.233C153.272 139.418 153.039 139.556 152.784 139.638C152.53 139.719 152.26 139.741 151.996 139.702H151.402V138.524H151.649C151.773 138.545 151.901 138.535 152.021 138.497C152.141 138.458 152.25 138.391 152.34 138.302C152.429 138.213 152.495 138.104 152.534 137.983C152.573 137.863 152.582 137.736 152.562 137.611V135.374C152.562 134.653 152.771 134.334 153.237 134.178C152.771 134.032 152.562 133.713 152.562 132.983V130.755C152.584 130.63 152.576 130.502 152.538 130.38C152.501 130.259 152.434 130.149 152.344 130.059C152.255 129.97 152.144 129.903 152.023 129.865C151.902 129.827 151.774 129.819 151.649 129.842H151.402V128.719H151.996C152.259 128.678 152.529 128.699 152.784 128.779C153.039 128.859 153.271 128.997 153.465 129.181C153.658 129.365 153.806 129.592 153.898 129.842C153.99 130.093 154.023 130.362 153.995 130.627V133.046C153.995 133.439 154.195 133.612 154.515 133.612H154.916Z" fill="#263238"/>
<path d="M216.16 122.968H196.902C195.691 122.968 194.53 123.449 193.675 124.305C192.819 125.161 192.338 126.322 192.338 127.532V136.899C192.338 138.11 192.819 139.271 193.675 140.127C194.53 140.983 195.691 141.464 196.902 141.464H201.931L205.746 150.109L211.122 141.464H216.16C217.371 141.464 218.532 140.983 219.387 140.127C220.243 139.271 220.724 138.11 220.724 136.899V127.496C220.714 126.292 220.229 125.14 219.375 124.292C218.52 123.444 217.364 122.968 216.16 122.968Z" fill="white" stroke="#263238" stroke-linecap="round" stroke-linejoin="round"/>
<path d="M205.764 129.897C205.751 129.762 205.766 129.627 205.809 129.499C205.851 129.371 205.92 129.253 206.011 129.153C206.101 129.053 206.212 128.973 206.335 128.918C206.459 128.863 206.592 128.835 206.727 128.835C206.862 128.835 206.996 128.863 207.119 128.918C207.243 128.973 207.353 129.053 207.444 129.153C207.535 129.253 207.603 129.371 207.646 129.499C207.688 129.627 207.703 129.762 207.69 129.897C207.703 130.031 207.688 130.167 207.646 130.295C207.603 130.423 207.535 130.541 207.444 130.641C207.353 130.741 207.243 130.821 207.119 130.875C206.996 130.93 206.862 130.958 206.727 130.958C206.592 130.958 206.459 130.93 206.335 130.875C206.212 130.821 206.101 130.741 206.011 130.641C205.92 130.541 205.851 130.423 205.809 130.295C205.766 130.167 205.751 130.031 205.764 129.897ZM207.69 134.37C207.665 134.72 207.572 135.061 207.416 135.374L206.814 137.036H205.901L206.376 135.21C206.207 135.138 206.063 135.017 205.963 134.863C205.864 134.708 205.814 134.527 205.819 134.343C205.819 134.09 205.92 133.847 206.098 133.668C206.277 133.489 206.52 133.389 206.773 133.389C207.026 133.389 207.268 133.489 207.447 133.668C207.626 133.847 207.727 134.09 207.727 134.343L207.69 134.37Z" fill="#263238"/>
<path d="M140.878 286.784H160.128C161.338 286.784 162.499 286.303 163.355 285.447C164.211 284.591 164.692 283.43 164.692 282.22V272.88C164.68 271.678 164.193 270.528 163.339 269.682C162.484 268.836 161.33 268.361 160.128 268.361H155.099L153.629 259.716L145.907 268.361H140.878C139.676 268.361 138.522 268.836 137.667 269.682C136.813 270.528 136.326 271.678 136.314 272.88V282.256C136.324 283.46 136.809 284.612 137.664 285.46C138.519 286.308 139.674 286.784 140.878 286.784Z" fill="white" stroke="#263238" stroke-linecap="round" stroke-linejoin="round"/>
<path d="M147.642 275.646L143.598 277.162L147.642 278.677V279.901L142.238 277.801V276.523L147.642 274.423V275.646Z" fill="#263238"/>
<path d="M151.911 271.383H153.216L149.319 282.439H148.041L151.911 271.383Z" fill="#263238"/>
<path d="M158.905 276.523V277.792L153.501 279.892V278.668L157.536 277.162L153.492 275.656V274.423L158.905 276.523Z" fill="#263238"/>
<path d="M18.4621 218.542H37.7119C38.9222 218.542 40.083 218.062 40.9389 217.206C41.7947 216.349 42.2756 215.188 42.2756 213.978V204.648C42.2756 203.437 41.7947 202.276 40.9389 201.42C40.083 200.564 38.9222 200.083 37.7119 200.083H32.6826L33.7779 191.438L23.4913 200.083H18.4621C17.2518 200.083 16.091 200.564 15.2351 201.42C14.3793 202.276 13.8984 203.437 13.8984 204.648V214.014C13.9081 215.219 14.3931 216.37 15.248 217.218C16.1028 218.067 17.2581 218.543 18.4621 218.542Z" fill="white" stroke="#263238" stroke-linecap="round" stroke-linejoin="round"/>
<path d="M24.1641 212.599C24.1641 212.357 24.2602 212.125 24.4314 211.954C24.6026 211.783 24.8347 211.686 25.0768 211.686C25.3189 211.686 25.551 211.783 25.7222 211.954C25.8934 212.125 25.9895 212.357 25.9895 212.599C25.9895 212.841 25.8934 213.074 25.7222 213.245C25.551 213.416 25.3189 213.512 25.0768 213.512C24.8347 213.512 24.6026 213.416 24.4314 213.245C24.2602 213.074 24.1641 212.841 24.1641 212.599ZM24.2736 205.223H26.0078L25.7157 210.7H24.5292L24.2736 205.223Z" fill="#263238"/>
<path d="M27.498 207.323H32.9015V208.5H27.498V207.323ZM27.498 210.162H32.9015V211.339H27.498V210.162Z" fill="#263238"/>
</svg>
