<svg width="371" height="322" viewBox="0 0 371 322" fill="none" xmlns="http://www.w3.org/2000/svg">
<path d="M289.926 210.122C284.073 214.988 286.013 243.383 267.914 231.155C249.816 218.926 280.686 211.673 278.92 204.742C276.449 195.037 235.631 206.698 242.479 188.111C249.327 169.523 273.729 197.477 280.143 190.557C286.036 184.2 256.664 161.209 270.361 157.295C284.057 153.381 281.107 186.647 289.926 186.644C296.787 186.641 295.51 154.849 308.126 166.099C320.742 177.35 293.164 188.434 296.775 195.415C299.517 200.722 321.231 187.622 320.253 199.851C319.275 212.078 296.082 205.005 289.926 210.122Z" fill="#38BFF2"/>
<path d="M286.016 195.58C286.016 195.58 299.223 211.59 297.755 255.124" stroke="#1A2E35" stroke-width="1.33333" stroke-miterlimit="10" stroke-linecap="round" stroke-linejoin="round"/>
<path d="M260.284 218.232C262.624 213.523 282.022 210.309 270.922 200.086C259.821 189.865 259.857 211.772 254.915 211.688C247.998 211.571 249.344 182.273 237.937 189.836C226.53 197.396 249.205 209.353 245.574 214.767C242.237 219.74 222.107 203.652 221.655 213.482C221.203 223.313 243.098 216.038 244.499 221.967C245.589 226.58 224.013 230.78 233.583 237.471C243.154 244.162 246.218 223.858 251.486 225.175C255.49 226.175 250.138 242.858 258.203 240.254C266.268 237.651 257.823 223.184 260.284 218.232Z" fill="#38BFF2"/>
<g opacity="0.300003">
<g opacity="0.300003">
<path opacity="0.300003" d="M260.284 218.232C262.624 213.523 282.022 210.309 270.922 200.086C259.821 189.865 259.857 211.772 254.915 211.687C247.998 211.57 249.344 182.273 237.937 189.836C226.53 197.396 249.205 209.353 245.574 214.767C242.237 219.74 222.107 203.652 221.655 213.482C221.203 223.313 243.098 216.038 244.499 221.967C245.589 226.58 224.013 230.78 233.583 237.471C243.154 244.162 246.218 223.858 251.486 225.175C255.49 226.175 250.138 242.858 258.203 240.254C266.268 237.651 257.823 223.183 260.284 218.232Z" fill="black"/>
</g>
</g>
<path d="M250.306 218.438C250.306 218.438 287.891 214.524 291.6 255.123" stroke="#1A2E35" stroke-width="1.33333" stroke-miterlimit="10" stroke-linecap="round" stroke-linejoin="round"/>
<path d="M321.959 214.035C327.812 218.901 325.873 247.296 343.971 235.068C362.069 222.839 331.201 215.587 332.965 208.655C335.437 198.95 376.254 210.611 369.406 192.024C362.558 173.436 338.157 201.39 331.742 194.47C325.85 188.113 355.221 165.122 341.526 161.208C327.829 157.295 330.778 190.561 321.959 190.557C315.098 190.554 316.375 158.762 303.76 170.012C291.143 181.263 318.721 192.347 315.112 199.328C312.368 204.635 290.655 191.535 291.632 203.763C292.611 215.991 315.804 208.918 321.959 214.035Z" fill="#38BFF2"/>
<g opacity="0.300003">
<g opacity="0.300003">
<path opacity="0.300003" d="M321.961 214.035C327.814 218.901 325.875 247.296 343.973 235.068C362.071 222.839 331.203 215.587 332.967 208.655C335.439 198.95 376.256 210.611 369.408 192.024C362.56 173.436 338.159 201.39 331.744 194.47C325.852 188.113 355.223 165.122 341.528 161.208C327.831 157.295 330.78 190.561 321.961 190.557C315.1 190.554 316.377 158.762 303.762 170.012C291.145 181.263 318.723 192.347 315.114 199.328C312.37 204.635 290.657 191.535 291.634 203.764C292.613 215.992 315.806 208.918 321.961 214.035Z" fill="white"/>
</g>
</g>
<path d="M326.125 199.493C326.125 199.493 309.005 222.351 305.092 260.504" stroke="#1A2E35" stroke-width="1.33333" stroke-miterlimit="10" stroke-linecap="round" stroke-linejoin="round"/>
<path d="M313.866 320.188H287.178C282.069 320.188 277.81 316.276 277.377 311.185L273.182 261.88C272.693 256.14 277.222 251.21 282.983 251.21H318.061C323.822 251.21 328.351 256.14 327.862 261.88L323.666 311.185C323.234 316.276 318.975 320.188 313.866 320.188Z" fill="#38BFF2"/>
<path d="M313.866 320.188H287.178C282.069 320.188 277.81 316.276 277.377 311.185L273.182 261.88C272.693 256.14 277.222 251.21 282.983 251.21H318.061C323.822 251.21 328.351 256.14 327.862 261.88L323.666 311.185C323.234 316.276 318.975 320.188 313.866 320.188Z" stroke="#1A2E35" stroke-width="1.33333" stroke-miterlimit="10" stroke-linecap="round" stroke-linejoin="round"/>
<path d="M114.035 249.373C122.953 249.373 148.719 243.552 148.719 243.552H79.3503C79.3503 243.552 105.116 249.373 114.035 249.373Z" fill="#1A2E35"/>
<path d="M114.035 249.373C122.953 249.373 148.719 243.552 148.719 243.552H79.3503C79.3503 243.552 105.116 249.373 114.035 249.373Z" stroke="#1A2E35" stroke-width="1.33333" stroke-miterlimit="10" stroke-linecap="round" stroke-linejoin="round"/>
<path d="M106.085 257.358H121.98V246.462H106.085V257.358Z" fill="#868686" stroke="#1A2E35" stroke-width="1.33333" stroke-miterlimit="10" stroke-linecap="round" stroke-linejoin="round"/>
<path d="M103.735 304.21H124.334V257.358H103.735V304.21Z" fill="#9A9A9A" stroke="#1A2E35" stroke-width="1.33333" stroke-miterlimit="10" stroke-linecap="round" stroke-linejoin="round"/>
<path d="M75.3441 229.656H88.7305C87.2433 220.433 86.1458 211.034 85.469 201.717H72.0817C72.7585 211.034 73.857 220.433 75.3441 229.656Z" fill="#868686"/>
<path d="M75.3441 229.656H88.7305C87.2433 220.433 86.1458 211.034 85.469 201.717H72.0817C72.7585 211.034 73.857 220.433 75.3441 229.656Z" stroke="#1A2E35" stroke-width="1.33333" stroke-miterlimit="10" stroke-linecap="round" stroke-linejoin="round"/>
<path d="M55.0125 119.203H112.718C119.501 119.203 123.939 124.93 122.628 131.68C118.933 152.455 116.75 172.992 116.03 194.089C115.921 200.202 111.269 204.924 105.152 204.924H56.575C50.4582 204.924 44.9514 200.202 44.1663 194.089C41.8263 173.217 40.9811 152.682 41.6348 131.68C41.9558 124.93 48.2284 119.203 55.0125 119.203Z" fill="#868686"/>
<path d="M55.0125 119.203H112.718C119.501 119.203 123.939 124.93 122.628 131.68C118.933 152.455 116.75 172.992 116.03 194.089C115.921 200.202 111.269 204.924 105.152 204.924H56.575C50.4582 204.924 44.9514 200.202 44.1663 194.089C41.8263 173.217 40.9812 152.682 41.6348 131.68C41.9558 124.93 48.2284 119.203 55.0125 119.203Z" stroke="#1A2E35" stroke-width="1.33333" stroke-miterlimit="10" stroke-linecap="round" stroke-linejoin="round"/>
<path d="M51.8689 131.68C51.2143 152.682 52.0604 173.217 54.4004 194.089C55.1855 200.202 60.6923 204.924 66.8091 204.924H105.151C111.269 204.924 115.921 200.202 116.029 194.089C116.75 172.992 118.933 152.454 122.628 131.68C123.939 124.93 119.501 119.203 112.718 119.203H65.2466C58.4615 119.203 52.1899 124.93 51.8689 131.68Z" fill="#9A9A9A"/>
<path d="M51.8689 131.68C51.2143 152.682 52.0604 173.217 54.4004 194.089C55.1855 200.202 60.6923 204.924 66.8091 204.924H105.151C111.269 204.924 115.921 200.202 116.029 194.089C116.75 172.992 118.933 152.454 122.628 131.68C123.939 124.93 119.501 119.203 112.718 119.203H65.2466C58.4615 119.203 52.1899 124.93 51.8689 131.68Z" stroke="#1A2E35" stroke-width="1.33333" stroke-miterlimit="10" stroke-linecap="round" stroke-linejoin="round"/>
<path d="M79.3503 312.62C79.3503 313.719 80.3627 314.537 81.437 314.303C87.7492 312.927 106.657 308.944 114.035 308.944C121.411 308.944 140.32 312.927 146.632 314.303C147.706 314.537 148.719 313.719 148.719 312.62C148.719 310.489 147.235 308.65 145.152 308.202C137.762 306.614 120.903 303.163 114.035 303.163C107.167 303.163 90.3067 306.614 82.9174 308.202C80.8336 308.65 79.3503 310.489 79.3503 312.62Z" fill="#1A2E35"/>
<path d="M79.3503 312.62C79.3503 313.719 80.3627 314.537 81.437 314.303C87.7492 312.927 106.657 308.944 114.035 308.944C121.411 308.944 140.32 312.927 146.632 314.303C147.706 314.537 148.719 313.719 148.719 312.62C148.719 310.489 147.235 308.65 145.152 308.202C137.762 306.614 120.903 303.163 114.035 303.163C107.167 303.163 90.3067 306.614 82.9174 308.202C80.8336 308.65 79.3503 310.489 79.3503 312.62Z" stroke="#1A2E35" stroke-width="1.33333" stroke-miterlimit="10" stroke-linecap="round" stroke-linejoin="round"/>
<path d="M148.718 318.28C150.494 318.28 151.931 316.842 151.931 315.067C151.931 313.293 150.494 311.854 148.718 311.854C146.944 311.854 145.506 313.293 145.506 315.067C145.506 316.842 146.944 318.28 148.718 318.28ZM148.718 309.135C151.995 309.135 154.65 311.791 154.65 315.067C154.65 318.343 151.995 321 148.718 321C145.442 321 142.786 318.343 142.786 315.067C142.786 311.791 145.442 309.135 148.718 309.135Z" fill="#868686"/>
<path d="M148.718 318.28C150.494 318.28 151.931 316.842 151.931 315.067C151.931 313.293 150.494 311.854 148.718 311.854C146.944 311.854 145.506 313.293 145.506 315.067C145.506 316.842 146.944 318.28 148.718 318.28ZM148.718 309.135C151.995 309.135 154.65 311.791 154.65 315.067C154.65 318.343 151.995 321 148.718 321C145.442 321 142.786 318.343 142.786 315.067C142.786 311.791 145.442 309.135 148.718 309.135Z" stroke="#1A2E35" stroke-width="1.33333" stroke-miterlimit="10" stroke-linecap="round" stroke-linejoin="round"/>
<path d="M114.035 318.28C115.809 318.28 117.247 316.842 117.247 315.067C117.247 313.293 115.809 311.854 114.035 311.854C112.26 311.854 110.821 313.293 110.821 315.067C110.821 316.842 112.26 318.28 114.035 318.28ZM114.035 309.135C117.311 309.135 119.967 311.791 119.967 315.067C119.967 318.343 117.311 321 114.035 321C110.758 321 108.102 318.343 108.102 315.067C108.102 311.791 110.758 309.135 114.035 309.135Z" fill="#868686"/>
<path d="M114.035 318.28C115.809 318.28 117.247 316.842 117.247 315.067C117.247 313.293 115.809 311.854 114.035 311.854C112.26 311.854 110.821 313.293 110.821 315.067C110.821 316.842 112.26 318.28 114.035 318.28ZM114.035 309.135C117.311 309.135 119.967 311.791 119.967 315.067C119.967 318.343 117.311 321 114.035 321C110.758 321 108.102 318.343 108.102 315.067C108.102 311.791 110.758 309.135 114.035 309.135Z" stroke="#1A2E35" stroke-width="1.33333" stroke-miterlimit="10" stroke-linecap="round" stroke-linejoin="round"/>
<path d="M80.0688 318.28C81.8441 318.28 83.2819 316.842 83.2819 315.067C83.2819 313.293 81.8441 311.854 80.0688 311.854C78.2945 311.854 76.8566 313.293 76.8566 315.067C76.8566 316.842 78.2945 318.28 80.0688 318.28ZM80.0688 309.135C83.3458 309.135 86.002 311.791 86.002 315.067C86.002 318.343 83.3458 321 80.0688 321C76.7928 321 74.1366 318.343 74.1366 315.067C74.1366 311.791 76.7928 309.135 80.0688 309.135Z" fill="#868686"/>
<path d="M80.0688 318.28C81.8441 318.28 83.2819 316.842 83.2819 315.067C83.2819 313.293 81.8441 311.854 80.0688 311.854C78.2945 311.854 76.8566 313.293 76.8566 315.067C76.8566 316.842 78.2945 318.28 80.0688 318.28ZM80.0688 309.135C83.3458 309.135 86.002 311.791 86.002 315.067C86.002 318.343 83.3458 321 80.0688 321C76.7928 321 74.1366 318.343 74.1366 315.067C74.1366 311.791 76.7928 309.135 80.0688 309.135Z" stroke="#1A2E35" stroke-width="1.33333" stroke-miterlimit="10" stroke-linecap="round" stroke-linejoin="round"/>
<path d="M96.4514 227.78C119.797 228.503 142.583 227.495 165.773 224.715C170.495 224.081 174.312 227.312 174.312 232.05V233.183C174.312 237.922 170.495 242.372 165.773 243.008C142.583 245.787 119.797 246.794 96.4514 246.072V227.78Z" fill="#9A9A9A"/>
<path d="M96.4514 227.78C119.797 228.503 142.583 227.495 165.773 224.715C170.495 224.081 174.312 227.312 174.312 232.05V233.183C174.312 237.922 170.495 242.372 165.773 243.008C142.583 245.787 119.797 246.794 96.4514 246.072V227.78Z" stroke="#1A2E35" stroke-width="1.33333" stroke-miterlimit="10" stroke-linecap="round" stroke-linejoin="round"/>
<path d="M60.0918 242.705C74.4605 244.501 88.7046 245.697 103.173 246.318C106.699 246.417 109.561 243.593 109.561 240.075V234.521C109.561 231.004 106.699 228.125 103.173 228.027C88.7046 227.405 74.4605 226.21 60.0918 224.413C56.5885 223.922 53.7544 226.323 53.7544 229.84V235.393C53.7544 238.911 56.5885 242.214 60.0918 242.705Z" fill="#868686"/>
<path d="M60.0918 242.705C74.4605 244.501 88.7046 245.697 103.173 246.318C106.699 246.417 109.561 243.593 109.561 240.075V234.521C109.561 231.004 106.699 228.125 103.173 228.027C88.7046 227.405 74.4605 226.21 60.0918 224.413C56.5885 223.922 53.7544 226.323 53.7544 229.84V235.393C53.7544 238.911 56.5885 242.214 60.0918 242.705Z" stroke="#1A2E35" stroke-width="1.33333" stroke-miterlimit="10" stroke-linecap="round" stroke-linejoin="round"/>
<path d="M156.3 317.918C156.343 314.687 157.005 308.221 160.806 299.882L165.77 281.994L181.241 288.602L176.89 302.299C176.89 302.299 190.19 308.646 195.1 310.358C198.371 311.497 208.154 313.742 207.67 317.932C207.67 319.178 206.661 320.188 205.414 320.188H158.557C157.304 320.188 156.284 319.171 156.3 317.918Z" fill="white"/>
<path d="M156.3 317.918C156.343 314.687 157.005 308.221 160.806 299.882L165.77 281.994L181.241 288.602L176.89 302.299C176.89 302.299 190.19 308.646 195.1 310.358C198.371 311.497 208.154 313.742 207.67 317.932C207.67 319.178 206.661 320.188 205.414 320.188H158.557C157.304 320.188 156.284 319.171 156.3 317.918Z" stroke="#1A2E35" stroke-width="1.33333" stroke-miterlimit="10" stroke-linecap="round" stroke-linejoin="round"/>
<path d="M164.814 307.457C167.232 309.229 180.124 311.485 176.891 308.907C173.658 306.328 176.891 302.299 176.891 302.299C176.891 302.299 190.191 308.645 195.102 310.358C198.373 311.498 208.156 313.742 207.672 317.932C207.672 319.178 206.662 320.188 205.415 320.188H158.558C157.305 320.188 156.286 319.17 156.301 317.917C156.337 315.19 156.823 310.145 159.262 303.621C161.926 303.654 162.397 305.684 164.814 307.457Z" fill="#38BFF2"/>
<path d="M164.814 307.457C167.232 309.229 180.124 311.485 176.891 308.907C173.658 306.328 176.891 302.299 176.891 302.299C176.891 302.299 190.191 308.645 195.102 310.358C198.373 311.498 208.156 313.742 207.672 317.932C207.672 319.178 206.662 320.188 205.415 320.188H158.558C157.305 320.188 156.286 319.17 156.301 317.917C156.337 315.19 156.823 310.145 159.262 303.621C161.926 303.654 162.397 305.684 164.814 307.457Z" stroke="#1A2E35" stroke-width="1.33333" stroke-miterlimit="10" stroke-linecap="round" stroke-linejoin="round"/>
<path d="M145.107 320.188H110.783C110.073 320.188 109.468 319.685 109.333 318.989C108.807 316.26 108.927 310.159 112.023 302.057L112.328 285.61L129.912 288.602L127.681 302.622C127.681 302.622 134.761 310.413 138.123 311.808C140.487 312.789 145.857 312.892 146.578 318.543C146.69 319.416 145.988 320.188 145.107 320.188Z" fill="white"/>
<path d="M145.107 320.188H110.783C110.073 320.188 109.468 319.685 109.333 318.989C108.807 316.26 108.927 310.159 112.023 302.057L112.328 285.61L129.912 288.602L127.681 302.622C127.681 302.622 134.761 310.413 138.123 311.808C140.487 312.789 145.857 312.892 146.578 318.543C146.69 319.416 145.988 320.188 145.107 320.188Z" stroke="#1A2E35" stroke-width="1.33333" stroke-miterlimit="10" stroke-linecap="round" stroke-linejoin="round"/>
<path d="M117.817 307.519C121.446 310.056 124.121 310.358 122.429 306.552C120.737 302.747 127.68 302.623 127.68 302.623C127.68 302.623 134.76 310.412 138.123 311.808C140.486 312.788 145.857 312.892 146.578 318.542C146.689 319.416 145.988 320.188 145.107 320.188H110.783C110.072 320.188 109.467 319.685 109.334 318.988C108.808 316.259 108.927 310.159 112.024 302.058C114.672 302.703 114.188 304.982 117.817 307.519Z" fill="#38BFF2"/>
<path d="M117.817 307.519C121.446 310.056 124.121 310.358 122.429 306.552C120.737 302.747 127.68 302.623 127.68 302.623C127.68 302.623 134.76 310.412 138.123 311.808C140.486 312.788 145.857 312.892 146.578 318.542C146.689 319.416 145.988 320.188 145.107 320.188H110.783C110.072 320.188 109.467 319.685 109.334 318.988C108.808 316.259 108.927 310.159 112.024 302.058C114.672 302.703 114.188 304.982 117.817 307.519Z" stroke="#1A2E35" stroke-width="1.33333" stroke-miterlimit="10" stroke-linecap="round" stroke-linejoin="round"/>
<path d="M148.527 194.647C148.527 194.647 151.982 198.192 166.129 200.448C180.274 202.704 209.605 209.796 209.283 221.399C208.961 233.002 181.886 294.887 181.886 294.887C181.886 294.887 168.349 292.308 162.064 288.44C162.064 288.44 172.96 244.283 181.13 232.679C181.13 232.679 144.453 228.168 124.169 219.787C103.886 211.407 115.811 192.335 115.811 192.335L148.527 194.647Z" fill="#1A2E35"/>
<path d="M148.527 194.647C148.527 194.647 151.982 198.192 166.129 200.448C180.274 202.704 209.605 209.796 209.283 221.399C208.961 233.002 181.886 294.887 181.886 294.887C181.886 294.887 168.349 292.308 162.064 288.44C162.064 288.44 172.96 244.283 181.13 232.679C181.13 232.679 144.453 228.168 124.169 219.787C103.886 211.407 115.811 192.335 115.811 192.335L148.527 194.647Z" stroke="#1A2E35" stroke-width="1.33333" stroke-miterlimit="10" stroke-linecap="round" stroke-linejoin="round"/>
<path d="M125.482 193.018C125.482 193.018 120.279 201.738 124.169 206.572C128.059 211.407 150.123 220.432 147.633 231.391C145.142 242.349 136.903 257.82 131.53 294.564C131.53 294.564 119.034 292.63 110.654 289.085C110.654 289.085 109.265 251.697 118.984 235.581C118.984 235.581 91.1535 230.424 88.3339 221.076C85.5134 211.73 90.79 197.436 90.8915 192.335L125.482 193.018Z" fill="#1A2E35"/>
<path d="M125.482 193.018C125.482 193.018 120.279 201.738 124.169 206.572C128.059 211.407 150.123 220.432 147.633 231.391C145.142 242.349 136.903 257.82 131.53 294.564C131.53 294.564 119.034 292.63 110.654 289.085C110.654 289.085 109.265 251.697 118.984 235.581C118.984 235.581 91.1535 230.424 88.3339 221.076C85.5134 211.73 90.79 197.436 90.8915 192.335L125.482 193.018Z" stroke="#1A2E35" stroke-width="1.33333" stroke-miterlimit="10" stroke-linecap="round" stroke-linejoin="round"/>
<path d="M142.248 206.864C142.864 206.823 143.506 206.83 144.174 206.894" stroke="#808080" stroke-linecap="round" stroke-linejoin="round"/>
<path d="M141.025 201.093C141.025 201.093 135.31 202.775 133.067 210.223C132.89 210.814 133.625 211.265 134.059 210.827C135.249 209.624 137.105 208.145 139.563 207.37" stroke="#808080" stroke-linecap="round" stroke-linejoin="round"/>
<path d="M183.819 232.277C183.819 229.133 197.357 227.442 193.731 224.541C190.105 221.641 181.885 231.068 181.885 231.068" stroke="#808080" stroke-linecap="round" stroke-linejoin="round"/>
<path d="M117.302 244.847C117.302 241.248 130.239 239.287 129.592 235.419C128.946 231.552 120.727 239.166 120.727 239.166" stroke="#808080" stroke-linecap="round" stroke-linejoin="round"/>
<path d="M183.31 295.107L181.886 298.394C181.723 298.767 181.324 298.975 180.927 298.885C177.8 298.18 164.765 295.101 160.187 291.818C159.915 291.623 159.802 291.271 159.881 290.945L160.768 287.281C160.9 286.739 161.509 286.471 161.999 286.74C164.055 287.863 169.791 290.541 182.74 293.951C183.242 294.083 183.516 294.631 183.31 295.107Z" fill="#9A9A9A"/>
<path d="M183.31 295.107L181.886 298.394C181.723 298.767 181.324 298.975 180.927 298.885C177.8 298.18 164.765 295.101 160.187 291.818C159.915 291.623 159.802 291.271 159.881 290.945L160.768 287.281C160.9 286.739 161.509 286.471 161.999 286.74C164.055 287.863 169.791 290.541 182.74 293.951C183.242 294.083 183.516 294.631 183.31 295.107Z" stroke="#1A2E35" stroke-width="1.33333" stroke-miterlimit="10" stroke-linecap="round" stroke-linejoin="round"/>
<path d="M133.104 292.4C133.176 291.906 132.698 291.497 132.231 291.67C131.304 292.014 129.733 292.283 127.374 291.744C123.79 290.925 113.526 287.676 110.473 286.702C110.041 286.565 109.607 286.889 109.607 287.342V291.617C109.607 291.882 109.756 292.119 109.998 292.226C112.399 293.296 125.246 298.799 131.97 297.299C132.238 297.239 132.435 297.01 132.475 296.737L133.104 292.4Z" fill="#9A9A9A"/>
<path d="M133.104 292.4C133.176 291.906 132.698 291.497 132.231 291.67C131.304 292.014 129.733 292.283 127.374 291.744C123.79 290.925 113.526 287.676 110.473 286.702C110.041 286.565 109.607 286.889 109.607 287.342V291.617C109.607 291.882 109.756 292.119 109.998 292.226C112.399 293.296 125.246 298.799 131.97 297.299C132.238 297.239 132.435 297.01 132.475 296.737L133.104 292.4Z" stroke="#1A2E35" stroke-width="1.33333" stroke-miterlimit="10" stroke-linecap="round" stroke-linejoin="round"/>
<path d="M122.762 202.9C122.884 204.223 123.3 205.495 124.166 206.572C127.004 210.098 139.511 215.854 145.105 222.964" stroke="#808080" stroke-width="1.33333" stroke-linecap="round" stroke-linejoin="round"/>
<path d="M123.369 197.982C123.165 198.678 122.992 199.412 122.877 200.159" stroke="#808080" stroke-width="1.33333" stroke-linecap="round" stroke-linejoin="round"/>
<path d="M197.42 312.533C197.42 312.533 196.453 314.064 195.728 317.126H160.807C160.807 317.126 160.714 314.785 158.863 313.138" stroke="#1A2E35" stroke-width="1.33333" stroke-miterlimit="10" stroke-linecap="round" stroke-linejoin="round"/>
<path d="M136.744 312.533C136.744 312.533 131.909 312.896 130.096 317.126H111.845C111.845 317.126 110.878 314.951 110.878 313.138" stroke="#1A2E35" stroke-width="1.33333" stroke-miterlimit="10" stroke-linecap="round" stroke-linejoin="round"/>
<path d="M165.367 139.959C164.918 141.667 164.458 143.357 163.997 145.01C159.163 162.415 152.878 195.533 152.878 195.533C121.936 202.06 89.302 195.533 89.302 195.533C89.1241 188.313 90.003 178.791 90.9825 168.788C85.908 167.384 82.2491 162.7 82.0499 154.922C81.8082 145.494 83.5168 128.519 84.4673 120.595C85.3037 113.622 84.709 109.475 95.5098 104.191C100.923 101.066 109.91 99.5884 120.969 98.1138C142.726 95.2129 158.425 99.6087 163.997 101.982C168.414 100.818 169.643 106.005 169.643 106.005C172.091 104.151 174.932 111.986 174.932 111.986C182.088 121.117 187.717 136.494 189.588 141.978C189.998 143.179 190.765 144.217 191.774 144.986C196.85 148.857 194.029 153.642 194.029 153.642L183.634 156.828C183.634 156.828 178.598 158.139 174.751 151.516C171.532 145.975 166.273 136.584 165.367 139.959Z" fill="#38BFF2"/>
<g opacity="0.300003">
<g opacity="0.300003">
<path opacity="0.300003" d="M181.714 152.457C181.714 152.457 181.956 147.623 185.824 146.777C189.691 145.931 184.736 144.488 181.714 145.21C178.692 145.931 179.389 143.272 176.805 138.921C174.22 134.57 172.952 131.13 170.745 133.639C168.539 136.148 166.292 136.493 165.361 139.959C164.43 143.425 169.023 151.515 169.023 151.515L176.238 157.111L179.901 159.166H185.372L187.24 154.437L181.714 152.457Z" fill="black"/>
</g>
</g>
<path d="M165.367 139.959C164.918 141.667 164.458 143.357 163.997 145.01C159.163 162.415 152.878 195.533 152.878 195.533C121.936 202.06 89.302 195.533 89.302 195.533C89.1241 188.313 90.003 178.79 90.9825 168.787C85.908 167.383 82.2491 162.7 82.0499 154.922C81.8082 145.494 83.5168 128.519 84.4673 120.595C85.3037 113.621 84.709 109.475 95.5098 104.191C100.923 101.066 109.91 99.5882 120.969 98.1137C142.726 95.2128 158.425 99.6085 163.997 101.981C168.414 100.818 169.643 106.005 169.643 106.005C172.091 104.151 174.932 111.985 174.932 111.985C182.088 121.117 187.717 136.494 189.588 141.978C189.998 143.179 190.765 144.217 191.774 144.986C196.85 148.857 194.029 153.642 194.029 153.642L183.634 156.828C183.634 156.828 178.598 158.139 174.751 151.516C171.532 145.975 166.273 136.583 165.367 139.959Z" stroke="#1A2E35" stroke-width="1.33333" stroke-miterlimit="10" stroke-linecap="round" stroke-linejoin="round"/>
<g opacity="0.300003">
<g opacity="0.300003">
<path opacity="0.300003" d="M89.2998 195.533C89.1712 190.31 89.5986 183.872 90.2136 176.928C89.1596 191.648 119.821 196.255 120.788 188.276C121.755 180.294 90.9804 168.788 107.726 172.81C122.34 176.32 150.653 172.967 157.621 172.057C154.946 184.634 152.876 195.533 152.876 195.533C121.934 202.06 89.2998 195.533 89.2998 195.533Z" fill="black"/>
</g>
</g>
<g opacity="0.300003">
<g opacity="0.300003">
<path opacity="0.300003" d="M103.363 121.562C103.363 121.562 107.738 134.374 107.73 141.143C107.72 147.905 120.004 152.448 120.025 152.457C113.448 151.116 107.044 149.347 103.984 148.464C102.898 148.15 102.188 147.12 102.287 145.994C102.89 139.054 103.544 129.71 103.362 121.562H103.363Z" fill="black"/>
</g>
</g>
<path d="M169.416 118.336C169.416 118.336 169.563 127.552 166.192 136.023C165.878 136.808 166.771 137.524 167.458 137.032C169.117 135.845 171.463 133.425 173.584 128.549" stroke="#1A2E35" stroke-miterlimit="10" stroke-linecap="round" stroke-linejoin="round"/>
<path d="M87.3683 157.822C89.9191 149.363 94.3342 147.244 97.7562 147.031C98.3064 146.997 98.4891 146.278 98.0057 146.016C96.0196 144.939 92.144 144.09 87.3683 149.361" stroke="#1A2E35" stroke-miterlimit="10" stroke-linecap="round" stroke-linejoin="round"/>
<path d="M136.417 133.604C136.417 134.407 137.067 135.057 137.869 135.057C138.672 135.057 139.322 134.407 139.322 133.604C139.322 132.802 138.672 132.152 137.869 132.152C137.067 132.152 136.417 132.802 136.417 133.604Z" fill="#9A9A9A"/>
<path d="M136.417 133.604C136.417 134.407 137.067 135.057 137.869 135.057C138.672 135.057 139.322 134.407 139.322 133.604C139.322 132.802 138.672 132.152 137.869 132.152C137.067 132.152 136.417 132.802 136.417 133.604Z" stroke="#1A2E35" stroke-miterlimit="10" stroke-linecap="round" stroke-linejoin="round"/>
<path d="M134.45 150.063C134.45 150.866 135.101 151.516 135.903 151.516C136.706 151.516 137.355 150.866 137.355 150.063C137.355 149.261 136.706 148.61 135.903 148.61C135.101 148.61 134.45 149.261 134.45 150.063Z" fill="#9A9A9A"/>
<path d="M134.45 150.063C134.45 150.866 135.101 151.516 135.903 151.516C136.706 151.516 137.355 150.866 137.355 150.063C137.355 149.261 136.706 148.61 135.903 148.61C135.101 148.61 134.45 149.261 134.45 150.063Z" stroke="#1A2E35" stroke-miterlimit="10" stroke-linecap="round" stroke-linejoin="round"/>
<path d="M129.594 189.729C129.594 190.531 130.245 191.182 131.048 191.182C131.849 191.182 132.5 190.531 132.5 189.729C132.5 188.926 131.849 188.276 131.048 188.276C130.245 188.276 129.594 188.926 129.594 189.729Z" fill="#9A9A9A"/>
<path d="M129.594 189.729C129.594 190.531 130.245 191.182 131.048 191.182C131.849 191.182 132.5 190.531 132.5 189.729C132.5 188.926 131.849 188.276 131.048 188.276C130.245 188.276 129.594 188.926 129.594 189.729Z" stroke="#1A2E35" stroke-width="1.33333" stroke-miterlimit="10" stroke-linecap="round" stroke-linejoin="round"/>
<path d="M157.357 160.844C157.357 160.844 162.107 165.375 159.848 165.445C157.59 165.516 154.733 162.415 152.113 162.052C149.493 161.69 153.723 160.088 153.723 160.088L157.357 160.844Z" fill="white"/>
<path d="M157.357 160.844C157.357 160.844 162.107 165.375 159.848 165.445C157.59 165.516 154.733 162.415 152.113 162.052C149.493 161.69 153.723 160.088 153.723 160.088L157.357 160.844Z" stroke="#1A2E35" stroke-width="1.33333" stroke-miterlimit="10" stroke-linecap="round" stroke-linejoin="round"/>
<path d="M129.635 155.755C130.06 155.367 130.637 155.184 131.211 155.231C133.537 155.417 140.202 155.923 142.724 155.767C147.186 155.493 160.343 152.705 160.343 152.705C160.648 152.653 160.961 152.67 161.258 152.757L169.405 155.151C169.702 155.239 169.975 155.392 170.203 155.602L175.134 160.134C175.297 160.284 175.434 160.459 175.54 160.653L176.561 162.526C176.995 163.318 176.848 164.302 176.204 164.934L168.044 165.189C167.54 165.205 167.049 165.032 166.666 164.704L164.249 162.632C164.089 162.493 163.953 162.33 163.84 162.15C163.245 161.195 160.968 157.996 157.357 158.306C157.357 158.306 165.085 162.415 163.634 164.107C162.184 165.799 156.262 160.965 154.328 161.448C152.435 161.921 152.265 166.675 141.74 164.956C141.273 164.88 140.788 164.898 140.333 165.025L130.761 167.701C129.562 168.037 128.331 167.318 128.023 166.112C127.306 163.312 126.653 158.473 129.635 155.755Z" fill="white"/>
<path d="M129.635 155.755C130.06 155.367 130.637 155.184 131.211 155.231C133.537 155.417 140.202 155.923 142.724 155.767C147.186 155.493 160.343 152.705 160.343 152.705C160.648 152.653 160.961 152.67 161.258 152.757L169.405 155.151C169.702 155.239 169.975 155.392 170.203 155.602L175.134 160.134C175.297 160.284 175.434 160.459 175.54 160.653L176.561 162.526C176.995 163.318 176.848 164.302 176.204 164.934L168.044 165.189C167.54 165.205 167.049 165.032 166.666 164.704L164.249 162.632C164.089 162.493 163.953 162.33 163.84 162.15C163.245 161.195 160.968 157.996 157.357 158.306C157.357 158.306 165.085 162.415 163.634 164.107C162.184 165.799 156.262 160.965 154.328 161.448C152.435 161.921 152.265 166.675 141.74 164.956C141.273 164.88 140.788 164.898 140.333 165.025L130.761 167.701C129.562 168.037 128.331 167.318 128.023 166.112C127.306 163.312 126.653 158.473 129.635 155.755Z" stroke="#1A2E35" stroke-width="1.33333" stroke-miterlimit="10" stroke-linecap="round" stroke-linejoin="round"/>
<path d="M159.204 154.438L161.258 154.784C162.257 154.953 163.192 155.396 163.955 156.064L166.088 157.931C166.465 158.26 166.793 158.638 167.067 159.056L168.467 161.198C168.621 161.434 168.795 161.655 168.984 161.864C169.816 162.78 172.105 165.502 169.632 165.14" fill="white"/>
<path d="M159.204 154.438L161.258 154.784C162.257 154.953 163.192 155.396 163.955 156.064L166.088 157.931C166.465 158.26 166.793 158.638 167.067 159.056L168.467 161.198C168.621 161.434 168.795 161.655 168.984 161.864C169.816 162.78 172.105 165.502 169.632 165.14" stroke="#1A2E35" stroke-width="1.33333" stroke-miterlimit="10" stroke-linecap="round" stroke-linejoin="round"/>
<path d="M164.976 155.163L167.099 155.736C167.759 155.915 168.364 156.258 168.858 156.732L170.513 158.321C170.67 158.472 170.815 158.634 170.945 158.809L173.66 162.415C173.66 162.415 175.115 164.969 173.66 165.014" fill="white"/>
<path d="M164.976 155.163L167.099 155.736C167.759 155.915 168.364 156.258 168.858 156.732L170.513 158.321C170.67 158.472 170.815 158.634 170.945 158.809L173.66 162.415C173.66 162.415 175.115 164.969 173.66 165.014" stroke="#1A2E35" stroke-width="1.33333" stroke-miterlimit="10" stroke-linecap="round" stroke-linejoin="round"/>
<path d="M103.296 119.511C103.653 128.099 102.938 138.465 102.282 145.993C102.185 147.119 102.893 148.15 103.979 148.463C108.201 149.682 118.787 152.591 127.416 153.729" stroke="#1A2E35" stroke-width="1.33333" stroke-miterlimit="10" stroke-linecap="round" stroke-linejoin="round"/>
<path d="M102.817 113.515C102.943 114.498 103.047 115.532 103.129 116.607" stroke="#1A2E35" stroke-miterlimit="10" stroke-linecap="round" stroke-linejoin="round"/>
<path d="M99.5719 104.459C100.681 105.413 101.497 107.18 102.084 109.506" stroke="#1A2E35" stroke-miterlimit="10" stroke-linecap="round" stroke-linejoin="round"/>
<path d="M147.986 98.7176C147.986 98.7176 147.382 96.7837 144.119 95.6959C140.855 94.6081 129.563 92.8657 123.753 95.6959C117.941 98.5262 129.071 113.887 129.071 113.887L134.267 121.017L138.86 124.462L140.916 118.337L143.575 115.578C143.575 115.578 149.316 110.865 148.832 106.211C148.349 101.558 147.986 98.7176 147.986 98.7176Z" fill="white"/>
<path d="M124.251 98.0792C131.927 122.176 138.695 123.254 138.695 123.254C140.951 114.391 142.885 116.324 145.947 110.786C148.404 106.343 147.573 100.709 147.149 98.6565C147.046 98.1575 146.729 97.7243 146.275 97.4932C138.658 93.6158 129.339 95.042 125.495 95.891C124.518 96.1066 123.947 97.1258 124.251 98.0792ZM119.458 98.3171C120.365 95.1368 124.513 94.2453 124.513 94.2453C144.335 90.861 148.526 98.0666 148.526 98.0666C152.554 109.3 148.526 118.337 148.526 118.337C148.526 118.337 142.885 116.001 141.918 118.337C140.951 120.671 139.179 125.671 139.179 125.671C139.179 125.671 135.311 123.737 132.249 119.709C129.187 115.679 121.985 119.709 121.985 119.709C117.363 111.65 119.458 98.3171 119.458 98.3171Z" fill="#38BFF2"/>
<g opacity="0.399994">
<g opacity="0.399994">
<path opacity="0.399994" d="M124.249 98.0793C131.925 122.176 138.693 123.254 138.693 123.254C140.949 114.391 142.883 116.325 145.945 110.786C148.402 106.343 147.571 100.709 147.147 98.6566C147.044 98.1576 146.728 97.7244 146.273 97.4933C138.656 93.6159 129.337 95.0422 125.493 95.8911C124.516 96.1068 123.945 97.1259 124.249 98.0793ZM119.456 98.3172C120.363 95.1369 124.511 94.2454 124.511 94.2454C144.333 90.8611 148.524 98.0667 148.524 98.0667C152.552 109.3 148.524 118.337 148.524 118.337C148.524 118.337 142.883 116.002 141.916 118.337C140.949 120.671 139.177 125.671 139.177 125.671C139.177 125.671 135.309 123.737 132.247 119.709C129.185 115.68 121.983 119.709 121.983 119.709C117.361 111.65 119.456 98.3172 119.456 98.3172Z" fill="white"/>
</g>
</g>
<path d="M124.249 98.0791C131.925 122.176 138.693 123.253 138.693 123.253C140.949 114.39 142.883 116.324 145.945 110.786C148.402 106.343 147.571 100.709 147.147 98.6563C147.044 98.1574 146.728 97.7242 146.273 97.4931C138.656 93.6157 129.337 95.0419 125.493 95.8909C124.516 96.1065 123.945 97.1257 124.249 98.0791ZM119.456 98.3169C120.363 95.1367 124.511 94.2451 124.511 94.2451C144.333 90.8608 148.524 98.0665 148.524 98.0665C152.552 109.299 148.524 118.337 148.524 118.337C148.524 118.337 142.883 116.001 141.916 118.337C140.949 120.671 139.177 125.671 139.177 125.671C139.177 125.671 135.309 123.737 132.247 119.709C129.185 115.679 121.983 119.709 121.983 119.709C117.361 111.65 119.456 98.3169 119.456 98.3169V98.3169Z" stroke="#1A2E35" stroke-width="1.33333" stroke-miterlimit="10" stroke-linecap="round" stroke-linejoin="round"/>
<path d="M151.818 61.4941C151.818 61.4941 168.9 64.9151 159.493 76.0263C149.059 88.349 151.818 61.4941 151.818 61.4941Z" fill="#1A2E35"/>
<path d="M151.818 61.4941C151.818 61.4941 168.9 64.9151 159.493 76.0263C149.059 88.349 151.818 61.4941 151.818 61.4941Z" stroke="#1A2E35" stroke-width="1.33333" stroke-miterlimit="10" stroke-linecap="round" stroke-linejoin="round"/>
<path d="M158.556 88.6047C158.556 88.6047 162.617 72.1667 154.881 64.2696C147.146 56.3736 138.765 54.7617 132.48 58.6295C126.195 62.4972 123.617 72.1667 124.584 77.1628C125.551 82.1581 125.079 100.047 133.696 107.46C142.311 114.874 147.614 113.046 153.311 102.947C157.055 96.3122 158.846 94.4063 158.556 88.6047Z" fill="white"/>
<path d="M158.556 88.6047C158.556 88.6047 162.617 72.1667 154.881 64.2696C147.146 56.3736 138.765 54.7617 132.48 58.6295C126.195 62.4972 123.617 72.1667 124.584 77.1628C125.551 82.1581 125.079 100.047 133.696 107.46C142.311 114.874 147.614 113.046 153.311 102.947C157.055 96.3122 158.846 94.4063 158.556 88.6047Z" stroke="#1A2E35" stroke-width="1.33333" stroke-miterlimit="10" stroke-linecap="round" stroke-linejoin="round"/>
<path d="M128.615 85.3819C128.615 85.3819 135.109 78.9353 137.098 71.3612C139.087 63.7872 140.214 62.4973 147.628 66.2045C155.041 69.9108 166.608 64.9214 163.582 55.5682C160.402 45.7373 150.69 58.469 141.343 55.2452C131.995 52.0224 125.366 57.824 125.351 66.365C125.351 66.365 119.703 71.8447 125.366 86.0269L128.615 85.3819Z" fill="#1A2E35"/>
<path d="M128.615 85.3819C128.615 85.3819 135.109 78.9353 137.098 71.3612C139.087 63.7872 140.214 62.4973 147.628 66.2045C155.041 69.9108 166.608 64.9214 163.582 55.5682C160.402 45.7373 150.69 58.469 141.343 55.2452C131.995 52.0224 125.366 57.824 125.351 66.365C125.351 66.365 119.703 71.8447 125.366 86.0269L128.615 85.3819Z" stroke="#1A2E35" stroke-width="1.33333" stroke-miterlimit="10" stroke-linecap="round" stroke-linejoin="round"/>
<path d="M130.652 84.3007C130.652 84.3007 129.01 75.2897 124.439 76.1252C119.869 76.9616 123.136 90.2571 128.513 88.8066" fill="white"/>
<path d="M130.652 84.3007C130.652 84.3007 129.01 75.2897 124.439 76.1252C119.869 76.9616 123.136 90.2571 128.513 88.8066" stroke="#1A2E35" stroke-width="1.33333" stroke-miterlimit="10" stroke-linecap="round" stroke-linejoin="round"/>
<path d="M152.384 87.3558C152.384 87.3558 154.175 95.718 153.593 97.1558C153.01 98.5936 147.473 97.4933 147.473 97.4933" fill="white"/>
<path d="M152.384 87.3558C152.384 87.3558 154.175 95.718 153.593 97.1558C153.01 98.5936 147.473 97.4933 147.473 97.4933" stroke="#1A2E35" stroke-width="1.33333" stroke-miterlimit="10" stroke-linecap="round" stroke-linejoin="round"/>
<path d="M146.701 101.135C146.701 101.135 142.365 102.847 138.55 97.1558L146.701 101.135Z" fill="white"/>
<path d="M146.701 101.135C146.701 101.135 142.365 102.847 138.55 97.1558" stroke="#1A2E35" stroke-width="1.33333" stroke-miterlimit="10" stroke-linecap="round" stroke-linejoin="round"/>
<path d="M155.348 88.0532C155.187 88.8326 155.39 89.5336 155.803 89.6197C156.214 89.7047 156.681 89.143 156.843 88.3636C157.004 87.5842 156.801 86.8832 156.389 86.7981C155.976 86.7121 155.511 87.2739 155.348 88.0532Z" fill="#1A2E35"/>
<path d="M144.745 87.201C144.583 87.9803 144.786 88.6814 145.199 88.7665C145.611 88.8525 146.078 88.2898 146.239 87.5114C146.401 86.732 146.198 86.031 145.785 85.9449C145.372 85.8598 144.906 86.4216 144.745 87.201Z" fill="#1A2E35"/>
<path d="M153.119 87.6911C152.9 89.8812 155.102 91.8953 158.037 92.1883C160.971 92.4813 163.528 90.9439 163.747 88.7537C163.966 86.5626 161.66 85.5957 158.725 85.3027C155.79 85.0097 153.338 85.5 153.119 87.6911Z" stroke="#1A2E35" stroke-width="1.33333" stroke-miterlimit="10" stroke-linecap="round" stroke-linejoin="round"/>
<path d="M139.438 86.3229C139.218 88.514 141.421 90.5272 144.356 90.8201C147.29 91.1141 149.847 89.5757 150.066 87.3856C150.285 85.1945 147.979 84.2285 145.044 83.9355C142.11 83.6425 139.657 84.1328 139.438 86.3229Z" stroke="#1A2E35" stroke-width="1.33333" stroke-miterlimit="10" stroke-linecap="round" stroke-linejoin="round"/>
<path d="M153.119 87.6912L150.064 87.3856L153.119 87.6912Z" fill="white"/>
<path d="M153.119 87.6912L150.064 87.3856" stroke="#1A2E35" stroke-width="1.33333" stroke-miterlimit="10" stroke-linecap="round" stroke-linejoin="round"/>
<path d="M139.812 85.226L128.572 78.5976L139.812 85.226Z" fill="white"/>
<path d="M139.812 85.226L128.572 78.5976" stroke="#1A2E35" stroke-width="1.33333" stroke-miterlimit="10" stroke-linecap="round" stroke-linejoin="round"/>
<path d="M126.645 95.5362L126.115 96.8242L126.645 95.5362Z" fill="white"/>
<path d="M126.645 95.5362L126.115 96.8242" stroke="#1A2E35" stroke-width="1.33333" stroke-miterlimit="10" stroke-linecap="round" stroke-linejoin="round"/>
<path d="M159.459 84.1567C159.459 84.1567 157.747 81.9782 155.646 83.0273L159.459 84.1567Z" fill="white"/>
<path d="M159.459 84.1567C159.459 84.1567 157.747 81.9782 155.646 83.0273" stroke="#1A2E35" stroke-width="1.33333" stroke-miterlimit="10" stroke-linecap="round" stroke-linejoin="round"/>
<path d="M141.938 83.1831C141.938 83.1831 144.946 80.3161 147.84 82.3274L141.938 83.1831Z" fill="white"/>
<path d="M141.938 83.1831C141.938 83.1831 144.946 80.3161 147.84 82.3274" stroke="#1A2E35" stroke-width="1.33333" stroke-miterlimit="10" stroke-linecap="round" stroke-linejoin="round"/>
<path d="M155.66 56.6529C151.087 58.1072 143.389 59.8825 137.099 57.9844C127.483 55.0836 130.747 65.9095 128.571 68.8973" stroke="#808080" stroke-width="1.33333" stroke-linecap="round" stroke-linejoin="round"/>
<path d="M159.619 55.2049C159.619 55.2049 158.851 55.5434 157.551 56.0114" stroke="#808080" stroke-width="1.33333" stroke-linecap="round" stroke-linejoin="round"/>
<path d="M148.068 62.0426C147.556 61.886 147.019 61.7032 146.46 61.4943" stroke="#808080" stroke-width="1.33333" stroke-linecap="round" stroke-linejoin="round"/>
<path d="M158.555 60.7649C158.555 60.7649 156.512 63.9326 149.908 62.5228" stroke="#808080" stroke-width="1.33333" stroke-linecap="round" stroke-linejoin="round"/>
<path d="M134 66.9657C133.594 69.7167 132.552 73.7063 129.901 77.3236" stroke="#808080" stroke-width="1.33333" stroke-linecap="round" stroke-linejoin="round"/>
<path d="M134.251 63.5449C134.251 63.5449 134.275 64.1946 134.191 65.2747" stroke="#808080" stroke-width="1.33333" stroke-linecap="round" stroke-linejoin="round"/>
<g opacity="0.300003">
<g opacity="0.300003">
<path opacity="0.300003" d="M125.649 167.272C126.427 167.968 125.975 169.252 124.93 169.258C118.401 169.288 100.785 169.332 93.9532 168.942C85.4925 168.459 91.9497 159.252 98.7531 162.767C105.023 166.007 118.212 160.614 125.649 167.272Z" fill="black"/>
</g>
</g>
<path d="M199.283 158.208C199.283 158.208 195.331 147.678 185.411 149.349C175.391 151.038 183.073 159.325 187.842 160.067C187.842 160.067 188.567 157.176 199.283 158.208Z" fill="white"/>
<path d="M199.283 158.208C199.283 158.208 195.331 147.678 185.411 149.349C175.391 151.038 183.073 159.325 187.842 160.067C187.842 160.067 188.567 157.176 199.283 158.208Z" stroke="#1A2E35" stroke-width="1.33333" stroke-miterlimit="10" stroke-linecap="round" stroke-linejoin="round"/>
<path d="M207.684 164.182C208.994 165.491 212.133 165.603 210.021 162.767C207.684 159.63 205.05 158.578 203.253 157.775C198.547 155.675 196.712 156.095 192.455 155.162C188.198 154.23 187.402 155.961 185.928 156.768C182.42 158.692 181.577 159.025 180.69 160.959C179.805 162.893 178.838 165.41 181.577 165.41C184.075 165.41 184.236 161.281 186.653 161.443C189.071 161.603 190.279 165.41 191.972 165.41H192.617C194.067 165.41 194.145 164.203 193.258 162.307C192.37 160.41 191.408 158.702 191.408 158.702C191.408 158.702 193.51 159.66 194.671 162.127C195.832 164.595 196.045 165.634 198.178 165.634C200.311 165.634 200.164 164.05 198.042 160.55C198.042 160.55 199.954 161.6 200.999 163.576C202.044 165.552 202.589 165.41 203.959 165.41C205.75 165.41 205.63 162.449 202.446 160.515C202.446 160.515 203.152 159.65 207.684 164.182Z" fill="white"/>
<path d="M207.684 164.182C208.994 165.491 212.133 165.603 210.021 162.767C207.684 159.63 205.05 158.578 203.253 157.775C198.547 155.675 196.712 156.095 192.455 155.162C188.198 154.23 187.402 155.961 185.928 156.768C182.42 158.692 181.577 159.025 180.69 160.959C179.805 162.893 178.838 165.41 181.577 165.41C184.075 165.41 184.236 161.281 186.653 161.443C189.071 161.603 190.279 165.41 191.972 165.41H192.617C194.067 165.41 194.145 164.203 193.258 162.307C192.37 160.41 191.408 158.702 191.408 158.702C191.408 158.702 193.51 159.66 194.671 162.127C195.832 164.595 196.045 165.634 198.178 165.634C200.311 165.634 200.164 164.05 198.042 160.55C198.042 160.55 199.954 161.6 200.999 163.576C202.044 165.552 202.589 165.41 203.959 165.41C205.75 165.41 205.63 162.449 202.446 160.515C202.446 160.515 203.152 159.65 207.684 164.182Z" stroke="#1A2E35" stroke-width="1.33333" stroke-miterlimit="10" stroke-linecap="round" stroke-linejoin="round"/>
<path d="M195.251 157.111C195.251 157.111 196.502 157.051 197.287 159.166L195.251 157.111Z" fill="white"/>
<path d="M195.251 157.111C195.251 157.111 196.502 157.051 197.287 159.166" stroke="#1A2E35" stroke-miterlimit="10" stroke-linecap="round" stroke-linejoin="round"/>
<path d="M36.3672 66.0728C30.1991 70.9211 24.2533 76.1871 18.5677 81.8727" stroke="#1A2E35" stroke-miterlimit="10" stroke-linecap="round" stroke-linejoin="round"/>
<path d="M43.1152 60.9994C41.9327 61.8493 40.7578 62.7138 39.5907 63.5927" stroke="#1A2E35" stroke-miterlimit="10" stroke-linecap="round" stroke-linejoin="round"/>
<path d="M49.8535 56.3637C48.641 57.1614 47.4352 57.9737 46.2372 58.8004" stroke="#1A2E35" stroke-miterlimit="10" stroke-linecap="round" stroke-linejoin="round"/>
<path d="M99.3184 32.9632C83.505 37.8917 68.1876 44.8527 53.7773 53.8481" stroke="#1A2E35" stroke-miterlimit="10" stroke-linecap="round" stroke-linejoin="round"/>
<path d="M109.883 29.9909C107.925 30.4831 105.972 31.0062 104.026 31.5602" stroke="#1A2E35" stroke-miterlimit="10" stroke-linecap="round" stroke-linejoin="round"/>
<path d="M120.746 27.5811C118.621 27.9901 116.501 28.4349 114.388 28.9135" stroke="#1A2E35" stroke-miterlimit="10" stroke-linecap="round" stroke-linejoin="round"/>
<path d="M130.428 25.9651C128.594 26.2252 126.765 26.5094 124.937 26.8208" stroke="#1A2E35" stroke-miterlimit="10" stroke-linecap="round" stroke-linejoin="round"/>
<path d="M188.744 26.3546C170.82 23.5717 152.587 23.2603 134.594 25.4195" stroke="#1A2E35" stroke-miterlimit="10" stroke-linecap="round" stroke-linejoin="round"/>
<path d="M196.725 27.7607C195.079 27.4358 193.43 27.1322 191.778 26.8499" stroke="#1A2E35" stroke-miterlimit="10" stroke-linecap="round" stroke-linejoin="round"/>
<path d="M204.465 29.4505C202.818 29.056 201.168 28.6837 199.513 28.3317" stroke="#1A2E35" stroke-miterlimit="10" stroke-linecap="round" stroke-linejoin="round"/>
<path d="M213.984 31.9821C212.305 31.4899 210.619 31.0209 208.929 30.5742" stroke="#1A2E35" stroke-miterlimit="10" stroke-linecap="round" stroke-linejoin="round"/>
<path d="M271.525 59.6437C255.244 48.2289 237.625 39.5564 219.312 33.6252" stroke="#1A2E35" stroke-miterlimit="10" stroke-linecap="round" stroke-linejoin="round"/>
<path d="M279.299 65.3835C277.787 64.2087 276.26 63.058 274.722 61.9335" stroke="#1A2E35" stroke-miterlimit="10" stroke-linecap="round" stroke-linejoin="round"/>
<path d="M287.096 71.7631C285.438 70.3349 283.762 68.9386 282.069 67.5733" stroke="#1A2E35" stroke-miterlimit="10" stroke-linecap="round" stroke-linejoin="round"/>
<path d="M297.982 81.8726C295.714 79.6041 293.404 77.4024 291.055 75.2674" stroke="#1A2E35" stroke-miterlimit="10" stroke-linecap="round" stroke-linejoin="round"/>
<path d="M222.366 46.5505C222.366 59.8353 233.136 70.6051 246.421 70.6051C259.707 70.6051 270.477 59.8353 270.477 46.5505C270.477 33.2647 259.707 22.4958 246.421 22.4958C233.136 22.4958 222.366 33.2647 222.366 46.5505Z" fill="#38BFF2"/>
<g opacity="0.300003">
<g opacity="0.300003">
<path opacity="0.300003" d="M222.735 45.9755C222.735 59.2603 233.505 70.0302 246.79 70.0302C260.076 70.0302 270.846 59.2603 270.846 45.9755C270.846 32.6897 260.076 21.9209 246.79 21.9209C233.505 21.9209 222.735 32.6897 222.735 45.9755Z" fill="white"/>
</g>
</g>
<path d="M222.366 46.5504C222.366 59.8352 233.136 70.605 246.421 70.605C259.707 70.605 270.477 59.8352 270.477 46.5504C270.477 33.2646 259.707 22.4958 246.421 22.4958C233.136 22.4958 222.366 33.2646 222.366 46.5504Z" stroke="#1A2E35" stroke-miterlimit="10" stroke-linecap="round" stroke-linejoin="round"/>
<path d="M293.033 114.268H306.912C313.298 114.268 318.475 109.091 318.475 102.705V88.8267C318.475 82.441 313.298 77.264 306.912 77.264H293.033C286.648 77.264 281.471 82.441 281.471 88.8267V102.705C281.471 109.091 286.648 114.268 293.033 114.268Z" fill="#38BFF2"/>
<path d="M293.033 114.268H306.912C313.298 114.268 318.475 109.091 318.475 102.705V88.8267C318.475 82.441 313.298 77.264 306.912 77.264H293.033C286.648 77.264 281.471 82.441 281.471 88.8267V102.705C281.471 109.091 286.648 114.268 293.033 114.268Z" stroke="#1A2E35" stroke-miterlimit="10" stroke-linecap="round" stroke-linejoin="round"/>
<path d="M313.381 96.6609V94.8721L305.983 91.6811V93.615L311.084 95.7665L305.983 97.9179V99.8518L313.381 96.6609Z" fill="white"/>
<path d="M313.381 96.6609V94.8721L305.983 91.6811V93.615L311.084 95.7665L305.983 97.9179V99.8518L313.381 96.6609Z" stroke="#1A2E35" stroke-miterlimit="10" stroke-linecap="round" stroke-linejoin="round"/>
<path d="M297.786 87.3054H295.49L302.162 104.227H304.457L297.786 87.3054Z" fill="white"/>
<path d="M297.786 87.3054H295.49L302.162 104.227H304.457L297.786 87.3054Z" stroke="#1A2E35" stroke-miterlimit="10" stroke-linecap="round" stroke-linejoin="round"/>
<path d="M293.959 97.9177L288.858 95.7663L293.959 93.6148V91.681L286.562 94.8719V96.6607L293.959 99.8516V97.9177Z" fill="white"/>
<path d="M293.959 97.9177L288.858 95.7663L293.959 93.6148V91.681L286.562 94.8719V96.6607L293.959 99.8516V97.9177Z" stroke="#1A2E35" stroke-miterlimit="10" stroke-linecap="round" stroke-linejoin="round"/>
<path d="M55.2269 41.1076C55.2269 52.4469 64.4196 61.6396 75.758 61.6396C87.0983 61.6396 96.291 52.4469 96.291 41.1076C96.291 29.7673 87.0983 20.5755 75.758 20.5755C64.4196 20.5755 55.2269 29.7673 55.2269 41.1076Z" fill="#38BFF2"/>
<g opacity="0.199997">
<g opacity="0.199997">
<path opacity="0.199997" d="M55.0902 41.5058C55.0902 52.8451 64.2829 62.0378 75.6213 62.0378C86.9616 62.0378 96.1543 52.8451 96.1543 41.5058C96.1543 30.1655 86.9616 20.9737 75.6213 20.9737C64.2829 20.9737 55.0902 30.1655 55.0902 41.5058Z" fill="black"/>
</g>
</g>
<path d="M55.2269 41.1077C55.2269 52.447 64.4196 61.6397 75.758 61.6397C87.0983 61.6397 96.291 52.447 96.291 41.1077C96.291 29.7674 87.0983 20.5756 75.758 20.5756C64.4196 20.5756 55.2269 29.7674 55.2269 41.1077Z" stroke="#1A2E35" stroke-miterlimit="10" stroke-linecap="round" stroke-linejoin="round"/>
<path d="M154.462 45.8526H173.015C180.276 45.8526 186.164 39.9649 186.164 32.7022V14.1504C186.164 6.88773 180.276 1.00001 173.015 1.00001H154.462C147.199 1.00001 141.311 6.88773 141.311 14.1504V32.7022C141.311 39.9649 147.199 45.8526 154.462 45.8526Z" fill="#38BFF2"/>
<path d="M154.462 45.8526H173.015C180.276 45.8526 186.164 39.9649 186.164 32.7022V14.1504C186.164 6.88773 180.276 1.00001 173.015 1.00001H154.462C147.199 1.00001 141.311 6.88773 141.311 14.1504V32.7022C141.311 39.9649 147.199 45.8526 154.462 45.8526Z" stroke="#1A2E35" stroke-miterlimit="10" stroke-linecap="round" stroke-linejoin="round"/>
<path d="M0.998299 84.5317C0.998299 95.8421 10.1659 105.011 21.4772 105.011C32.7875 105.011 41.9551 95.8421 41.9551 84.5317C41.9551 73.2214 32.7875 64.0529 21.4772 64.0529C10.1659 64.0529 0.998299 73.2214 0.998299 84.5317Z" fill="#38BFF2"/>
<g opacity="0.300003">
<g opacity="0.300003">
<path opacity="0.300003" d="M1.53345 84.9454C1.53345 96.2557 10.701 105.424 22.0123 105.424C33.3227 105.424 42.4902 96.2557 42.4902 84.9454C42.4902 73.6351 33.3227 64.4665 22.0123 64.4665C10.701 64.4665 1.53345 73.6351 1.53345 84.9454Z" fill="white"/>
</g>
</g>
<path d="M1.00025 84.5316C1.00025 95.8419 10.1678 105.01 21.4791 105.01C32.7895 105.01 41.957 95.8419 41.957 84.5316C41.957 73.2213 32.7895 64.0528 21.4791 64.0528C10.1678 64.0528 1.00025 73.2213 1.00025 84.5316Z" stroke="#1A2E35" stroke-miterlimit="10" stroke-linecap="round" stroke-linejoin="round"/>
<path d="M263.571 320.349H267.154L268.121 177.962H263.571V320.349Z" fill="#868686"/>
<path d="M263.571 320.349H267.154L268.121 177.962H263.571V320.349Z" stroke="#1A2E35" stroke-width="1.33333" stroke-miterlimit="10" stroke-linecap="round" stroke-linejoin="round"/>
<path d="M259.989 320.349H263.572V177.962H259.022L259.989 320.349Z" fill="#9A9A9A"/>
<path d="M259.989 320.349H263.572V177.962H259.022L259.989 320.349Z" stroke="#1A2E35" stroke-width="1.33333" stroke-miterlimit="10" stroke-linecap="round" stroke-linejoin="round"/>
<path d="M58.8127 177.962H304.615V169.244H58.8127V177.962Z" fill="#1A2E35" stroke="#1A2E35" stroke-width="1.33333" stroke-miterlimit="10" stroke-linecap="round" stroke-linejoin="round"/>
<path d="M7.44307 177.962H62.4805V169.244H7.44307V177.962Z" fill="#868686" stroke="#1A2E35" stroke-width="1.33333" stroke-miterlimit="10" stroke-linecap="round" stroke-linejoin="round"/>
<path d="M47.6588 192.335H292.027V177.962H47.6588V192.335Z" fill="#38BFF2" stroke="#1A2E35" stroke-width="1.33333" stroke-miterlimit="10"/>
<path d="M47.6582 192.335H19.203V177.962H47.6582V192.335Z" fill="#38BFF2"/>
<g opacity="0.300003">
<path opacity="0.300003" d="M47.6602 192.335H19.205V177.962H47.6602V192.335Z" fill="black"/>
</g>
<path d="M47.6582 192.335H19.203V177.962H47.6582V192.335Z" stroke="#1A2E35" stroke-width="1.33333" stroke-miterlimit="10"/>
<path d="M47.6576 320.349H51.2401L52.207 177.962H47.6576V320.349Z" fill="#868686"/>
<path d="M47.6576 320.349H51.2401L52.207 177.962H47.6576V320.349Z" stroke="#1A2E35" stroke-width="1.33333" stroke-miterlimit="10" stroke-linecap="round" stroke-linejoin="round"/>
<path d="M44.0747 320.349H47.6582V177.962H43.1078L44.0747 320.349Z" fill="#9A9A9A"/>
<path d="M44.0747 320.349H47.6582V177.962H43.1078L44.0747 320.349Z" stroke="#1A2E35" stroke-width="1.33333" stroke-miterlimit="10" stroke-linecap="round" stroke-linejoin="round"/>
<path d="M292.026 320.349H295.609L296.576 177.962H292.026V320.349Z" fill="#868686"/>
<path d="M292.026 320.349H295.609L296.576 177.962H292.026V320.349Z" stroke="#1A2E35" stroke-width="1.33333" stroke-miterlimit="10" stroke-linecap="round" stroke-linejoin="round"/>
<path d="M288.442 320.349H292.025V177.962H287.475L288.442 320.349Z" fill="#9A9A9A"/>
<path d="M288.442 320.349H292.025V177.962H287.475L288.442 320.349Z" stroke="#1A2E35" stroke-width="1.33333" stroke-miterlimit="10" stroke-linecap="round" stroke-linejoin="round"/>
<path d="M19.2025 320.349H22.785L23.752 177.962H19.2025V320.349Z" fill="#868686"/>
<path d="M19.2025 320.349H22.785L23.752 177.962H19.2025V320.349Z" stroke="#1A2E35" stroke-width="1.33333" stroke-miterlimit="10" stroke-linecap="round" stroke-linejoin="round"/>
<path d="M15.6196 320.349H19.2031V177.962H14.6527L15.6196 320.349Z" fill="#9A9A9A"/>
<path d="M15.6196 320.349H19.2031V177.962H14.6527L15.6196 320.349Z" stroke="#1A2E35" stroke-width="1.33333" stroke-miterlimit="10" stroke-linecap="round" stroke-linejoin="round"/>
<path d="M145.772 168.278H174.58C175.169 168.278 175.646 167.8 175.646 167.21V164.832L144.704 165.799V167.21C144.704 167.8 145.183 168.278 145.772 168.278Z" fill="#868686"/>
<path d="M145.772 168.278H174.58C175.169 168.278 175.646 167.8 175.646 167.21V164.832L144.704 165.799V167.21C144.704 167.8 145.183 168.278 145.772 168.278Z" stroke="#1A2E35" stroke-width="1.33333" stroke-miterlimit="10" stroke-linecap="round" stroke-linejoin="round"/>
<path d="M178.86 168.278H236.774C237.702 168.278 238.607 167.59 238.889 166.671L251.32 126.31C251.662 125.203 250.973 124.221 249.857 124.221H191.942C191.015 124.221 190.11 124.908 189.827 125.828L177.396 166.188C177.054 167.294 177.743 168.278 178.86 168.278Z" fill="#9A9A9A"/>
<path d="M178.86 168.278H236.774C237.702 168.278 238.607 167.59 238.889 166.671L251.32 126.31C251.662 125.203 250.973 124.221 249.857 124.221H191.942C191.015 124.221 190.11 124.908 189.827 125.828L177.396 166.188C177.054 167.294 177.743 168.278 178.86 168.278Z" stroke="#1A2E35" stroke-width="1.33333" stroke-miterlimit="10" stroke-linecap="round" stroke-linejoin="round"/>
<path d="M174.797 166.188L187.228 125.828C187.511 124.908 188.416 124.221 189.343 124.221H191.945C191.018 124.221 190.113 124.908 189.83 125.828L177.399 166.188C177.057 167.295 177.746 168.277 178.863 168.277H176.261C175.144 168.277 174.455 167.295 174.797 166.188Z" fill="#868686"/>
<path d="M174.797 166.188L187.228 125.828C187.511 124.908 188.416 124.221 189.343 124.221H191.945C191.018 124.221 190.113 124.908 189.83 125.828L177.399 166.188C177.057 167.295 177.746 168.277 178.863 168.277H176.261C175.144 168.277 174.455 167.295 174.797 166.188Z" stroke="#1A2E35" stroke-width="1.33333" stroke-miterlimit="10" stroke-linecap="round" stroke-linejoin="round"/>
<path d="M210.778 146.249C210.536 148.227 211.943 149.831 213.921 149.831C215.899 149.831 217.701 148.227 217.943 146.249C218.186 144.27 216.779 142.666 214.801 142.666C212.823 142.666 211.021 144.27 210.778 146.249Z" fill="white"/>
<path d="M210.778 146.249C210.536 148.227 211.943 149.831 213.921 149.831C215.899 149.831 217.701 148.227 217.943 146.249C218.186 144.27 216.779 142.666 214.801 142.666C212.823 142.666 211.021 144.27 210.778 146.249Z" stroke="#1A2E35" stroke-width="1.33333" stroke-miterlimit="10" stroke-linecap="round" stroke-linejoin="round"/>
<path d="M79.2832 48.1905H79.6574C80.4755 48.1905 80.8959 47.817 80.8959 46.5322V43.0257C80.8959 42.1841 81.1997 41.2963 82.3216 40.9691V40.9228C81.1997 40.5956 80.8959 39.7063 80.8959 38.8654V35.3597C80.8959 34.0742 80.4755 33.7006 79.6574 33.7006H79.2832V31.5963H80.5922C82.0406 31.5963 83.1867 32.4145 83.1867 34.1915V38.4913C83.1867 39.5669 83.4897 39.8941 84.6586 39.8941V41.997C83.4897 41.997 83.1867 42.3243 83.1867 43.3992V47.7003C83.1867 49.476 82.0406 50.2941 80.5922 50.2941H79.2832V48.1905Z" fill="white"/>
<path d="M79.0312 48.4366H79.4286C80.2975 48.4366 80.744 48.0489 80.744 46.7152V43.0752C80.744 42.2016 81.0666 41.2799 82.2581 40.9402V40.8922C81.0666 40.5525 80.744 39.6294 80.744 38.7565V35.1172C80.744 33.7828 80.2975 33.395 79.4286 33.395H79.0312V31.2106H80.4214C81.9597 31.2106 83.1768 32.0599 83.1768 33.9046V38.368C83.1768 39.4846 83.4987 39.8243 84.74 39.8243V42.0073C83.4987 42.0073 83.1768 42.347 83.1768 43.4629V47.9278C83.1768 49.7711 81.9597 50.6204 80.4214 50.6204H79.0312V48.4366Z" stroke="#1A2E35" stroke-miterlimit="10" stroke-linecap="round" stroke-linejoin="round"/>
<path d="M73.0703 48.1905H72.6961C71.878 48.1905 71.4576 47.817 71.4576 46.5322V43.0257C71.4576 42.1841 71.1538 41.2963 70.0319 40.9691V40.9228C71.1538 40.5956 71.4576 39.7063 71.4576 38.8654V35.3597C71.4576 34.0742 71.878 33.7006 72.6961 33.7006H73.0703V31.5963H71.7613C70.3129 31.5963 69.1669 32.4145 69.1669 34.1915V38.4913C69.1669 39.5669 68.8638 39.8941 67.695 39.8941V41.997C68.8638 41.997 69.1669 42.3243 69.1669 43.3992V47.7003C69.1669 49.476 70.3129 50.2941 71.7613 50.2941H73.0703V48.1905Z" fill="white"/>
<path d="M73.3223 48.4366H72.9249C72.056 48.4366 71.6095 48.0489 71.6095 46.7152V43.0752C71.6095 42.2016 71.2869 41.2799 70.0954 40.9402V40.8922C71.2869 40.5525 71.6095 39.6294 71.6095 38.7565V35.1172C71.6095 33.7828 72.056 33.395 72.9249 33.395H73.3223V31.2106H71.9321C70.3938 31.2106 69.1767 32.0599 69.1767 33.9046V38.368C69.1767 39.4846 68.8548 39.8243 67.6135 39.8243V42.0073C68.8548 42.0073 69.1767 42.347 69.1767 43.4629V47.9278C69.1767 49.7711 70.3938 50.6204 71.9321 50.6204H73.3223V48.4366Z" stroke="#1A2E35" stroke-miterlimit="10" stroke-linecap="round" stroke-linejoin="round"/>
<mask id="path-192-outside-1_22104_13032" maskUnits="userSpaceOnUse" x="156.91" y="17.4938" width="18" height="19" fill="black">
<rect fill="white" x="156.91" y="17.4938" width="18" height="19"/>
<path fill-rule="evenodd" clip-rule="evenodd" d="M168.213 29.949V32.4346C168.213 34.1277 165.288 34.56 163.674 34.56H160.792C159.435 34.4639 157.91 34.0196 157.91 32.4346V28.8084C157.91 26.3547 159.899 24.3655 162.353 24.3655H163.206C166.448 24.3655 169.077 21.7366 169.077 18.4938H171.671C172.379 18.6619 173.796 19.9059 173.796 23.537C173.796 27.5152 169.634 28.8683 165.655 28.8683H163.025V29.7689H168.213V29.949ZM166.411 32.7589C166.729 32.7589 166.988 32.5008 166.988 32.1825C166.988 31.8642 166.729 31.6061 166.411 31.6061C166.093 31.6061 165.835 31.8642 165.835 32.1825C165.835 32.5008 166.093 32.7589 166.411 32.7589Z"/>
</mask>
<path fill-rule="evenodd" clip-rule="evenodd" d="M168.213 29.949V32.4346C168.213 34.1277 165.288 34.56 163.674 34.56H160.792C159.435 34.4639 157.91 34.0196 157.91 32.4346V28.8084C157.91 26.3547 159.899 24.3655 162.353 24.3655H163.206C166.448 24.3655 169.077 21.7366 169.077 18.4938H171.671C172.379 18.6619 173.796 19.9059 173.796 23.537C173.796 27.5152 169.634 28.8683 165.655 28.8683H163.025V29.7689H168.213V29.949ZM166.411 32.7589C166.729 32.7589 166.988 32.5008 166.988 32.1825C166.988 31.8642 166.729 31.6061 166.411 31.6061C166.093 31.6061 165.835 31.8642 165.835 32.1825C165.835 32.5008 166.093 32.7589 166.411 32.7589Z" fill="white"/>
<path d="M160.792 34.56L160.721 35.5575L160.757 35.56H160.792V34.56ZM169.077 18.4938V17.4938H168.077V18.4938H169.077ZM171.671 18.4938L171.902 17.5208L171.788 17.4938H171.671V18.4938ZM163.025 28.8683V27.8683H162.025V28.8683H163.025ZM163.025 29.7689H162.025V30.7689H163.025V29.7689ZM168.213 29.7689H169.213V28.7689H168.213V29.7689ZM169.213 32.4346V29.949H167.213V32.4346H169.213ZM163.674 35.56C164.543 35.56 165.798 35.4464 166.873 35.0782C167.857 34.741 169.213 33.9896 169.213 32.4346H167.213C167.213 32.5727 167.106 32.8839 166.224 33.1862C165.433 33.4574 164.418 33.56 163.674 33.56V35.56ZM160.792 35.56H163.674V33.56H160.792V35.56ZM156.91 32.4346C156.91 33.6298 157.523 34.4441 158.339 34.9195C159.087 35.356 159.99 35.5057 160.721 35.5575L160.863 33.5624C160.237 33.5182 159.699 33.3977 159.346 33.1918C159.06 33.0248 158.91 32.8244 158.91 32.4346H156.91ZM156.91 28.8084V32.4346H158.91V28.8084H156.91ZM162.353 23.3655C159.347 23.3655 156.91 25.8024 156.91 28.8084H158.91C158.91 26.907 160.452 25.3655 162.353 25.3655V23.3655ZM163.206 23.3655H162.353V25.3655H163.206V23.3655ZM168.077 18.4938C168.077 21.1844 165.896 23.3655 163.206 23.3655V25.3655C167.001 25.3655 170.077 22.2889 170.077 18.4938H168.077ZM171.671 17.4938H169.077V19.4938H171.671V17.4938ZM174.796 23.537C174.796 19.7324 173.292 17.8508 171.902 17.5208L171.44 19.4668C171.433 19.465 171.516 19.4867 171.655 19.605C171.789 19.7179 171.959 19.9074 172.128 20.2076C172.466 20.8077 172.796 21.8467 172.796 23.537H174.796ZM165.655 29.8683C167.732 29.8683 169.954 29.5192 171.695 28.5732C173.49 27.5982 174.796 25.9616 174.796 23.537H172.796C172.796 25.0906 172.022 26.1197 170.74 26.8158C169.406 27.5409 167.557 27.8683 165.655 27.8683V29.8683ZM163.025 29.8683H165.655V27.8683H163.025V29.8683ZM164.025 29.7689V28.8683H162.025V29.7689H164.025ZM168.213 28.7689H163.025V30.7689H168.213V28.7689ZM169.213 29.949V29.7689H167.213V29.949H169.213ZM165.988 32.1825C165.988 31.9485 166.177 31.7589 166.411 31.7589V33.7589C167.282 33.7589 167.988 33.0531 167.988 32.1825H165.988ZM166.411 32.6061C166.177 32.6061 165.988 32.4165 165.988 32.1825H167.988C167.988 31.3119 167.282 30.6061 166.411 30.6061V32.6061ZM166.835 32.1825C166.835 32.4165 166.645 32.6061 166.411 32.6061V30.6061C165.541 30.6061 164.835 31.3119 164.835 32.1825H166.835ZM166.411 31.7589C166.645 31.7589 166.835 31.9485 166.835 32.1825H164.835C164.835 33.0531 165.541 33.7589 166.411 33.7589V31.7589Z" fill="#1A2E35" mask="url(#path-192-outside-1_22104_13032)"/>
<mask id="path-194-outside-2_22104_13032" maskUnits="userSpaceOnUse" x="151.068" y="11.0845" width="18" height="19" fill="black">
<rect fill="white" x="151.068" y="11.0845" width="18" height="19"/>
<path fill-rule="evenodd" clip-rule="evenodd" d="M157.766 17.6293L157.766 15.1437C157.766 13.4506 160.691 13.0184 162.305 13.0184L165.187 13.0184C166.543 13.1144 168.068 13.5587 168.068 15.1437L168.068 18.7699C168.068 21.2236 166.079 23.2128 163.626 23.2128L162.773 23.2128C159.53 23.2128 156.901 25.8417 156.901 29.0845L154.308 29.0845C153.599 28.9164 152.182 27.6724 152.182 24.0413C152.182 20.0631 156.345 18.71 160.323 18.71L162.953 18.71L162.953 17.8094L157.766 17.8094L157.766 17.6293ZM159.567 14.8195C159.249 14.8195 158.991 15.0776 158.991 15.3959C158.991 15.7142 159.249 15.9723 159.567 15.9723C159.886 15.9723 160.144 15.7142 160.144 15.3959C160.144 15.0776 159.886 14.8195 159.567 14.8195Z"/>
</mask>
<path fill-rule="evenodd" clip-rule="evenodd" d="M157.766 17.6293L157.766 15.1437C157.766 13.4506 160.691 13.0184 162.305 13.0184L165.187 13.0184C166.543 13.1144 168.068 13.5587 168.068 15.1437L168.068 18.7699C168.068 21.2236 166.079 23.2128 163.626 23.2128L162.773 23.2128C159.53 23.2128 156.901 25.8417 156.901 29.0845L154.308 29.0845C153.599 28.9164 152.182 27.6724 152.182 24.0413C152.182 20.0631 156.345 18.71 160.323 18.71L162.953 18.71L162.953 17.8094L157.766 17.8094L157.766 17.6293ZM159.567 14.8195C159.249 14.8195 158.991 15.0776 158.991 15.3959C158.991 15.7142 159.249 15.9723 159.567 15.9723C159.886 15.9723 160.144 15.7142 160.144 15.3959C160.144 15.0776 159.886 14.8195 159.567 14.8195Z" fill="white"/>
<path d="M157.766 15.1437L156.766 15.1437L157.766 15.1437ZM157.766 17.6293L158.766 17.6293L157.766 17.6293ZM165.187 13.0184L165.257 12.0208L165.222 12.0184L165.187 12.0184L165.187 13.0184ZM168.068 15.1437L167.068 15.1437L168.068 15.1437ZM168.068 18.7699L169.068 18.7699L168.068 18.7699ZM156.901 29.0845L156.901 30.0845L157.901 30.0845L157.901 29.0845L156.901 29.0845ZM154.308 29.0845L154.077 30.0575L154.191 30.0845L154.308 30.0845L154.308 29.0845ZM162.953 18.71L162.953 19.71L163.953 19.71L163.953 18.71L162.953 18.71ZM162.953 17.8094L163.953 17.8094L163.953 16.8094L162.953 16.8094L162.953 17.8094ZM157.766 17.8094L156.766 17.8094L156.766 18.8094L157.766 18.8094L157.766 17.8094ZM156.766 15.1437L156.766 17.6293L158.766 17.6293L158.766 15.1437L156.766 15.1437ZM162.305 12.0184C161.435 12.0184 160.18 12.1319 159.106 12.5001C158.122 12.8373 156.766 13.5888 156.766 15.1437L158.766 15.1437C158.766 15.0056 158.872 14.6944 159.754 14.3921C160.546 14.1209 161.56 14.0184 162.305 14.0184L162.305 12.0184ZM165.187 12.0184L162.305 12.0184L162.305 14.0184L165.187 14.0184L165.187 12.0184ZM169.068 15.1437C169.068 13.9485 168.455 13.1342 167.64 12.6588C166.891 12.2223 165.988 12.0726 165.257 12.0208L165.116 14.0159C165.741 14.0601 166.279 14.1806 166.633 14.3865C166.919 14.5536 167.068 14.7539 167.068 15.1437L169.068 15.1437ZM169.068 18.7699L169.068 15.1437L167.068 15.1437L167.068 18.7699L169.068 18.7699ZM163.626 24.2128C166.632 24.2128 169.068 21.7759 169.068 18.7699L167.068 18.7699C167.068 20.6713 165.527 22.2128 163.626 22.2128L163.626 24.2128ZM162.773 24.2128L163.626 24.2128L163.626 22.2128L162.773 22.2128L162.773 24.2128ZM157.901 29.0845C157.901 26.394 160.082 24.2128 162.773 24.2128L162.773 22.2128C158.978 22.2128 155.901 25.2894 155.901 29.0845L157.901 29.0845ZM154.308 30.0845L156.901 30.0845L156.901 28.0845L154.308 28.0845L154.308 30.0845ZM151.182 24.0413C151.182 27.846 152.686 29.7275 154.077 30.0575L154.539 28.1116C154.546 28.1133 154.463 28.0916 154.323 27.9733C154.19 27.8604 154.02 27.6709 153.851 27.3707C153.512 26.7706 153.182 25.7316 153.182 24.0413L151.182 24.0413ZM160.323 17.71C158.247 17.71 156.025 18.0591 154.283 19.0051C152.489 19.9801 151.182 21.6167 151.182 24.0413L153.182 24.0413C153.182 22.4877 153.957 21.4586 155.238 20.7625C156.573 20.0374 158.421 19.71 160.323 19.71L160.323 17.71ZM162.953 17.71L160.323 17.71L160.323 19.71L162.953 19.71L162.953 17.71ZM161.953 17.8094L161.953 18.71L163.953 18.71L163.953 17.8094L161.953 17.8094ZM157.766 18.8094L162.953 18.8094L162.953 16.8094L157.766 16.8094L157.766 18.8094ZM156.766 17.6293L156.766 17.8094L158.766 17.8094L158.766 17.6293L156.766 17.6293ZM159.991 15.3959C159.991 15.6299 159.801 15.8195 159.567 15.8195L159.567 13.8195C158.697 13.8195 157.991 14.5253 157.991 15.3959L159.991 15.3959ZM159.567 14.9723C159.801 14.9723 159.991 15.1619 159.991 15.3959L157.991 15.3959C157.991 16.2665 158.697 16.9723 159.567 16.9723L159.567 14.9723ZM159.144 15.3959C159.144 15.1619 159.333 14.9723 159.567 14.9723L159.567 16.9723C160.438 16.9723 161.144 16.2665 161.144 15.3959L159.144 15.3959ZM159.567 15.8195C159.333 15.8195 159.144 15.6299 159.144 15.3959L161.144 15.3959C161.144 14.5253 160.438 13.8195 159.567 13.8195L159.567 15.8195Z" fill="#1A2E35" mask="url(#path-194-outside-2_22104_13032)"/>
<rect x="13.4512" y="75.239" width="16.9845" height="4.42525" rx="1.5" fill="white" stroke="#1A2E35"/>
<rect x="13.4512" y="82.0895" width="16.9845" height="5.567" rx="1.5" fill="white" stroke="#1A2E35"/>
<rect x="13.4512" y="90.0818" width="16.9845" height="4.42525" rx="1.5" fill="white" stroke="#1A2E35"/>
<path d="M246.922 34C247.078 34.012 247.213 34.0422 247.304 34.0762C247.327 34.0955 247.361 34.1237 247.405 34.1631C247.502 34.2494 247.637 34.3744 247.806 34.5342C248.143 34.8533 248.608 35.3023 249.157 35.8398C250.256 36.9145 251.69 38.337 253.12 39.7676C254.55 41.1981 255.973 42.6361 257.052 43.7402C257.591 44.2924 258.043 44.7595 258.365 45.1006C258.527 45.2715 258.654 45.409 258.742 45.5078C258.786 45.5573 258.818 45.594 258.839 45.6191C258.951 45.8653 258.957 46.2541 258.842 46.5234C258.836 46.5317 258.823 46.5501 258.8 46.5791C258.753 46.6371 258.681 46.7195 258.578 46.832C258.373 47.0569 258.061 47.3855 257.611 47.8467C257.162 48.3073 256.579 48.8975 255.835 49.6455L253.091 52.3916C250.745 54.7331 249.307 56.1589 248.431 57.0078C247.992 57.4329 247.698 57.7081 247.504 57.8799C247.406 57.9661 247.34 58.0204 247.297 58.0527C247.291 58.0571 247.286 58.0604 247.281 58.0635C247.153 58.1001 246.995 58.1185 246.835 58.1104C246.675 58.1022 246.544 58.0689 246.458 58.0312C246.435 58.0118 246.403 57.9841 246.361 57.9463C246.269 57.8624 246.139 57.7412 245.977 57.5869C245.652 57.279 245.203 56.8458 244.671 56.3271C243.606 55.2898 242.21 53.9147 240.811 52.5273C239.411 51.1401 238.01 49.741 236.934 48.6553C236.395 48.1123 235.939 47.649 235.605 47.3047C235.439 47.1325 235.304 46.9912 235.206 46.8857C235.157 46.8329 235.118 46.7898 235.09 46.7578L235.051 46.7139C234.854 46.4452 234.781 46.1824 234.817 45.8867L234.84 45.7578L234.891 45.5215L238.725 41.6787L242.309 38.0859L243.37 39.1475C243.867 39.6437 244.209 39.9971 244.423 40.2324C244.482 40.2973 244.525 40.3525 244.561 40.3945C244.557 40.42 244.552 40.4445 244.549 40.4668C244.534 40.5836 244.525 40.7144 244.521 40.8428C244.517 41.0215 244.521 41.2372 244.547 41.4209L244.581 41.5918C244.705 42.0526 245.035 42.5352 245.424 42.8486L245.594 42.9717L245.688 43.0332V49.3477L245.597 49.4053C244.645 49.997 244.274 51.2075 244.654 52.251L244.74 52.457C245.135 53.2924 245.859 53.7881 246.761 53.8486L246.943 53.8545C247.149 53.855 247.332 53.8491 247.521 53.8008C247.615 53.7769 247.704 53.744 247.792 53.7051L248.062 53.5713C249.61 52.7415 249.818 50.7285 248.488 49.583H248.487L248.332 49.4482V44.1113L248.755 44.5342C249.366 45.1451 249.663 45.4464 249.805 45.6152C249.79 45.6843 249.781 45.7533 249.774 45.8105C249.767 45.8723 249.761 45.9385 249.757 46.0059L249.75 46.208C249.749 46.3953 249.76 46.565 249.805 46.7461C249.827 46.8346 249.855 46.9199 249.89 47.0059L250.009 47.2695C250.875 49.0289 253.288 49.0734 254.249 47.4258L254.337 47.2617C254.51 46.9107 254.612 46.5621 254.612 46.1934C254.613 45.9168 254.555 45.6517 254.454 45.3887L254.338 45.126C254.11 44.6636 253.787 44.2961 253.363 44.0596C252.993 43.8532 252.575 43.7614 252.127 43.7676L251.934 43.7764L251.666 43.7959L250.473 42.5977L249.308 41.4268L249.324 41.3525C249.495 40.5464 249.168 39.7659 248.648 39.2402C248.162 38.7475 247.449 38.4203 246.697 38.5176L246.546 38.543L246.49 38.5537L245.248 37.3086L244.168 36.2266L245.128 35.2754C245.664 34.7436 245.994 34.4254 246.214 34.2334C246.33 34.1322 246.401 34.0796 246.441 34.0527L246.484 34.0264C246.584 33.9993 246.743 33.9863 246.922 34Z" fill="white" stroke="#1A2E35"/>
</svg>
