<svg width="377" height="321" viewBox="0 0 377 321" fill="none" xmlns="http://www.w3.org/2000/svg">
<path d="M318.841 99.2185C322.849 98.2832 326.402 96.1758 329.123 93.2721L335.696 95.4951L338.976 89.8145L333.767 85.2379C334.341 83.3571 334.645 81.3653 334.645 79.2961C334.645 77.2325 334.341 75.2361 333.767 73.36L338.976 68.7778L335.696 63.0971L329.123 65.3202C326.402 62.4174 322.849 60.31 318.841 59.3784L317.476 52.5788H314.197" stroke="#1A2E35" stroke-width="1.33333" stroke-miterlimit="10"/>
<path d="M310.916 52.5786L309.556 59.3782C305.548 60.3097 301.99 62.4162 299.269 65.3199L292.696 63.0969L289.416 68.7776L294.625 73.3588C294.056 75.235 293.747 77.2314 293.747 79.2959C293.747 81.3651 294.056 83.3559 294.625 85.2367L289.416 89.8142L292.696 95.4949L299.269 93.2718C301.99 96.1746 305.548 98.282 309.556 99.2182L310.916 106.018H317.474L318.839 99.2182" stroke="#1A2E35" stroke-width="1.33333" stroke-miterlimit="10"/>
<path d="M313.78 90.2353C302.087 89.4176 299.89 72.3924 311.578 69.402" stroke="#1A2E35" stroke-width="1.33333" stroke-miterlimit="10"/>
<path d="M321.173 71.7436C326.992 77.0755 325.15 87.4801 317.395 89.83" stroke="#1A2E35" stroke-width="1.33333" stroke-miterlimit="10"/>
<path d="M315.527 69.1588C316.542 69.2856 317.537 69.5579 318.471 69.9738" stroke="#1A2E35" stroke-width="1.33333" stroke-miterlimit="10"/>
<path d="M353.676 104.395L355.056 102.739C357.581 103.434 360.305 103.394 362.877 102.542L365.978 105.892" stroke="#1A2E35" stroke-width="1.33333" stroke-miterlimit="10"/>
<path d="M348.579 78.5391L349.178 80.1709C347.247 82.0713 345.973 84.478 345.445 87.0433L340.988 88.055L341.099 92.3724L345.6 93.1547C345.925 94.4033 346.439 95.6314 347.148 96.7895C347.86 97.9514 348.717 98.964 349.684 99.8247L348.332 104.185L352.127 106.248" stroke="#1A2E35" stroke-width="1.33333" stroke-miterlimit="10"/>
<path d="M365.975 105.893L369.658 103.638L368.087 99.3505C370.016 97.4473 371.287 95.0424 371.816 92.4772L376.272 91.4655L376.16 87.1481L371.662 86.3685C371.338 85.1153 370.823 83.8919 370.113 82.731C369.403 81.571 368.546 80.5546 367.579 79.6985L368.928 75.3355L365.134 73.2729L362.207 76.7808C359.681 76.0861 356.961 76.1244 354.39 76.9794L351.287 73.63L347.604 75.8847" stroke="#1A2E35" stroke-width="1.33333" stroke-miterlimit="10"/>
<path d="M365.43 88.1723C366.703 93.5313 361.615 98.6879 356.236 96.5115C351.105 94.4367 350.359 86.9135 355.118 84.0219" stroke="#1A2E35" stroke-width="1.33333" stroke-miterlimit="10"/>
<path d="M361.027 83.3659C362.101 83.7314 363.082 84.3496 363.855 85.1833" stroke="#1A2E35" stroke-width="1.33333" stroke-miterlimit="10"/>
<path d="M65.4922 194.206L72.4951 201.21C71.9235 203.669 72.5883 206.36 74.5064 208.278C76.4245 210.195 79.1129 210.86 81.5737 210.288L77.1752 205.889L78.3669 201.44L82.8167 200.247L87.2152 204.646C87.7877 202.186 87.1229 199.496 85.2057 197.578C83.2866 195.66 80.5974 194.995 78.1375 195.568L71.6876 189.118" stroke="#1A2E35" stroke-width="1.33333" stroke-miterlimit="10"/>
<path d="M61.438 178.87L55.0104 172.441C55.582 169.981 54.9172 167.292 53 165.373C51.0819 163.456 48.3926 162.792 45.9318 163.364L50.3303 167.763L49.1386 172.212L44.6888 173.404L40.2894 169.005C39.7187 171.466 40.3826 174.155 42.3007 176.073C44.2189 177.991 46.9081 178.656 49.3689 178.084L55.7965 184.512" stroke="#1A2E35" stroke-width="1.33333" stroke-miterlimit="10"/>
<path d="M68.6555 185.632L77.6184 176.669C78.0586 176.228 78.564 175.859 79.1179 175.573L80.9222 174.64L87.4132 167.222L83.356 163.165L75.9381 169.656L75.0056 171.461C74.7194 172.014 74.3501 172.519 73.9091 172.96L66.8008 180.068" stroke="#1A2E35" stroke-width="1.33333" stroke-miterlimit="10"/>
<path d="M44.8035 209.139C46.1146 209.832 47.463 209.838 48.7004 208.601L64.2317 193.07C65.0933 192.208 65.346 191.292 65.1894 190.373L67.8823 187.68L68.0465 187.844C68.4344 188.231 69.0694 188.232 69.4564 187.844C69.8443 187.457 69.8443 186.822 69.4564 186.434L64.144 181.121C63.7571 180.733 63.1221 180.733 62.7341 181.121C62.3462 181.509 62.3462 182.144 62.7341 182.532L62.8983 182.696L60.2062 185.389C59.2858 185.233 58.3701 185.485 57.5085 186.348L41.9772 201.879C41.1613 202.695 40.8862 203.56 40.9925 204.43" stroke="#1A2E35" stroke-width="1.33333" stroke-miterlimit="10"/>
<path d="M41.6113 206.078C41.9433 206.622 42.3881 207.158 42.9037 207.674C43.5154 208.285 44.1551 208.796 44.8023 209.139" stroke="#1A2E35" stroke-width="1.33333" stroke-miterlimit="10"/>
<path d="M46.3906 204.43L49.1013 201.719" stroke="#1A2E35" stroke-width="1.33333" stroke-miterlimit="10"/>
<path d="M52.7695 198.051L64.2352 186.341" stroke="#1A2E35" stroke-width="1.33333" stroke-miterlimit="10"/>
<path d="M303.03 0.000274658H54.4277V161.509H303.03V0.000274658Z" fill="white"/>
<path d="M303.03 4.57764e-05H54.4277V161.509H80.7114H122.385H303.03V4.57764e-05Z" fill="#C0C0C0"/>
<path d="M54.4277 21.129H303.03V-1.14441e-05H54.4277V21.129Z" fill="white"/>
<path d="M54.4277 21.129H303.03V-1.14441e-05H54.4277V21.129Z" fill="#767676"/>
<path d="M295.407 17.7633H285.889C284.542 17.7633 283.449 16.6714 283.449 15.3239V5.80521C283.449 4.45778 284.542 3.36585 285.889 3.36585H295.407C296.755 3.36585 297.847 4.45778 297.847 5.80521V15.3239C297.847 16.6714 296.755 17.7633 295.407 17.7633Z" fill="white"/>
<path d="M277.741 17.7633H268.269C266.91 17.7633 265.807 16.6602 265.807 15.2997V5.82852C265.807 4.46804 266.91 3.36585 268.269 3.36585H277.741C279.102 3.36585 280.205 4.46804 280.205 5.82852V15.2997C280.205 16.6602 279.102 17.7633 277.741 17.7633Z" fill="white"/>
<path d="M260.119 17.7633H250.602C249.255 17.7633 248.162 16.6714 248.162 15.323V5.80614C248.162 4.45778 249.255 3.36585 250.602 3.36585H260.119C261.467 3.36585 262.56 4.45778 262.56 5.80614V15.323C262.56 16.6714 261.467 17.7633 260.119 17.7633Z" fill="white"/>
<path d="M63.75 35.3179V147.321C63.75 150.007 65.9273 152.184 68.6129 152.184H288.839C291.524 152.184 293.702 150.007 293.702 147.321V35.3179C293.702 32.6324 291.524 30.4541 288.839 30.4541H68.6129C65.9273 30.4541 63.75 32.6324 63.75 35.3179Z" fill="#1A2E35"/>
<path d="M63.75 35.3179V147.321C63.75 150.007 65.9273 152.184 68.6129 152.184H288.839C291.524 152.184 293.702 150.007 293.702 147.321V35.3179C293.702 32.6324 291.524 30.4541 288.839 30.4541H68.6129C65.9273 30.4541 63.75 32.6324 63.75 35.3179Z" stroke="#1A2E35" stroke-width="1.33333" stroke-miterlimit="10" stroke-linecap="round" stroke-linejoin="round"/>
<path d="M287.561 13.6526L293.737 7.47591" stroke="#1A2E35" stroke-width="1.33333" stroke-miterlimit="10" stroke-linecap="round" stroke-linejoin="round"/>
<path d="M287.561 7.47591L293.737 13.6526" stroke="#1A2E35" stroke-width="1.33333" stroke-miterlimit="10" stroke-linecap="round" stroke-linejoin="round"/>
<path d="M277.122 14.6821H268.887V9.24388H277.122V14.6821Z" stroke="#1A2E35" stroke-width="1.33333" stroke-miterlimit="10" stroke-linecap="round" stroke-linejoin="round"/>
<path d="M259.478 14.6828H251.242" stroke="#1A2E35" stroke-width="1.33333" stroke-miterlimit="10" stroke-linecap="round" stroke-linejoin="round"/>
<path d="M279.24 113.204H262.898C261.868 113.204 261.033 112.368 261.033 111.339C261.033 110.309 261.868 109.474 262.898 109.474H279.24C280.269 109.474 281.105 110.309 281.105 111.339C281.105 112.368 280.269 113.204 279.24 113.204Z" fill="#767676"/>
<path d="M279.241 126.103H233.615C232.585 126.103 231.75 125.267 231.75 124.238C231.75 123.209 232.585 122.373 233.615 122.373H279.241C280.27 122.373 281.106 123.209 281.106 124.238C281.106 125.267 280.27 126.103 279.241 126.103Z" fill="#767676"/>
<path d="M279.24 139.002H178.726C177.697 139.002 176.861 138.167 176.861 137.137C176.861 136.108 177.697 135.272 178.726 135.272H279.24C280.269 135.272 281.105 136.108 281.105 137.137C281.105 138.167 280.269 139.002 279.24 139.002Z" fill="#767676"/>
<path d="M80.9992 100.304H73.3864C72.3561 100.304 71.5215 99.4688 71.5215 98.4394C71.5215 97.4099 72.3561 96.5744 73.3864 96.5744H80.9992C82.0286 96.5744 82.8641 97.4099 82.8641 98.4394C82.8641 99.4688 82.0286 100.304 80.9992 100.304Z" fill="#C0C0C0"/>
<path d="M80.9992 113.204H73.3864C72.3561 113.204 71.5215 112.368 71.5215 111.339C71.5215 110.309 72.3561 109.474 73.3864 109.474H80.9992C82.0286 109.474 82.8641 110.309 82.8641 111.339C82.8641 112.368 82.0286 113.204 80.9992 113.204Z" fill="#C0C0C0"/>
<path d="M80.9992 126.103H73.3864C72.3561 126.103 71.5215 125.267 71.5215 124.238C71.5215 123.209 72.3561 122.373 73.3864 122.373H80.9992C82.0286 122.373 82.8641 123.209 82.8641 124.238C82.8641 125.267 82.0286 126.103 80.9992 126.103Z" fill="#C0C0C0"/>
<path d="M80.9992 139.002H73.3864C72.3561 139.002 71.5215 138.167 71.5215 137.137C71.5215 136.108 72.3561 135.273 73.3864 135.273H80.9992C82.0286 135.273 82.8641 136.108 82.8641 137.137C82.8641 138.167 82.0286 139.002 80.9992 139.002Z" fill="#C0C0C0"/>
<g opacity="0.699997">
<g opacity="0.699997">
<path opacity="0.699997" d="M81.0011 100.304H73.3884C72.358 100.304 71.5234 99.4682 71.5234 98.4388C71.5234 97.4093 72.358 96.5738 73.3884 96.5738H81.0011C82.0306 96.5738 82.8661 97.4093 82.8661 98.4388C82.8661 99.4682 82.0306 100.304 81.0011 100.304Z" fill="#C0C0C0"/>
</g>
</g>
<g opacity="0.699997">
<g opacity="0.699997">
<path opacity="0.699997" d="M81.0011 113.204H73.3884C72.358 113.204 71.5234 112.369 71.5234 111.339C71.5234 110.31 72.358 109.474 73.3884 109.474H81.0011C82.0306 109.474 82.8661 110.31 82.8661 111.339C82.8661 112.369 82.0306 113.204 81.0011 113.204Z" fill="#C0C0C0"/>
</g>
</g>
<g opacity="0.699997">
<g opacity="0.699997">
<path opacity="0.699997" d="M81.0011 126.103H73.3884C72.358 126.103 71.5234 125.267 71.5234 124.238C71.5234 123.209 72.358 122.373 73.3884 122.373H81.0011C82.0306 122.373 82.8661 123.209 82.8661 124.238C82.8661 125.267 82.0306 126.103 81.0011 126.103Z" fill="#C0C0C0"/>
</g>
</g>
<g opacity="0.699997">
<g opacity="0.699997">
<path opacity="0.699997" d="M81.0011 139.002H73.3884C72.358 139.002 71.5234 138.167 71.5234 137.137C71.5234 136.108 72.358 135.273 73.3884 135.273H81.0011C82.0306 135.273 82.8661 136.108 82.8661 137.137C82.8661 138.167 82.0306 139.002 81.0011 139.002Z" fill="#C0C0C0"/>
</g>
</g>
<path d="M233.615 87.4055H73.3864C72.357 87.4055 71.5215 86.57 71.5215 85.5405C71.5215 84.5111 72.357 83.6756 73.3864 83.6756H233.615C234.644 83.6756 235.48 84.5111 235.48 85.5405C235.48 86.57 234.644 87.4055 233.615 87.4055Z" fill="#C0C0C0"/>
<path d="M279.24 61.6068H262.898C261.868 61.6068 261.033 60.7713 261.033 59.7418C261.033 58.7123 261.868 57.8768 262.898 57.8768H279.24C280.269 57.8768 281.105 58.7123 281.105 59.7418C281.105 60.7713 280.269 61.6068 279.24 61.6068Z" fill="#C0C0C0"/>
<path d="M256.058 61.6068H240.451C239.421 61.6068 238.586 60.7713 238.586 59.7418C238.586 58.7123 239.421 57.8768 240.451 57.8768H256.058C257.087 57.8768 257.923 58.7123 257.923 59.7418C257.923 60.7713 257.087 61.6068 256.058 61.6068Z" fill="#C0C0C0"/>
<path d="M233.615 61.6068H73.3864C72.357 61.6068 71.5215 60.7713 71.5215 59.7418C71.5215 58.7123 72.357 57.8768 73.3864 57.8768H233.615C234.644 57.8768 235.48 58.7123 235.48 59.7418C235.48 60.7713 234.644 61.6068 233.615 61.6068Z" fill="#C0C0C0"/>
<path d="M279.241 100.304H262.898C261.868 100.304 261.033 99.4688 261.033 98.4394C261.033 97.4099 261.868 96.5744 262.898 96.5744H279.241C280.27 96.5744 281.106 97.4099 281.106 98.4394C281.106 99.4688 280.27 100.304 279.241 100.304Z" fill="#BBBBBB"/>
<path d="M256.061 100.304H89.3923C88.3628 100.304 87.5273 99.4688 87.5273 98.4394C87.5273 97.4099 88.3628 96.5744 89.3923 96.5744H256.061C257.091 96.5744 257.926 97.4099 257.926 98.4394C257.926 99.4688 257.091 100.304 256.061 100.304Z" fill="#BBBBBB"/>
<path d="M137.261 113.204H89.3942C88.3639 113.204 87.5293 112.368 87.5293 111.339C87.5293 110.309 88.3639 109.474 89.3942 109.474H137.261C138.291 109.474 139.126 110.309 139.126 111.339C139.126 112.368 138.291 113.204 137.261 113.204Z" fill="#BBBBBB"/>
<path d="M137.259 126.103H89.3923C88.3619 126.103 87.5273 125.267 87.5273 124.238C87.5273 123.209 88.3619 122.373 89.3923 122.373H137.259C138.289 122.373 139.124 123.209 139.124 124.238C139.124 125.267 138.289 126.103 137.259 126.103Z" fill="#BBBBBB"/>
<path d="M137.259 139.002H89.3923C88.3619 139.002 87.5273 138.167 87.5273 137.137C87.5273 136.108 88.3619 135.273 89.3923 135.273H137.259C138.289 135.273 139.124 136.108 139.124 137.137C139.124 138.167 138.289 139.002 137.259 139.002Z" fill="#BBBBBB"/>
<path d="M105.825 304.435C105.825 304.435 100.933 312.852 102.859 313.157C104.785 313.46 108.815 306.183 108.815 306.183L119.864 303.254L111.542 302.395L105.825 304.435Z" fill="white"/>
<path d="M105.825 304.435C105.825 304.435 100.933 312.852 102.859 313.157C104.785 313.46 108.815 306.183 108.815 306.183L119.864 303.254L111.542 302.395L105.825 304.435Z" stroke="#1A2E35" stroke-width="1.33333" stroke-miterlimit="10" stroke-linecap="round" stroke-linejoin="round"/>
<g opacity="0.300003">
<g opacity="0.300003">
<path opacity="0.300003" d="M105.823 304.436C105.823 304.436 100.931 312.853 102.858 313.158C104.783 313.461 108.813 306.184 108.813 306.184L119.862 303.255L111.54 302.396L105.823 304.436Z" fill="black"/>
</g>
<g opacity="0.300003">
<path opacity="0.300003" d="M105.823 304.436C105.823 304.436 100.931 312.853 102.858 313.158C104.783 313.461 108.813 306.184 108.813 306.184L119.862 303.255L111.54 302.396L105.823 304.436Z" stroke="#1A2E35" stroke-width="1.33333" stroke-miterlimit="10" stroke-linecap="round" stroke-linejoin="round"/>
</g>
</g>
<path d="M109.544 298.696C109.544 298.696 102.703 297.068 100.815 300.28C98.926 303.494 93.388 313.003 95.4646 314.092C97.5403 315.181 99.3493 311.665 99.3493 311.665L109.544 298.696Z" fill="white"/>
<path d="M109.544 298.696C109.544 298.696 102.703 297.068 100.815 300.28C98.926 303.494 93.388 313.003 95.4646 314.092C97.5403 315.181 99.3493 311.665 99.3493 311.665L109.544 298.696Z" stroke="#1A2E35" stroke-width="1.33333" stroke-miterlimit="10" stroke-linecap="round" stroke-linejoin="round"/>
<path d="M137.538 308.447C137.538 308.447 130.672 311.042 123.512 309.921L115.724 312.508C115.724 312.508 108.88 315.879 105.697 314.179C102.513 312.48 113.81 308.733 113.81 308.733C113.81 308.733 121.409 305.445 119.139 304.656C116.87 303.865 108.298 304.014 106.612 305.307C104.927 306.599 100.511 314.969 97.325 314.492C94.1387 314.015 98.6715 309.457 99.8156 307.702C100.961 305.947 103.529 298.95 108.734 298.659C113.94 298.367 131.456 299.264 131.456 299.264L152.053 297.064L156.913 308.78L137.538 308.447Z" fill="white"/>
<path d="M137.538 308.447C137.538 308.447 130.672 311.042 123.512 309.921L115.724 312.508C115.724 312.508 108.88 315.879 105.697 314.179C102.513 312.48 113.81 308.733 113.81 308.733C113.81 308.733 121.409 305.445 119.139 304.656C116.87 303.865 108.298 304.014 106.612 305.307C104.927 306.599 100.511 314.969 97.325 314.492C94.1387 314.015 98.6715 309.457 99.8156 307.702C100.961 305.947 103.529 298.95 108.734 298.659C113.94 298.367 131.456 299.264 131.456 299.264L152.053 297.064L156.913 308.78L137.538 308.447Z" stroke="#1A2E35" stroke-width="1.33333" stroke-miterlimit="10" stroke-linecap="round" stroke-linejoin="round"/>
<path d="M148.289 311.349C149.284 311.977 150.693 312.376 152.216 311.289C152.216 311.289 154.447 312.26 155.952 310.603C157.458 308.947 157.59 294.468 153.426 292.836C152.225 292.366 149.225 292.415 148.732 294.095C148.732 294.095 146.143 293.206 145.705 295.981C145.293 298.592 147.887 301.022 147.019 308.534C146.89 309.644 147.392 310.785 148.289 311.349Z" fill="#38BFF2"/>
<path d="M148.289 311.349C149.284 311.977 150.693 312.376 152.216 311.289C152.216 311.289 154.447 312.26 155.952 310.603C157.458 308.947 157.59 294.468 153.426 292.836C152.225 292.366 149.225 292.415 148.732 294.095C148.732 294.095 146.143 293.206 145.705 295.981C145.293 298.592 147.887 301.022 147.019 308.534C146.89 309.644 147.392 310.785 148.289 311.349Z" stroke="#1A2E35" stroke-width="1.33333" stroke-miterlimit="10" stroke-linecap="round" stroke-linejoin="round"/>
<g opacity="0.300003">
<g opacity="0.300003">
<path opacity="0.300003" d="M148.291 311.348C149.286 311.977 150.694 312.376 152.218 311.289C152.218 311.289 154.449 312.259 155.954 310.602C157.46 308.946 157.592 294.468 153.428 292.836C152.227 292.366 149.227 292.414 148.733 294.095C148.733 294.095 146.145 293.205 145.707 295.98C145.295 298.591 147.889 301.022 147.021 308.533C146.892 309.644 147.394 310.784 148.291 311.348Z" fill="black"/>
</g>
<g opacity="0.300003">
<path opacity="0.300003" d="M148.291 311.348C149.286 311.977 150.694 312.376 152.218 311.289C152.218 311.289 154.449 312.259 155.954 310.602C157.46 308.946 157.592 294.468 153.428 292.836C152.227 292.366 149.227 292.414 148.733 294.095C148.733 294.095 146.145 293.205 145.707 295.98C145.295 298.591 147.889 301.022 147.021 308.533C146.892 309.644 147.394 310.784 148.291 311.348Z" stroke="#1A2E35" stroke-width="1.33333" stroke-miterlimit="10" stroke-linecap="round" stroke-linejoin="round"/>
</g>
</g>
<path d="M153.041 307.972C153.041 307.972 153.163 301.696 150.58 296.534" stroke="#1A2E35" stroke-width="1.33333" stroke-miterlimit="10" stroke-linecap="round" stroke-linejoin="round"/>
<path d="M251.075 302.712C250.386 308.018 249.602 313.763 248.707 320H168.664L169.045 309.687C164.262 310.844 154.965 310.134 154.965 310.134V294.888C160.616 291.691 161.456 292.586 161.456 292.586C161.456 292.586 161.744 255.379 165.13 246.092C166.566 242.158 169.083 239.351 171.749 237.382V237.374C172.59 236.749 173.437 236.209 174.277 235.742C174.323 235.713 174.36 235.695 174.399 235.668C175.331 235.173 176.458 234.651 177.745 234.11C177.857 234.063 177.978 234.016 178.1 233.97C190.632 228.85 217.983 222.91 243.467 233.803C245.247 234.566 259.795 241.513 261.035 251.557C261.743 257.282 257.846 285.759 251.075 302.712Z" fill="#38BFF2"/>
<g opacity="0.199997">
<g opacity="0.199997">
<path opacity="0.199997" d="M238.399 256.843L230.417 293.89C229.177 292.911 225.606 292.845 221.064 293.274C222.062 292.165 222.873 290.963 223.48 289.656C235.546 263.547 238.185 257.365 238.399 256.843Z" fill="black"/>
</g>
</g>
<g opacity="0.199997">
<g opacity="0.199997">
<path opacity="0.199997" d="M252.98 297.546C250.668 305.79 249.652 313.296 248.709 320H168.666L169.402 308.121C174.39 307.412 183.146 306.685 192.238 305.071C193.395 309.874 192.453 313.753 192.453 313.753C192.453 313.753 229.267 318.322 241.622 315.348C245.148 314.499 248.337 309.575 251.068 302.797C251.73 301.145 252.365 299.384 252.98 297.546Z" fill="black"/>
</g>
</g>
<g opacity="0.300003">
<g opacity="0.300003">
<path opacity="0.300003" d="M162.413 293.289C162.413 293.289 160.621 291.691 154.961 294.893V310.139C154.961 310.139 164.289 309.805 167.948 307.824C171.097 309.772 170.537 274.09 171.097 254.868C166.528 256.124 166.162 264.82 165.456 272.999C164.482 284.271 162.413 293.289 162.413 293.289Z" fill="black"/>
</g>
</g>
<path d="M251.077 302.712C250.388 308.017 249.604 313.762 248.709 320H168.666L169.047 309.687C164.264 310.844 154.967 310.134 154.967 310.134V294.888C160.618 291.691 161.458 292.586 161.458 292.586C161.458 292.586 161.746 255.379 165.132 246.092C166.568 242.158 169.084 239.351 171.751 237.382V237.374C172.592 236.749 173.439 236.208 174.279 235.742C174.325 235.713 174.362 235.695 174.401 235.668C175.333 235.172 176.46 234.651 177.747 234.11C177.859 234.063 177.98 234.016 178.102 233.97C190.634 228.85 217.984 222.91 243.469 233.803C245.249 234.566 259.797 241.513 261.037 251.557C261.745 257.281 257.848 285.759 251.077 302.712Z" stroke="#1A2E35" stroke-width="1.33333" stroke-miterlimit="10" stroke-linecap="round" stroke-linejoin="round"/>
<path d="M261.036 251.557C261.063 251.78 261.092 252.042 261.1 252.331C261.511 259.492 257.613 286.515 251.067 302.797C248.335 309.576 245.146 314.499 241.621 315.348C229.266 318.322 192.452 313.753 192.452 313.753C192.452 313.753 194.28 306.2 189.701 299.113C189.701 299.113 225.844 290.273 230.413 293.89L238.413 256.807" stroke="#1A2E35" stroke-width="1.33333" stroke-miterlimit="10" stroke-linecap="round" stroke-linejoin="round"/>
<path d="M232.93 295.911C232.93 295.911 236.36 297.283 239.333 301.399" stroke="#1A2E35" stroke-width="1.33333" stroke-miterlimit="10" stroke-linecap="round" stroke-linejoin="round"/>
<path d="M140.853 297.242C140.853 297.242 137.486 296.533 136.113 298.067C134.681 299.667 128.87 308.428 130.854 310.111C132.837 311.793 136.876 302.564 136.876 302.564L140.853 297.242Z" fill="white"/>
<path d="M140.853 297.242C140.853 297.242 137.486 296.533 136.113 298.067C134.681 299.667 128.87 308.428 130.854 310.111C132.837 311.793 136.876 302.564 136.876 302.564L140.853 297.242Z" stroke="#1A2E35" stroke-width="1.33333" stroke-miterlimit="10" stroke-linecap="round" stroke-linejoin="round"/>
<path d="M147.626 297.083C147.626 297.083 140.138 295.474 138.461 297.761C136.784 300.048 127.349 311.865 133.218 312.247L142.595 301.725L147.626 297.083Z" fill="white"/>
<path d="M147.626 297.083C147.626 297.083 140.138 295.474 138.461 297.761C136.784 300.048 127.349 311.865 133.218 312.247L142.595 301.725L147.626 297.083Z" stroke="#1A2E35" stroke-width="1.33333" stroke-miterlimit="10" stroke-linecap="round" stroke-linejoin="round"/>
<path d="M164.542 309.653C164.542 309.653 156.85 311.331 153.724 311.941C150.598 312.55 144.805 316.59 141.374 314.99C137.945 313.389 152.581 307.443 152.581 307.443L157.611 305.417L164.542 309.653Z" fill="#C0C0C0"/>
<path d="M164.542 309.653C164.542 309.653 156.85 311.331 153.724 311.941C150.598 312.55 144.805 316.59 141.374 314.99C137.945 313.389 152.581 307.443 152.581 307.443L157.611 305.417L164.542 309.653Z" stroke="#1A2E35" stroke-width="1.33333" stroke-miterlimit="10" stroke-linecap="round" stroke-linejoin="round"/>
<path d="M170.77 263.619C170.879 260.702 170.988 257.784 171.097 254.868" stroke="#1A2E35" stroke-width="1.33333" stroke-miterlimit="10" stroke-linecap="round" stroke-linejoin="round"/>
<path d="M168.664 320C170.091 302.348 170.621 267.591 170.621 267.591" stroke="#1A2E35" stroke-width="1.33333" stroke-miterlimit="10" stroke-linecap="round" stroke-linejoin="round"/>
<path d="M192.451 300.125H165.922C165.922 300.125 145.339 293.95 141.909 298.752C138.478 303.555 131.16 310.873 133.218 312.246C135.277 313.618 143.967 303.67 143.967 303.67L151.514 303.741C151.514 303.741 145.11 306.528 143.738 307.901C142.367 309.273 139.393 313.16 140.994 313.847C142.595 314.532 147.626 309.502 147.626 309.502C147.626 309.502 155.173 307.672 157.003 308.586C158.832 309.502 166.15 313.16 175.984 310.415L196.227 312.931L192.451 300.125Z" fill="white"/>
<path d="M192.451 300.125H165.922C165.922 300.125 145.339 293.95 141.909 298.752C138.478 303.555 131.16 310.873 133.218 312.246C135.277 313.618 143.967 303.67 143.967 303.67L151.514 303.741C151.514 303.741 145.11 306.528 143.738 307.901C142.367 309.273 139.393 313.16 140.994 313.847C142.595 314.532 147.626 309.502 147.626 309.502C147.626 309.502 155.173 307.672 157.003 308.586C158.832 309.502 166.15 313.16 175.984 310.415L196.227 312.931L192.451 300.125Z" stroke="#1A2E35" stroke-width="1.33333" stroke-miterlimit="10" stroke-linecap="round" stroke-linejoin="round"/>
<path d="M235.643 269.646C234.916 265.413 234.879 261.049 235.559 256.806" stroke="#1A2E35" stroke-width="1.33333" stroke-miterlimit="10" stroke-linecap="round" stroke-linejoin="round"/>
<path d="M241.662 247.409C241.662 247.409 254.532 230.453 261.036 251.557" stroke="#1A2E35" stroke-width="1.33333" stroke-miterlimit="10" stroke-linecap="round" stroke-linejoin="round"/>
<path d="M187.009 298.035C187.818 297.18 189.083 296.444 190.828 297.118C190.828 297.118 192.747 295.624 194.618 296.854C196.487 298.086 200.211 312.077 196.583 314.69C195.536 315.446 192.619 316.143 191.723 314.639C191.723 314.639 189.437 316.143 188.323 313.563C187.275 311.137 189.184 308.138 186.477 301.077C186.077 300.034 186.281 298.805 187.009 298.035Z" fill="#38BFF2"/>
<g opacity="0.300003">
<g opacity="0.300003">
<path opacity="0.300003" d="M187.009 298.035C187.818 297.18 189.083 296.444 190.828 297.119C190.828 297.119 192.747 295.625 194.618 296.855C196.487 298.087 200.211 312.077 196.583 314.691C195.536 315.446 192.619 316.144 191.723 314.64C191.723 314.64 189.437 316.144 188.323 313.564C187.275 311.137 189.184 308.139 186.477 301.078C186.077 300.034 186.281 298.805 187.009 298.035Z" fill="black"/>
</g>
</g>
<path d="M187.009 298.034C187.818 297.179 189.083 296.444 190.828 297.118C190.828 297.118 192.747 295.624 194.618 296.854C196.487 298.086 200.211 312.076 196.583 314.69C195.536 315.446 192.619 316.143 191.723 314.639C191.723 314.639 189.437 316.143 188.323 313.563C187.275 311.137 189.184 308.138 186.477 301.077C186.077 300.034 186.281 298.805 187.009 298.034Z" stroke="#1A2E35" stroke-width="1.33333" stroke-miterlimit="10" stroke-linecap="round" stroke-linejoin="round"/>
<path d="M192.898 305.297C193.207 307.468 193.285 309.683 192.974 311.859" stroke="#1A2E35" stroke-width="1.33333" stroke-miterlimit="10" stroke-linecap="round" stroke-linejoin="round"/>
<path d="M204.562 263.422C204.504 264.424 203.646 265.189 202.644 265.131C201.642 265.074 200.878 264.215 200.935 263.212C200.993 262.211 201.852 261.446 202.854 261.504C203.855 261.562 204.62 262.421 204.562 263.422Z" fill="white"/>
<path d="M204.562 263.422C204.504 264.424 203.646 265.189 202.644 265.131C201.642 265.074 200.878 264.215 200.935 263.212C200.993 262.211 201.852 261.446 202.854 261.504C203.855 261.562 204.62 262.421 204.562 263.422Z" stroke="#1A2E35" stroke-width="1.33333" stroke-miterlimit="10" stroke-linecap="round" stroke-linejoin="round"/>
<path d="M203.255 291.576C203.197 292.578 202.34 293.344 201.337 293.285C200.336 293.228 199.571 292.369 199.628 291.367C199.687 290.365 200.546 289.601 201.547 289.657C202.548 289.716 203.313 290.575 203.255 291.576Z" fill="white"/>
<path d="M203.255 291.576C203.197 292.578 202.34 293.344 201.337 293.285C200.336 293.228 199.571 292.369 199.628 291.367C199.687 290.365 200.546 289.601 201.547 289.657C202.548 289.716 203.313 290.575 203.255 291.576Z" stroke="#1A2E35" stroke-width="1.33333" stroke-miterlimit="10" stroke-linecap="round" stroke-linejoin="round"/>
<path d="M219.905 228.932L218.571 210.146L199.133 214.647L198.097 229.735C196.87 229.888 195.703 230.059 194.564 230.235L199.317 241.633L208.612 242.853L223.477 229.155C222.27 229.065 221.076 228.988 219.905 228.932Z" fill="white"/>
<path d="M198.848 221.301C198.975 234.665 214.596 230.566 218.916 217.216L218.575 210.146L199.137 214.646L198.848 221.301Z" fill="#1A2E35"/>
<path d="M219.905 228.931L218.571 210.145L199.133 214.646L198.097 229.734C196.87 229.887 195.703 230.058 194.564 230.234L199.317 241.632L208.612 242.852L223.477 229.154C222.27 229.064 221.076 228.987 219.905 228.931Z" stroke="#1A2E35" stroke-width="1.33333" stroke-miterlimit="10" stroke-linecap="round" stroke-linejoin="round"/>
<path d="M186.931 194.287C186.931 194.287 179.831 181.995 178.778 175.512C175.53 155.493 189.985 162.248 189.985 162.248C189.985 162.248 200.205 153.1 212.933 154.701C225.661 156.302 229.015 161.718 237.58 165.047C237.58 165.047 231.15 197.696 222.917 205.015C214.684 212.333 186.931 194.287 186.931 194.287Z" fill="#1A2E35"/>
<path d="M186.931 194.287C186.931 194.287 179.831 181.995 178.778 175.512C175.53 155.493 189.985 162.248 189.985 162.248C189.985 162.248 200.205 153.1 212.933 154.701C225.662 156.302 229.015 161.718 237.58 165.047C237.58 165.047 231.15 197.696 222.917 205.015C214.684 212.333 186.931 194.287 186.931 194.287Z" stroke="#1A2E35" stroke-width="1.33333" stroke-miterlimit="10" stroke-linecap="round" stroke-linejoin="round"/>
<path d="M190.673 165.221C190.673 165.221 187.471 157.446 195.59 151.499" stroke="#1A2E35" stroke-width="1.33333" stroke-miterlimit="10" stroke-linecap="round" stroke-linejoin="round"/>
<path d="M204.641 160.549C214.144 156.348 218.379 163.374 228.985 165.222" stroke="#C0C0C0" stroke-width="1.33333" stroke-miterlimit="10"/>
<path d="M197.305 165.221C198.14 164.121 199.228 163.211 200.387 162.465" stroke="#C0C0C0" stroke-width="1.33333" stroke-miterlimit="10"/>
<path d="M207.057 168.268C207.057 168.268 211.167 164.318 219.324 169.449C223.794 172.26 227.47 172.661 227.47 172.661" stroke="#C0C0C0" stroke-width="1.33333" stroke-miterlimit="10"/>
<path d="M219.627 176.808C207.797 177.113 195.588 171.776 195.588 171.776C184.569 178.422 186.205 189.232 186.205 189.232C188.723 215.06 192.128 221.937 204.196 221.937C216.188 221.937 226.073 208.921 226.858 190.285C222.293 190.501 219.627 176.808 219.627 176.808Z" fill="white"/>
<path d="M219.627 176.808C207.797 177.113 195.588 171.776 195.588 171.776C184.569 178.422 186.205 189.232 186.205 189.232C188.723 215.06 192.128 221.937 204.196 221.937C216.188 221.937 226.073 208.921 226.858 190.285C222.293 190.501 219.627 176.808 219.627 176.808Z" stroke="#1A2E35" stroke-width="1.33333" stroke-miterlimit="10" stroke-linecap="round" stroke-linejoin="round"/>
<path d="M225.844 189.233C226.509 188.375 227.351 187.862 228.268 187.862C230.414 187.862 232.002 190.683 231.24 194.151C230.494 197.544 229.5 200.441 227.353 200.441C226.344 200.441 225.628 199.82 225.15 198.801" fill="white"/>
<path d="M225.844 189.233C226.509 188.375 227.351 187.862 228.268 187.862C230.414 187.862 232.002 190.683 231.24 194.151C230.494 197.544 229.5 200.441 227.353 200.441C226.344 200.441 225.628 199.82 225.15 198.801" stroke="#1A2E35" stroke-width="1.33333" stroke-miterlimit="10" stroke-linecap="round" stroke-linejoin="round"/>
<path d="M202.339 201.91C202.339 201.91 203.783 203.889 201.016 205.373C198.25 206.858 196.039 206.827 195.332 205.131C194.625 203.435 197.705 189.299 197.705 189.299" stroke="#1A2E35" stroke-width="1.33333" stroke-linecap="round" stroke-linejoin="round"/>
<path d="M197.237 191.541C195.745 190.786 189.768 188.175 184.107 191.737L184.471 197.22C184.471 197.22 186.56 198.367 191.353 198.367C193.516 198.367 195.027 198.134 196.024 197.882" stroke="#1A2E35" stroke-width="1.33333" stroke-linecap="round" stroke-linejoin="round"/>
<path d="M202.188 191.74L203.922 197.456C203.922 197.456 204.631 198.389 209.433 198.389C214.235 198.389 215.811 197.242 215.811 197.242L215.671 191.76C215.671 191.76 208.705 187.628 202.188 191.74Z" stroke="#1A2E35" stroke-width="1.33333" stroke-linecap="round" stroke-linejoin="round"/>
<path d="M197.619 191.741H202.188" stroke="#1A2E35" stroke-width="1.33333" stroke-linecap="round" stroke-linejoin="round"/>
<path d="M198.592 210.555C198.592 210.555 202.317 211.784 206.191 210.325C209.323 209.145 210.92 206.761 210.92 206.761" stroke="#1A2E35" stroke-width="1.33333" stroke-linecap="round" stroke-linejoin="round"/>
<path d="M206.186 186.331C212.184 183.858 214.83 186.826 214.83 186.826" stroke="#1A2E35" stroke-width="1.33333" stroke-linecap="round" stroke-linejoin="round"/>
<path d="M190.367 186.088C192.468 185.08 194.962 185.367 196.779 186.826" stroke="#1A2E35" stroke-width="1.33333" stroke-linecap="round" stroke-linejoin="round"/>
<path d="M208.576 190.501C209.132 190.501 209.525 191.388 209.525 192.519C209.525 193.651 209.061 194.539 208.516 194.539C207.971 194.539 207.576 193.61 207.576 192.519C207.597 191.419 208.02 190.501 208.576 190.501Z" fill="#1A2E35"/>
<path d="M193.688 190.248C194.232 190.248 194.627 191.136 194.627 192.267C194.627 193.398 194.162 194.287 193.617 194.287C193.071 194.287 192.678 193.358 192.678 192.267C192.709 191.177 193.142 190.248 193.688 190.248Z" fill="#1A2E35"/>
<path d="M183.742 179.953C183.957 181.045 184.227 182.14 184.673 183.162" stroke="#C0C0C0" stroke-width="1.33333" stroke-miterlimit="10"/>
<path d="M190.9 167.636C185.006 166.05 182.673 169.592 183.11 175.182" stroke="#C0C0C0" stroke-width="1.33333" stroke-miterlimit="10"/>
<path d="M197.136 228.863L204.319 241.785L221.561 228.178L226.86 228.922L215.704 248.647C215.274 249.395 214.307 249.634 213.577 249.174L204.04 243.157L196.603 247.703C195.652 248.284 194.422 247.679 194.299 246.573L192.453 229.74L197.136 228.863Z" fill="#38BFF2"/>
<g opacity="0.300003">
<g opacity="0.300003">
<path opacity="0.300003" d="M196.503 228.775L204.317 241.786L221.86 227.94L227.143 228.775L215.702 248.648C215.272 249.395 214.305 249.634 213.575 249.175L204.038 243.157L196.601 247.703C195.65 248.284 194.42 247.679 194.297 246.573L192.451 229.741L196.503 228.775Z" fill="black"/>
</g>
</g>
<path d="M197.132 228.864L204.315 241.786L221.557 228.178L226.856 228.922L215.701 248.648C215.27 249.396 214.303 249.635 213.574 249.175L204.036 243.158L196.599 247.703C195.649 248.284 194.418 247.68 194.296 246.573L192.449 229.741L197.132 228.864Z" stroke="#1A2E35" stroke-width="1.33333" stroke-miterlimit="10" stroke-linecap="round" stroke-linejoin="round"/>
<path d="M137.104 320H90.2217C89.2072 320 88.3848 319.177 88.3848 318.163V315.585C88.3848 314.571 89.2072 313.748 90.2217 313.748H137.104V320Z" fill="#1A2E35"/>
<path d="M137.104 320H90.2217C89.2072 320 88.3848 319.177 88.3848 318.163V315.585C88.3848 314.571 89.2072 313.748 90.2217 313.748H137.104V320Z" stroke="#1A2E35" stroke-width="1.33333" stroke-miterlimit="10" stroke-linecap="round" stroke-linejoin="round"/>
<path d="M177.449 320H137.104V313.748L177.533 316.414C178.204 316.458 178.726 317.016 178.726 317.688V318.722C178.726 319.428 178.154 320 177.449 320Z" fill="#38BFF2"/>
<path d="M177.449 320H137.104V313.748L177.533 316.414C178.204 316.458 178.726 317.016 178.726 317.688V318.722C178.726 319.428 178.154 320 177.449 320Z" stroke="#1A2E35" stroke-width="1.33333" stroke-miterlimit="10" stroke-linecap="round" stroke-linejoin="round"/>
<path d="M215.693 192.657L225.843 189.233L224.64 190.752" stroke="#1A2E35" stroke-width="1.33333" stroke-linecap="round" stroke-linejoin="round"/>
<path d="M280.677 204.331C280.677 204.331 268.996 168.661 298.374 166.158C327.753 163.655 331.22 191.037 333.914 204.765C336.019 215.495 356.087 235.128 340.557 249.778C324.342 265.074 284.863 259.972 282.594 238.222C280.324 216.472 282.391 212.019 280.677 204.331Z" fill="#1A2E35"/>
<path d="M280.677 204.331C280.677 204.331 268.996 168.661 298.374 166.158C327.753 163.655 331.22 191.037 333.914 204.765C336.019 215.495 356.087 235.128 340.557 249.778C324.342 265.074 284.863 259.972 282.594 238.222C280.324 216.472 282.391 212.019 280.677 204.331Z" stroke="#1A2E35" stroke-width="1.33333" stroke-miterlimit="10" stroke-linecap="round" stroke-linejoin="round"/>
<path d="M314.961 210.01C314.961 210.01 313.675 225.831 321.839 239.439C321.839 239.439 310.841 243.022 299.373 239.614C299.852 235.414 299.619 231.162 298.683 227.039L298.291 225.316L306.628 218.104L314.961 210.01Z" fill="white"/>
<path d="M294.785 221.938C296.301 230.453 297.698 232.307 304.908 230.789C310.256 229.662 314.815 221.641 315.072 215.816C314.664 212.274 314.693 207.854 314.693 207.854L306.635 218.104L294.785 221.938Z" fill="#1A2E35"/>
<path d="M314.965 210.01C314.965 210.01 313.679 225.831 321.843 239.439C321.843 239.439 310.845 243.022 299.377 239.615C299.856 235.414 299.623 231.163 298.687 227.039L298.295 225.316L306.632 218.104L314.965 210.01Z" stroke="#1A2E35" stroke-width="1.33333" stroke-miterlimit="10" stroke-linecap="round" stroke-linejoin="round"/>
<path d="M233.152 300.547C233.152 300.547 216.88 293.068 215.974 299.265C215.066 305.462 219.037 314.962 233.937 310.277L265.197 314.397C265.197 314.397 270.551 303.738 264.829 297.928C264.829 297.928 237.284 302.212 233.152 300.547Z" fill="white"/>
<path d="M233.152 300.547C233.152 300.547 216.88 293.068 215.974 299.265C215.066 305.462 219.037 314.962 233.937 310.277L265.197 314.397C265.197 314.397 270.551 303.738 264.829 297.928C264.829 297.928 237.284 302.212 233.152 300.547Z" stroke="#1A2E35" stroke-width="1.33333" stroke-miterlimit="10" stroke-linecap="round" stroke-linejoin="round"/>
<path d="M208.083 307.227C208.083 307.227 205.505 308.054 205.128 309.758C204.752 311.463 203.912 313.883 204.904 313.89C205.895 313.897 207.093 310.496 207.093 310.496L209.6 309.845L208.083 307.227Z" fill="white"/>
<path d="M208.083 307.227C208.083 307.227 205.505 308.054 205.128 309.758C204.752 311.463 203.912 313.883 204.904 313.89C205.895 313.897 207.093 310.496 207.093 310.496L209.6 309.845L208.083 307.227Z" stroke="#1A2E35" stroke-width="1.33333" stroke-miterlimit="10" stroke-linecap="round" stroke-linejoin="round"/>
<path d="M227.643 315.122L210.729 316.893L208.205 292.8L225.119 291.027L227.643 315.122Z" fill="white"/>
<path d="M227.643 315.122L210.729 316.893L208.205 292.8L225.119 291.027L227.643 315.122Z" stroke="#1A2E35" stroke-width="1.33333" stroke-miterlimit="10" stroke-linecap="round" stroke-linejoin="round"/>
<path d="M205.682 293.064L208.206 317.158L210.732 316.894L208.208 292.8L205.682 293.064Z" fill="#38BFF2"/>
<path d="M205.682 293.064L208.206 317.158L210.732 316.894L208.208 292.8L205.682 293.064Z" stroke="#1A2E35" stroke-width="1.33333" stroke-miterlimit="10" stroke-linecap="round" stroke-linejoin="round"/>
<path d="M220.575 287.541C218.555 287.752 217.085 289.567 217.295 291.587C217.305 291.675 217.331 291.756 217.347 291.841L218.201 291.753L219.106 291.658C219.085 291.574 219.063 291.491 219.053 291.403C218.943 290.352 219.708 289.407 220.759 289.297C221.809 289.188 222.753 289.953 222.863 291.004C222.937 291.708 222.613 292.357 222.078 292.746C222.194 293.138 222.539 293.644 223.502 293.842C224.289 293.081 224.743 291.989 224.621 290.82C224.409 288.8 222.594 287.328 220.575 287.541Z" fill="white"/>
<path d="M220.575 287.541C218.555 287.752 217.085 289.567 217.295 291.587C217.305 291.675 217.331 291.756 217.347 291.841L218.201 291.753L219.106 291.658C219.085 291.574 219.063 291.491 219.053 291.403C218.943 290.352 219.708 289.407 220.759 289.297C221.809 289.188 222.753 289.953 222.863 291.004C222.937 291.708 222.613 292.357 222.078 292.746C222.194 293.138 222.539 293.644 223.502 293.842C224.289 293.081 224.743 291.989 224.621 290.82C224.409 288.8 222.594 287.328 220.575 287.541Z" stroke="#1A2E35" stroke-width="1.33333" stroke-miterlimit="10" stroke-linecap="round" stroke-linejoin="round"/>
<path d="M211.395 297.794L217.215 297.185" stroke="#1A2E35" stroke-width="1.33333" stroke-miterlimit="10" stroke-linecap="round" stroke-linejoin="round"/>
<path d="M211.674 300.45L222.986 299.264" stroke="#1A2E35" stroke-width="1.33333" stroke-miterlimit="10" stroke-linecap="round" stroke-linejoin="round"/>
<path d="M211.953 303.106L217.609 302.512" stroke="#1A2E35" stroke-width="1.33333" stroke-miterlimit="10" stroke-linecap="round" stroke-linejoin="round"/>
<path d="M212.229 305.761L221.674 304.77" stroke="#1A2E35" stroke-width="1.33333" stroke-miterlimit="10" stroke-linecap="round" stroke-linejoin="round"/>
<path d="M212.506 308.416L218.161 307.823" stroke="#1A2E35" stroke-width="1.33333" stroke-miterlimit="10" stroke-linecap="round" stroke-linejoin="round"/>
<path d="M212.785 311.071L225.196 309.771" stroke="#1A2E35" stroke-width="1.33333" stroke-miterlimit="10" stroke-linecap="round" stroke-linejoin="round"/>
<path d="M213.064 313.726L218.885 313.117" stroke="#1A2E35" stroke-width="1.33333" stroke-miterlimit="10" stroke-linecap="round" stroke-linejoin="round"/>
<path d="M217.443 287.869C215.425 288.081 213.953 289.895 214.165 291.915C214.174 292.005 214.2 292.087 214.216 292.173L215.071 292.085L215.07 292.081L215.976 291.986C215.954 291.902 215.932 291.819 215.922 291.731C215.812 290.68 216.577 289.736 217.627 289.626C218.678 289.517 219.623 290.281 219.733 291.332C219.806 292.036 219.483 292.685 218.947 293.074C219.063 293.467 219.408 293.972 220.371 294.171C221.157 293.41 221.612 292.318 221.49 291.148C221.278 289.129 219.463 287.656 217.443 287.869Z" fill="white"/>
<path d="M217.443 287.869C215.425 288.081 213.953 289.895 214.165 291.915C214.174 292.005 214.2 292.087 214.216 292.173L215.071 292.085L215.07 292.081L215.976 291.986C215.954 291.902 215.932 291.819 215.922 291.731C215.812 290.68 216.577 289.736 217.627 289.626C218.678 289.517 219.623 290.281 219.733 291.332C219.806 292.036 219.483 292.685 218.947 293.074C219.063 293.467 219.408 293.972 220.371 294.171C221.157 293.41 221.612 292.318 221.49 291.148C221.278 289.129 219.463 287.656 217.443 287.869Z" stroke="#1A2E35" stroke-width="1.33333" stroke-miterlimit="10" stroke-linecap="round" stroke-linejoin="round"/>
<path d="M214.314 288.196C212.296 288.408 210.824 290.223 211.036 292.243C211.045 292.331 211.071 292.412 211.087 292.497L211.941 292.408L212.846 292.313C212.825 292.229 212.802 292.146 212.793 292.059C212.683 291.008 213.447 290.063 214.498 289.953C215.549 289.844 216.494 290.609 216.604 291.659C216.677 292.364 216.354 293.013 215.819 293.401C215.934 293.794 216.279 294.299 217.242 294.498C218.029 293.737 218.484 292.645 218.361 291.476C218.149 289.456 216.334 287.985 214.314 288.196Z" fill="white"/>
<path d="M214.314 288.196C212.296 288.408 210.824 290.223 211.036 292.243C211.045 292.331 211.071 292.412 211.087 292.497L211.941 292.408L212.846 292.313C212.825 292.229 212.802 292.146 212.793 292.059C212.683 291.008 213.447 290.063 214.498 289.953C215.549 289.844 216.494 290.609 216.604 291.659C216.677 292.364 216.354 293.013 215.819 293.401C215.934 293.794 216.279 294.299 217.242 294.498C218.029 293.737 218.484 292.645 218.361 291.476C218.149 289.456 216.334 287.985 214.314 288.196Z" stroke="#1A2E35" stroke-width="1.33333" stroke-miterlimit="10" stroke-linecap="round" stroke-linejoin="round"/>
<path d="M211.182 288.524C209.163 288.736 207.692 290.552 207.903 292.571C207.912 292.659 207.938 292.74 207.954 292.825L208.809 292.736L209.714 292.641C209.693 292.557 209.67 292.474 209.661 292.387C209.551 291.336 210.315 290.391 211.366 290.282C212.417 290.172 213.362 290.937 213.471 291.988C213.544 292.692 213.221 293.341 212.687 293.73C212.801 294.122 213.146 294.628 214.109 294.826C214.896 294.065 215.352 292.973 215.228 291.804C215.017 289.784 213.201 288.313 211.182 288.524Z" fill="white"/>
<path d="M211.182 288.524C209.163 288.736 207.692 290.552 207.903 292.571C207.912 292.659 207.938 292.74 207.954 292.825L208.809 292.736L209.714 292.641C209.693 292.557 209.67 292.474 209.661 292.387C209.551 291.336 210.315 290.391 211.366 290.282C212.417 290.172 213.362 290.937 213.471 291.988C213.544 292.692 213.221 293.341 212.687 293.73C212.801 294.122 213.146 294.628 214.109 294.826C214.896 294.065 215.352 292.973 215.228 291.804C215.017 289.784 213.201 288.313 211.182 288.524Z" stroke="#1A2E35" stroke-width="1.33333" stroke-miterlimit="10" stroke-linecap="round" stroke-linejoin="round"/>
<path d="M206.534 292.715C206.424 291.664 207.188 290.719 208.239 290.61C209.29 290.5 210.234 291.265 210.344 292.315C210.417 293.019 210.093 293.668 209.559 294.058C209.674 294.45 210.019 294.956 210.983 295.154C211.77 294.394 212.224 293.302 212.102 292.132C211.89 290.112 210.074 288.641 208.055 288.852C206.036 289.064 204.565 290.879 204.776 292.899C204.871 293.798 205.294 294.577 205.901 295.159L205.681 293.064L206.587 292.969C206.565 292.886 206.543 292.803 206.534 292.715Z" fill="white"/>
<path d="M206.534 292.715C206.424 291.664 207.188 290.719 208.239 290.61C209.29 290.5 210.234 291.265 210.344 292.315C210.417 293.019 210.093 293.668 209.559 294.058C209.674 294.45 210.019 294.956 210.983 295.154C211.77 294.394 212.224 293.302 212.102 292.132C211.89 290.112 210.074 288.641 208.055 288.852C206.036 289.064 204.565 290.879 204.776 292.899C204.871 293.798 205.294 294.577 205.901 295.159L205.681 293.064L206.587 292.969C206.565 292.886 206.543 292.803 206.534 292.715Z" stroke="#1A2E35" stroke-width="1.33333" stroke-miterlimit="10" stroke-linecap="round" stroke-linejoin="round"/>
<path d="M203.723 299.538C203.869 299.86 204.052 300.2 204.277 300.556C204.277 300.556 203.615 302.521 204.944 304.355C204.944 304.355 205.023 307.011 205.964 307.43C206.906 307.85 208.405 308.359 208.378 307.621C208.351 306.885 207.909 304.641 206.218 304.147C206.218 304.147 208.168 304.535 207.947 303.448C207.727 302.36 207.364 300.804 206.171 300.357L205.527 300.074C205.527 300.074 207.069 300.357 206.946 299.185C206.823 298.014 206.683 296.654 205.8 296.324C205.595 296.247 205.359 296.18 205.116 296.124C203.807 295.814 202.968 297.871 203.723 299.538Z" fill="white"/>
<path d="M203.723 299.538C203.869 299.86 204.052 300.2 204.277 300.556C204.277 300.556 203.615 302.521 204.944 304.355C204.944 304.355 205.023 307.011 205.964 307.43C206.906 307.85 208.405 308.359 208.378 307.621C208.351 306.885 207.909 304.641 206.218 304.147C206.218 304.147 208.168 304.535 207.947 303.448C207.727 302.36 207.364 300.804 206.171 300.357L205.527 300.074C205.527 300.074 207.069 300.357 206.946 299.185C206.823 298.014 206.683 296.654 205.8 296.324C205.595 296.247 205.359 296.18 205.116 296.124C203.807 295.814 202.968 297.871 203.723 299.538Z" stroke="#1A2E35" stroke-width="1.33333" stroke-miterlimit="10" stroke-linecap="round" stroke-linejoin="round"/>
<path d="M231.326 300.339C231.326 300.339 229.512 296.315 226.53 294.217C223.548 292.119 222.445 288.033 221.23 289.027C220.015 290.021 221.12 294.344 222.996 295.826C224.874 297.308 222.775 300.621 227.414 304.707" fill="white"/>
<path d="M231.326 300.339C231.326 300.339 229.512 296.315 226.53 294.217C223.548 292.119 222.445 288.033 221.23 289.027C220.015 290.021 221.12 294.344 222.996 295.826C224.874 297.308 222.775 300.621 227.414 304.707" stroke="#1A2E35" stroke-width="1.33333" stroke-miterlimit="10" stroke-linecap="round" stroke-linejoin="round"/>
<path d="M340.867 312.102C340.458 314.638 340.02 317.268 339.553 320H275.604C275.501 319.142 276.108 317.417 276.685 314.414C269.561 316.83 257.131 313.081 257.131 313.081C258.679 309.006 257.606 298.656 257.606 298.656L264.861 297.117C264.861 297.117 267.874 265.581 270.168 256.545C272.601 246.959 285.918 236.493 330.704 239.583C330.704 239.583 351.369 239.193 354.577 252.89C357.57 265.665 341.725 311.514 340.867 312.102Z" fill="#38BFF2"/>
<g opacity="0.199997">
<g opacity="0.199997">
<path opacity="0.199997" d="M276.686 314.416C271.734 316.095 264.229 314.798 260.107 313.847C261.179 313.027 261.851 311.348 262.102 309.222C265.459 308.699 268.817 303.365 271.027 279.121C271.548 273.434 272.667 269.862 274.103 267.457C272.9 272.333 272.379 277.797 273.936 284.129C274.737 287.384 277.255 295.216 277.479 298.462C277.991 305.855 277.348 310.975 276.686 314.416Z" fill="black"/>
</g>
</g>
<g opacity="0.199997">
<g opacity="0.199997">
<path opacity="0.199997" d="M340.855 312.111C340.454 314.649 340.017 317.277 339.551 320H275.601C276.747 316.494 279.564 299.803 275.591 289.657C275.433 289.247 289.327 283.411 298.633 285.797C338.077 295.914 324.49 263.315 335.755 257.385L326.038 295.495L320.732 297.182C332.221 297.891 328.901 315.115 328.901 315.115C334.291 315.99 338.729 313.585 340.855 312.111Z" fill="black"/>
</g>
</g>
<path d="M340.867 312.102C340.458 314.638 340.02 317.268 339.553 320H275.604C275.501 319.142 276.108 317.417 276.685 314.414C269.561 316.83 257.131 313.081 257.131 313.081C258.679 309.006 257.606 298.656 257.606 298.656L264.861 297.117C264.861 297.117 267.874 265.581 270.168 256.545C272.601 246.959 285.918 236.493 330.704 239.583C330.704 239.583 351.369 239.193 354.577 252.89C357.57 265.665 341.725 311.514 340.867 312.102Z" stroke="#1A2E35" stroke-width="1.33333" stroke-miterlimit="10" stroke-linecap="round" stroke-linejoin="round"/>
<path d="M258.771 296.877C258.771 296.877 261.193 298.173 261.983 303.871C262.774 309.57 261.558 314.475 258.393 314.396C255.227 314.317 254.68 313.077 255.319 311.907C255.957 310.736 257.352 309.154 256.297 304.282C254.973 298.173 252.252 298.729 252.252 298.729C252.252 298.729 255.885 295.254 258.771 296.877Z" fill="#38BFF2"/>
<path d="M258.771 296.877C258.771 296.877 261.193 298.173 261.983 303.871C262.774 309.57 261.558 314.475 258.393 314.396C255.227 314.317 254.68 313.077 255.319 311.907C255.957 310.736 257.352 309.154 256.297 304.282C254.973 298.173 252.252 298.729 252.252 298.729C252.252 298.729 255.885 295.254 258.771 296.877V296.877Z" stroke="#1A2E35" stroke-width="1.33333" stroke-miterlimit="10" stroke-linecap="round" stroke-linejoin="round"/>
<g opacity="0.199997">
<g opacity="0.199997">
<path opacity="0.199997" d="M262.1 309.221C261.848 311.347 261.177 313.026 260.104 313.846C259.619 314.219 259.051 314.415 258.398 314.397C255.227 314.322 254.677 313.082 255.321 311.907C255.955 310.741 257.354 309.156 256.3 304.279C254.976 298.17 252.252 298.73 252.252 298.73C252.252 298.73 255.89 295.253 258.771 296.875C258.771 296.875 261.195 298.17 261.988 303.869C262.249 305.799 262.286 307.636 262.1 309.221Z" fill="black"/>
</g>
</g>
<path d="M319.693 228.178C319.693 228.178 303.614 233.054 296.301 230.453L294.785 240.214C294.785 240.214 301.895 246.411 324.691 238.794L319.693 228.178Z" fill="#38BFF2"/>
<path d="M319.693 228.178C319.693 228.178 303.614 233.054 296.301 230.453L294.785 240.214C294.785 240.214 301.895 246.411 324.691 238.794L319.693 228.178Z" stroke="#1A2E35" stroke-width="1.33333" stroke-miterlimit="10" stroke-linecap="round" stroke-linejoin="round"/>
<path d="M262.565 294.029C264.476 300.253 266.185 305.25 264.495 305.768C262.807 306.287 261.418 301.192 259.507 294.968C257.595 288.744 255.886 283.748 257.575 283.228C259.264 282.71 260.654 287.804 262.565 294.029Z" fill="#38BFF2"/>
<path d="M262.565 294.029C264.476 300.253 266.185 305.25 264.495 305.768C262.807 306.287 261.418 301.192 259.507 294.968C257.595 288.744 255.886 283.748 257.575 283.228C259.264 282.71 260.654 287.804 262.565 294.029Z" stroke="#1A2E35" stroke-width="1.33333" stroke-miterlimit="10" stroke-linecap="round" stroke-linejoin="round"/>
<path d="M259.263 294.178L262.323 293.239C261.875 291.77 261.454 290.38 261.05 289.125L258.008 290.059C258.378 291.324 258.81 292.711 259.263 294.178Z" fill="#1A2E35"/>
<path d="M258.984 286.179C258.984 286.179 260.415 283.314 261.729 285.337C263.043 287.358 263.315 293.507 264.241 293.514" stroke="#1A2E35" stroke-width="1.33333" stroke-miterlimit="10" stroke-linecap="round" stroke-linejoin="round"/>
<path d="M277.952 255.715C276.787 259.287 275.175 263.138 274.101 267.455C272.898 272.331 272.377 277.796 273.933 284.128C274.735 287.382 277.253 295.214 277.477 298.46C277.99 305.855 277.346 310.974 276.684 314.415C276.107 317.417 275.5 319.142 275.603 319.999" stroke="#1A2E35" stroke-width="1.33333" stroke-miterlimit="10" stroke-linecap="round" stroke-linejoin="round"/>
<path d="M317.532 298.243C317.532 298.243 291.518 301.796 282.747 301.997C281.399 302.028 277.374 301.529 277.374 301.529L271.138 297.359C271.138 297.359 266.331 296.647 263.975 297.187L261.29 300.696C261.29 300.696 257.938 301.776 259.852 304.316C259.852 304.316 259.116 306.266 260.735 307.739C260.735 307.739 260.883 309.948 262.355 310.831C262.355 310.831 262.65 312.892 264.269 313.481C265.889 314.07 276.048 312.45 279.14 311.567C282.233 310.684 312.268 315.396 324.047 315.101C324.047 315.101 334.132 303.322 317.532 298.243Z" fill="white"/>
<path d="M317.532 298.243C317.532 298.243 291.518 301.796 282.747 301.997C281.399 302.028 277.374 301.529 277.374 301.529L271.138 297.359C271.138 297.359 266.331 296.647 263.975 297.187L261.29 300.696C261.29 300.696 257.938 301.776 259.852 304.316C259.852 304.316 259.116 306.266 260.735 307.739C260.735 307.739 260.883 309.948 262.355 310.831C262.355 310.831 262.65 312.892 264.269 313.481C265.889 314.07 276.048 312.45 279.14 311.567C282.233 310.684 312.268 315.396 324.047 315.101C324.047 315.101 334.132 303.322 317.532 298.243V298.243Z" stroke="#1A2E35" stroke-width="1.33333" stroke-miterlimit="10" stroke-linecap="round" stroke-linejoin="round"/>
<path d="M317.941 199.738C317.941 199.738 311.074 202.418 307.01 195.016C305.249 191.806 301.683 185.114 301.683 185.114C300.669 187.737 301.914 191.732 301.914 191.732C299.589 190.712 295.09 190.471 295.09 190.471C293.495 187.799 293.029 181.744 293.029 181.744C290.819 185.435 291.459 190.73 291.459 190.73C286.738 191.385 283.821 192.993 281.672 194.875C282.257 197.254 282.469 200.962 282.273 208.668C282.019 218.737 286.856 221.494 291.568 225.257C296.281 229.02 309.204 230.97 313.66 211.292C313.66 211.292 323.006 207.817 318.433 200.515C318.278 200.268 318.114 200.008 317.941 199.738Z" fill="white"/>
<path d="M317.941 199.738C317.941 199.738 311.074 202.418 307.01 195.016C305.249 191.806 301.683 185.114 301.683 185.114C300.669 187.737 301.914 191.732 301.914 191.732C299.589 190.712 295.09 190.471 295.09 190.471C293.495 187.799 293.029 181.744 293.029 181.744C290.819 185.435 291.459 190.73 291.459 190.73C286.738 191.385 283.821 192.993 281.672 194.875C282.257 197.254 282.469 200.962 282.273 208.668C282.019 218.737 286.856 221.494 291.568 225.257C296.281 229.02 309.204 230.97 313.66 211.292C313.66 211.292 323.006 207.817 318.433 200.515C318.278 200.268 318.114 200.008 317.941 199.738Z" stroke="#1A2E35" stroke-width="1.33333" stroke-miterlimit="10" stroke-linecap="round" stroke-linejoin="round"/>
<path d="M310.291 187.661C313.23 193.683 318.346 198.32 324.9 200.026" stroke="#C0C0C0" stroke-width="1.33333" stroke-miterlimit="10"/>
<path d="M307.84 180.205C308.037 181.428 308.357 182.633 308.739 183.809" stroke="#C0C0C0" stroke-width="1.33333" stroke-miterlimit="10"/>
<path d="M312.5 180.653C312.5 180.653 317.794 190.761 326.075 191.002" stroke="#C0C0C0" stroke-width="1.33333" stroke-miterlimit="10"/>
<path d="M328.736 206.362C328.736 206.362 342.207 228.178 342.207 240.875" stroke="#C0C0C0" stroke-width="1.33333" stroke-miterlimit="10"/>
<path d="M325.17 212.178C325.17 212.178 328.504 224.349 333.859 230.454" stroke="#C0C0C0" stroke-width="1.33333" stroke-miterlimit="10"/>
<path d="M282.829 180.541C282.456 182.182 282.181 183.995 282.033 185.997" stroke="#C0C0C0" stroke-width="1.33333" stroke-miterlimit="10"/>
<path d="M293.855 169.108C293.855 169.108 287.585 170.287 283.488 177.677" stroke="#C0C0C0" stroke-width="1.33333" stroke-miterlimit="10"/>
<path d="M285.919 225.61C285.919 225.61 285.713 235.398 290.706 240.895" stroke="#C0C0C0" stroke-width="1.33333" stroke-miterlimit="10"/>
<path d="M294.785 195.643C301.578 194.311 304.561 197.773 304.561 197.773" stroke="#1A2E35" stroke-width="1.33333" stroke-linecap="round" stroke-linejoin="round"/>
<path d="M283.457 198.511C284.971 196.977 287.058 196.146 289.212 196.218" stroke="#1A2E35" stroke-width="1.33333" stroke-linecap="round" stroke-linejoin="round"/>
<path d="M299.216 218.439C301.309 217.239 302.479 214.131 302.479 214.131L302.041 214.366C299.307 215.834 296.326 216.787 293.248 217.177C295.213 219.245 297.824 219.235 299.216 218.439Z" stroke="#1A2E35" stroke-width="1.33333" stroke-linecap="round" stroke-linejoin="round"/>
<path d="M290.892 211.953C290.007 211.844 287.477 210.645 287.267 208.935C287.204 208.422 287.575 207.953 288.127 207.546C290.315 205.94 291.633 203.409 291.439 200.702C291.425 200.51 291.417 200.398 291.417 200.398" stroke="#1A2E35" stroke-width="1.33333" stroke-linecap="round" stroke-linejoin="round"/>
<path d="M299.586 198.373C300.229 198.294 300.89 199.364 301.062 200.753C301.233 202.141 300.849 203.332 300.206 203.411C299.562 203.491 298.901 202.428 298.731 201.039C298.558 199.644 298.942 198.452 299.586 198.373Z" fill="#1A2E35"/>
<path d="M288.376 202.392C288.544 203.756 288.168 204.924 287.538 205.002C286.907 205.08 286.259 204.038 286.091 202.673C285.923 201.309 286.298 200.141 286.929 200.063C287.56 199.986 288.208 201.029 288.376 202.392Z" fill="#1A2E35"/>
<path d="M309.25 199.547C309.25 199.547 308.376 197.081 309.37 195.779" stroke="#1A2E35" stroke-width="1.33333" stroke-linecap="round" stroke-linejoin="round"/>
<path d="M340.86 312.115C338.737 313.586 334.293 315.994 328.908 315.113C328.908 315.113 332.22 297.892 320.736 297.184L326.037 295.494L335.754 257.385" stroke="#1A2E35" stroke-width="1.33333" stroke-miterlimit="10" stroke-linecap="round" stroke-linejoin="round"/>
<path d="M328.906 295.495C328.906 295.495 335.057 297.114 336.786 302.412" stroke="#1A2E35" stroke-width="1.33333" stroke-miterlimit="10" stroke-linecap="round" stroke-linejoin="round"/>
<path d="M303.795 234.162C309.639 234.158 315.437 232.844 320.762 230.453" stroke="#1A2E35" stroke-width="1.33333" stroke-miterlimit="10" stroke-linecap="round" stroke-linejoin="round"/>
<path d="M295.867 233.252C297.177 233.607 298.528 233.817 299.877 233.96" stroke="#1A2E35" stroke-width="1.33333" stroke-miterlimit="10" stroke-linecap="round" stroke-linejoin="round"/>
<path d="M322.076 244.18C323.734 243.59 325.476 242.907 327.302 242.122" stroke="#1A2E35" stroke-width="1.33333" stroke-miterlimit="10" stroke-linecap="round" stroke-linejoin="round"/>
<path d="M293.285 244.321C293.285 244.321 299.537 250.259 316.09 246.02" stroke="#1A2E35" stroke-width="1.33333" stroke-miterlimit="10" stroke-linecap="round" stroke-linejoin="round"/>
<path d="M298.689 273.838C298.689 273.838 299.672 288.176 310.293 293.515" stroke="#1A2E35" stroke-width="1.33333" stroke-miterlimit="10" stroke-linecap="round" stroke-linejoin="round"/>
<path d="M317.271 298.473C317.271 298.473 319.368 293.865 325.608 296.139C325.608 296.139 331.514 298.171 333.282 304.244C335.048 310.317 332.84 315.728 328.533 315.949C324.227 316.17 323.441 315.839 324.165 314.513C324.89 313.188 326.385 309.589 324.502 305.084C321.822 298.674 317.271 298.473 317.271 298.473Z" fill="#38BFF2"/>
<g opacity="0.199997">
<g opacity="0.199997">
<path opacity="0.199997" d="M317.275 298.473C317.275 298.473 319.372 293.864 325.612 296.139C325.612 296.139 331.518 298.171 333.286 304.244C335.052 310.317 332.844 315.728 328.537 315.949C324.231 316.17 323.445 315.839 324.169 314.513C324.894 313.188 326.388 309.589 324.506 305.084C321.826 298.674 317.275 298.473 317.275 298.473Z" fill="black"/>
</g>
</g>
<path d="M317.273 298.473C317.273 298.473 319.37 293.864 325.61 296.139C325.61 296.139 331.516 298.171 333.284 304.244C335.05 310.317 332.842 315.728 328.535 315.949C324.229 316.17 323.443 315.839 324.167 314.513C324.892 313.188 326.387 309.589 324.504 305.084C321.824 298.674 317.273 298.473 317.273 298.473Z" stroke="#1A2E35" stroke-width="1.33333" stroke-miterlimit="10" stroke-linecap="round" stroke-linejoin="round"/>
<path d="M31.5671 279.512C31.5671 279.512 28.3603 252.085 0 263.136C0 263.136 24.1288 262.957 28.2102 283.621L31.9634 283.221L31.5671 279.512Z" fill="#38BFF2"/>
<g opacity="0.100006">
<g opacity="0.100006">
<path opacity="0.100006" d="M31.5671 279.512C31.5671 279.512 28.3603 252.085 0 263.135C0 263.135 24.1288 262.956 28.2102 283.621L31.9634 283.221L31.5671 279.512Z" fill="black"/>
</g>
</g>
<path d="M31.9538 279.05C31.9538 279.05 29.5014 249.805 24.1602 227.077C24.1602 227.077 40.4785 244.338 36.7486 276.84L31.9538 279.05Z" fill="#38BFF2"/>
<g opacity="0.100006">
<g opacity="0.100006">
<path opacity="0.100006" d="M31.9558 279.051C31.9558 279.051 29.5033 249.805 24.1621 227.077C24.1621 227.077 40.4805 244.338 36.7505 276.841L31.9558 279.051Z" fill="black"/>
</g>
</g>
<path d="M30.3695 298.41C30.3695 298.41 25.666 258.127 10.0098 244.294C10.0098 244.294 38.0092 251.258 33.8607 294.04L30.3695 298.41Z" fill="#38BFF2"/>
<path d="M35.2921 296.722C35.2921 296.722 42.1504 256.749 58.5266 243.778C58.5266 243.778 30.1933 249.228 32.0396 292.172L35.2921 296.722Z" fill="#38BFF2"/>
<path d="M49.6596 283.646H16.5566V289.396H17.6588V309.694C17.6588 315.385 22.2727 319.999 27.9646 319.999H38.2516C43.9435 319.999 48.5574 315.385 48.5574 309.694V289.396H49.6596V283.646Z" fill="white"/>
<path d="M49.6596 283.646H16.5566V289.396H17.6588V309.694C17.6588 315.385 22.2727 319.999 27.9646 319.999H38.2516C43.9435 319.999 48.5574 315.385 48.5574 309.694V289.396H49.6596V283.646Z" stroke="#1A2E35" stroke-width="1.33333" stroke-miterlimit="10"/>
<path d="M39.4023 289.125H43.812H39.4023Z" fill="white"/>
<path d="M39.4023 289.125H43.812" stroke="#1A2E35" stroke-width="1.33333" stroke-miterlimit="10"/>
<path d="M22.1484 289.125H34.9206H22.1484Z" fill="white"/>
<path d="M22.1484 289.125H34.9206" stroke="#1A2E35" stroke-width="1.33333" stroke-miterlimit="10"/>
<path d="M161.718 294.675L153.233 225.575C152.963 223.38 150.966 221.601 148.771 221.601H139.033L150.275 298.649H158.232C160.426 298.649 161.987 296.87 161.718 294.675Z" fill="#38BFF2"/>
<path d="M161.718 294.675L153.233 225.575C152.963 223.38 150.966 221.601 148.771 221.601H139.033L150.275 298.649H158.232C160.426 298.649 161.987 296.87 161.718 294.675Z" stroke="#1A2E35" stroke-width="1.33333" stroke-miterlimit="10" stroke-linecap="round" stroke-linejoin="round"/>
<path d="M156.126 298.648H58.3469C56.1528 298.648 54.1555 296.869 53.885 294.674L45.4014 225.575C45.1319 223.38 46.6919 221.601 48.887 221.601H146.666C148.861 221.601 150.859 223.38 151.127 225.575L159.612 294.674C159.882 296.869 158.321 298.648 156.126 298.648Z" fill="#1A2E35"/>
<g opacity="0.100006">
<g opacity="0.100006">
<path opacity="0.100006" d="M156.123 298.648H58.343C56.1489 298.648 54.1515 296.869 53.8811 294.674L45.3975 225.575C45.128 223.38 46.688 221.6 48.8831 221.6H146.662C148.857 221.6 150.855 223.38 151.124 225.575L159.608 294.674C159.878 296.869 158.318 298.648 156.123 298.648Z" fill="white"/>
</g>
</g>
<path d="M156.128 298.648H58.3489C56.1548 298.648 54.1574 296.869 53.887 294.674L45.4033 225.575C45.1338 223.38 46.6939 221.601 48.8889 221.601H146.667C148.863 221.601 150.861 223.38 151.129 225.575L159.614 294.674C159.883 296.869 158.323 298.648 156.128 298.648Z" stroke="#1A2E35" stroke-width="1.33333" stroke-miterlimit="10" stroke-linecap="round" stroke-linejoin="round"/>
<path d="M110.536 314.351L114.44 269.846C114.534 268.776 113.691 267.857 112.617 267.857H87.9319C86.9836 267.857 86.1928 268.581 86.1098 269.527L81.8568 318.01C81.7626 319.08 82.6056 320 83.6789 320H132.577C133.588 320 134.407 319.18 134.407 318.17C134.407 317.16 133.588 316.341 132.577 316.341H112.359C111.285 316.341 110.442 315.42 110.536 314.351Z" fill="#1A2E35"/>
<path d="M110.536 314.351L114.44 269.846C114.534 268.776 113.691 267.857 112.617 267.857H87.9319C86.9836 267.857 86.1928 268.581 86.1098 269.527L81.8568 318.01C81.7626 319.08 82.6056 320 83.6789 320H132.577C133.588 320 134.407 319.18 134.407 318.17C134.407 317.16 133.588 316.341 132.577 316.341H112.359C111.285 316.341 110.442 315.42 110.536 314.351Z" stroke="#1A2E35" stroke-width="1.33333" stroke-miterlimit="10" stroke-linecap="round" stroke-linejoin="round"/>
<path d="M134.405 318.17C134.405 317.159 133.587 316.341 132.576 316.341H112.357C111.284 316.341 110.441 315.42 110.534 314.351L114.438 269.846C114.532 268.779 113.693 267.861 112.623 267.858C111.677 267.861 110.89 268.584 110.807 269.527L106.554 318.01C106.46 319.08 107.304 320 108.376 320H132.576C133.587 320 134.405 319.18 134.405 318.17Z" fill="#38BFF2"/>
<path d="M134.405 318.17C134.405 317.159 133.587 316.341 132.576 316.341H112.357C111.284 316.341 110.441 315.42 110.534 314.351L114.438 269.846C114.532 268.779 113.693 267.861 112.623 267.858C111.677 267.861 110.89 268.584 110.807 269.527L106.554 318.01C106.46 319.08 107.304 320 108.376 320H132.576C133.587 320 134.405 319.18 134.405 318.17Z" stroke="#1A2E35" stroke-width="1.33333" stroke-miterlimit="10" stroke-linecap="round" stroke-linejoin="round"/>
<path d="M22.2969 320H371.976" stroke="#1A2E35" stroke-width="1.33333" stroke-miterlimit="10" stroke-linecap="round" stroke-linejoin="round"/>
<path d="M348.585 150.663H330.2C327.814 150.663 325.879 152.598 325.879 154.985V163.929C325.879 166.315 327.814 168.249 330.2 168.249H335.005L336.408 176.503L343.78 168.249H348.585C350.972 168.249 352.906 166.315 352.906 163.929V154.985C352.906 152.598 350.972 150.663 348.585 150.663Z" fill="white"/>
<path d="M348.585 150.663H330.2C327.814 150.663 325.879 152.598 325.879 154.985V163.929C325.879 166.315 327.814 168.249 330.2 168.249H335.005L336.408 176.503L343.78 168.249H348.585C350.972 168.249 352.906 166.315 352.906 163.929V154.985C352.906 152.598 350.972 150.663 348.585 150.663Z" stroke="#1A2E35" stroke-width="1.33333" stroke-miterlimit="10" stroke-linecap="round" stroke-linejoin="round"/>
<path d="M320.405 124.205H302.02C299.635 124.205 297.699 126.14 297.699 128.526V137.47C297.699 139.857 299.635 141.792 302.02 141.792H306.825L310.467 150.045L315.6 141.792H320.405C322.792 141.792 324.727 139.857 324.727 137.47V128.526C324.727 126.14 322.792 124.205 320.405 124.205Z" fill="white"/>
<path d="M320.405 124.205H302.02C299.635 124.205 297.699 126.14 297.699 128.526V137.47C297.699 139.857 299.635 141.792 302.02 141.792H306.825L310.467 150.045L315.6 141.792H320.405C322.792 141.792 324.727 139.857 324.727 137.47V128.526C324.727 126.14 322.792 124.205 320.405 124.205Z" stroke="#1A2E35" stroke-width="1.33333" stroke-miterlimit="10" stroke-linecap="round" stroke-linejoin="round"/>
<path d="M284.631 133.49H267.269C265.015 133.49 263.188 135.317 263.188 137.571V146.018C263.188 148.272 265.015 150.099 267.269 150.099H271.806L276.541 157.892L280.093 150.099H284.631C286.885 150.099 288.712 148.272 288.712 146.018V137.571C288.712 135.317 286.885 133.49 284.631 133.49Z" fill="white"/>
<path d="M284.631 133.49H267.269C265.015 133.49 263.188 135.317 263.188 137.571V146.018C263.188 148.272 265.015 150.099 267.269 150.099H271.806L276.541 157.892L280.093 150.099H284.631C286.885 150.099 288.712 148.272 288.712 146.018V137.571C288.712 135.317 286.885 133.49 284.631 133.49Z" stroke="#1A2E35" stroke-width="1.33333" stroke-miterlimit="10" stroke-linecap="round" stroke-linejoin="round"/>
<path d="M271.161 138.98V141.631H271.743C272.135 141.631 272.346 141.451 272.346 140.893V139.719C272.346 139.159 272.135 138.98 271.743 138.98H271.161ZM273.578 139.797V140.815C273.578 142.068 272.972 142.749 271.743 142.749H271.161V145.691H269.932V137.862H271.743C272.972 137.862 273.578 138.544 273.578 139.797Z" fill="#1A2E35"/>
<path d="M275.432 145.691H274.203V137.861H275.432V141.216H276.831V137.861H278.084V145.691H276.831V142.335H275.432V145.691Z" fill="#1A2E35"/>
<path d="M280.211 138.98V141.631H280.792C281.184 141.631 281.397 141.451 281.397 140.893V139.719C281.397 139.159 281.184 138.98 280.792 138.98H280.211ZM282.626 139.797V140.814C282.626 142.067 282.023 142.749 280.792 142.749H280.211V145.69H278.98V137.862H280.792C282.023 137.862 282.626 138.544 282.626 139.797Z" fill="#1A2E35"/>
<path d="M308.577 134.206V135.246C308.577 136.498 307.95 137.215 306.742 137.215C305.534 137.215 304.908 136.498 304.908 135.246V131.175C304.908 129.923 305.534 129.207 306.742 129.207C307.95 129.207 308.577 129.923 308.577 131.175V131.935H307.414V131.097C307.414 130.537 307.168 130.325 306.776 130.325C306.384 130.325 306.139 130.537 306.139 131.097V135.324C306.139 135.884 306.384 136.085 306.776 136.085C307.168 136.085 307.414 135.884 307.414 135.324V134.206H308.577Z" fill="#1A2E35"/>
<path d="M311.531 132.775H313.029V133.648H311.531V135.179H310.659V133.648H309.16V132.775H310.659V131.265H311.531V132.775Z" fill="#1A2E35"/>
<path d="M315.963 132.774H317.461V133.647H315.963V135.178H315.09V133.647H313.592V132.774H315.09V131.265H315.963V132.774Z" fill="#1A2E35"/>
<path d="M330.773 160.313V159.121L335.756 157.287V158.495L332.333 159.717L335.756 160.94V162.147L330.773 160.313Z" fill="#1A2E35"/>
<path d="M340.661 154.369H342.113L337.894 165.066H336.443L340.661 154.369Z" fill="#1A2E35"/>
<path d="M342.801 162.147V160.94L346.224 159.718L342.801 158.495V157.287L347.783 159.121V160.313L342.801 162.147Z" fill="#1A2E35"/>
</svg>
